<?xml version="1.0" encoding="utf-8" ?><svg xmlns="http://www.w3.org/2000/svg" xmlns:xlink="http://www.w3.org/1999/xlink" width="2048" height="2048" viewBox="0 0 2048 2048"><defs><linearGradient id="gradient_0" gradientUnits="userSpaceOnUse" x1="1787.6699" y1="1375.3511" x2="985.83704" y2="830.01801"><stop offset="0" stop-color="#FA03D6"/><stop offset="1" stop-color="#8849EB"/></linearGradient></defs><path fill="url(#gradient_0)" d="M1042.13 625.529C1040.4 578.844 1042.72 526.009 1041.73 478.647C1041.21 453.717 1040.31 389.927 1043.41 367.56C1045.72 350.843 1051.2 334.722 1059.55 320.06C1079.3 284.637 1112.4 258.596 1151.48 247.75C1191.32 236.933 1233.83 242.281 1269.75 262.631C1288.05 273.238 1303.16 287.252 1315.94 303.982C1318.63 307.498 1323.09 312.261 1324.19 316.351C1325.1 317.137 1326.24 318.113 1327.59 319.279C1338.78 321.525 1355.39 319.824 1366.7 320.147C1383.72 289.005 1384.89 280.18 1384.47 246.673C1396.78 249.877 1430.09 262.502 1439.53 270.104L1440.19 272.046C1436.96 278.302 1430.18 283.39 1425.73 289.896C1418.17 300.948 1414.44 312.422 1409.17 324.467C1433.83 335.017 1448.37 345.97 1466.33 366.066C1482.8 348.893 1496.58 336.037 1503.43 312.465C1515.88 323.595 1539.09 343.417 1548.4 355.792C1524.19 368.627 1514.41 373.161 1495.82 394.199C1504.81 403.174 1540.35 438.929 1549.37 442.96C1558.58 441.279 1573.4 418.404 1579.06 410.614C1592.24 425.848 1605.06 441.576 1615.63 458.78C1589.54 466.395 1578.27 470.708 1555.86 488.108L1554.55 532.278C1562.53 538.955 1570.63 545.494 1578.83 551.892C1589.4 546.664 1605.15 540.309 1614.23 533.265C1618.33 530.081 1626.05 517.303 1631.02 514.455C1638.14 518.28 1659.19 555.98 1664.88 565.4C1638.98 567.729 1628.26 573.598 1606.38 587.949C1622.81 613.893 1629.6 623.667 1634.32 654.371C1659.12 642.805 1668.8 636.394 1688.32 617.586C1696.84 636.256 1704.49 655.311 1711.24 674.689C1679.09 676.484 1657.82 688.142 1631.46 706.207C1644.53 723.564 1662.41 741.839 1676.52 760.051C1700.94 752.356 1710.81 750.366 1730.61 733.946C1737.6 754.106 1740.84 772.845 1744.88 793.675C1722.76 791.603 1707.27 789.86 1686.56 800.882L1686.81 864.745C1716.63 863.717 1728.73 862.227 1755.5 850.694C1758.33 866.796 1763.71 893.712 1764.64 909.267C1730.1 902.873 1730.1 904.412 1696.32 905.892C1707.66 923.411 1724.15 937.774 1733.97 956.413C1738.03 964.121 1737.59 965.799 1738.47 974.097C1764.19 974.811 1764.4 973.268 1788.14 964.494C1789.45 979.948 1793.19 1012.17 1792.57 1026.62C1772.49 1018.45 1760.79 1017.49 1739.24 1017.24C1739.44 1033.87 1741.04 1059.88 1738.31 1076.37C1737.28 1082.62 1731.62 1086.93 1736.4 1092.58C1748.7 1098.06 1781.6 1089.53 1794.12 1084.69C1795.55 1084.14 1796.97 1083.57 1798.38 1082.97C1797.75 1102.22 1796.1 1126.13 1793.4 1145.17C1770.83 1132.38 1768.57 1132.6 1743.03 1133.5L1743.37 1203.1C1763.17 1207.11 1776.82 1207.5 1796.98 1204.01C1792.34 1224.64 1788.09 1243.79 1782.41 1264.18C1764.46 1253.02 1760.13 1250.13 1739.48 1245.68C1734.66 1268.04 1714.83 1285.55 1699.01 1301.9C1724.68 1318.58 1736.69 1318.49 1766.84 1319.68C1759.63 1339.77 1752.03 1357.7 1744.29 1377.42C1722.64 1360.25 1701.05 1348.64 1675.37 1338.52C1675.18 1363.73 1674.63 1389.77 1674.83 1414.92C1687.69 1424.9 1705.93 1427.19 1721.7 1429.15C1711.61 1445.04 1704.6 1463.51 1694.03 1480.57C1678.65 1464.19 1674.75 1461.96 1654.86 1451.38C1636.64 1466.24 1615.71 1482.7 1598.08 1497.61C1626.36 1519.98 1633.99 1525.49 1667.41 1535.17C1657.52 1551.99 1646.51 1569.07 1633.72 1583.86C1613.49 1554.88 1601.42 1549.63 1572.61 1529.95C1570.46 1556.96 1569.54 1583.48 1567.14 1610.56C1590.61 1630.35 1591.77 1625.93 1615.63 1637.07C1601.32 1655.93 1586.53 1670.71 1571.18 1688.15C1560.93 1664.93 1556.74 1657.72 1535.72 1643.17C1524.96 1650.46 1517.99 1659.1 1508.73 1667.37C1487.66 1686.18 1459.01 1717.28 1436.19 1732.23L1332.42 1732.41L1331.75 1733.15C1324.01 1741.88 1318.48 1751.23 1309.98 1760.5C1283.64 1789.63 1246.97 1807.33 1207.78 1809.85C1117.25 1815.53 1046.41 1746.97 1042.38 1657.69C1041.26 1632.88 1041.86 1607.29 1041.84 1582.41L1041.96 1451.93L1042.37 1054.06L1042.13 766.196L1041.85 670.463C1041.85 659.949 1041.21 635.309 1042.13 625.529ZM1110.53 801.896C1122.7 801.935 1134.87 802.077 1147.03 802.321C1146.3 777.563 1146.39 751.897 1146.21 727.056C1146.08 709.628 1145.49 687.618 1146.49 670.462C1150.44 666.487 1154.35 662.483 1158.24 658.452C1157.88 607.098 1157.79 555.743 1157.96 504.388C1158 495.312 1157.5 453.453 1159.41 446.877C1146.19 438.626 1136.08 430.842 1132.2 414.425C1129.28 401.881 1131.54 388.691 1138.47 377.834C1163.48 338.749 1214.71 355.923 1220.35 396.48C1221.99 409.031 1218.38 421.705 1210.36 431.499C1204.85 438.312 1199.95 441.684 1192.54 446.245C1192.5 455.679 1193.02 475.579 1192.27 484.169C1193.62 529.03 1191.77 575.602 1193.01 621.03C1207.99 608.097 1227.54 585.453 1241.26 570.83C1250.57 560.901 1266.32 544.785 1274.02 534.441C1273.87 520.906 1274.04 507.37 1274.52 493.842C1269.92 488.875 1265.53 483.288 1262.7 477.122C1257.52 466.153 1257 453.561 1261.24 442.199C1265.71 430.25 1274.99 420.001 1286.71 414.85C1297.32 410.259 1309.36 410.303 1319.94 414.97C1343.5 425.11 1356.59 454.922 1345.3 478.645C1337.63 494.758 1324.9 500.757 1309.24 506.49C1308.62 519.964 1308.9 535.578 1308.65 549.361C1300.57 560.886 1275.94 586.042 1265.06 597.674C1237.76 627.38 1209.94 656.605 1181.62 685.339L1181.97 801.822C1201.75 802.616 1225.99 802.08 1246.11 802.112L1245.89 735.83C1257.46 721.273 1286.06 694.628 1300.38 680.448L1389.83 590.38C1389.17 568.562 1387.32 511.718 1391.59 490.849C1395.32 472.661 1479.31 491.377 1484.21 475.965C1480.86 464.454 1407.8 394.902 1394.72 386.094C1372.32 383.269 1345.86 386.821 1323.21 385.878C1307.35 385.218 1289.06 389.796 1278.21 375.057L1277.66 374.217C1272.48 366.258 1268.44 357.02 1263.66 348.822C1227.49 286.816 1123.35 302.679 1111.73 375.014C1107.31 402.488 1109.94 441.768 1109.96 470.498L1110.07 689.927C1110.06 721.929 1108.64 771.197 1110.53 801.896ZM1180.44 417.871C1188.28 415.674 1192.96 407.653 1191.02 399.747C1189.08 391.841 1181.21 386.902 1173.25 388.587C1167.86 389.727 1163.52 393.711 1161.93 398.981C1160.34 404.251 1161.74 409.97 1165.6 413.902C1169.45 417.835 1175.14 419.356 1180.44 417.871ZM1377.2 803.923C1395.15 789.154 1421.23 757.968 1437.18 739.973C1448.9 726.752 1464.71 709.139 1475.75 695.543C1466.93 683.14 1460.23 672.04 1462.81 655.756C1464.78 643.087 1471.79 631.752 1482.24 624.322C1492 617.472 1503.93 614.324 1515.74 616.579C1528.53 619.084 1539.76 626.629 1546.92 637.514C1553.69 647.833 1555.82 660.52 1552.79 672.485C1549.77 684.238 1542.32 693.522 1531.89 699.634C1526.16 703.051 1519.78 705.252 1513.15 706.1C1473.79 745.815 1433.29 800.37 1393.31 839.575C1382.7 840.243 1373.15 840.049 1362.55 839.896C1362.38 861.782 1361.5 889.669 1362.37 911.217L1472.46 911.366C1486.48 894.102 1505.43 874.702 1515.86 855.522C1509.92 841.142 1504.88 826.081 1511.59 810.705C1528.23 772.592 1584.71 770.894 1599.06 812.059C1603.19 823.793 1604.32 837.166 1598.92 848.802C1588.23 871.842 1570.52 876.08 1547.4 875.844C1529.23 897.757 1507.47 922.962 1490.09 945.351L1362.74 945.86L1362.86 1006.15L1547.33 1006.09C1586.97 938.971 1664.91 1001 1632.08 1048.92C1624.36 1060.14 1612.36 1067.67 1598.9 1069.74C1575.29 1073.4 1558.41 1059.61 1547.26 1040.34C1485.81 1039.87 1424.36 1040.01 1362.91 1040.76L1362.91 1098.87L1446 1098.5C1458.56 1098.43 1475.96 1097.76 1488.25 1098.27C1508.15 1117.93 1529.38 1146.61 1548.36 1168.22C1557.63 1168.94 1562.29 1169.43 1571.16 1173.03C1600.7 1185.01 1605.86 1228.9 1581.13 1248.45C1571.18 1256.2 1558.52 1259.6 1546.02 1257.87C1522.36 1254.44 1504.08 1229.3 1508.99 1205.76C1510.64 1197.83 1513.69 1192.68 1517.68 1185.79C1503.99 1168.37 1488 1150.2 1473.6 1133.19C1437.14 1133.32 1399.1 1132.87 1362.79 1133.64L1362.78 1201.55C1370.76 1201.57 1380.38 1201.35 1388.21 1201.91C1397.1 1208.32 1422.72 1237.43 1431.83 1247.38L1514.86 1338.17C1531.15 1341.52 1544.28 1346.31 1554.05 1361.21C1560.84 1371.69 1563.02 1384.52 1560.05 1396.66C1557.14 1408.91 1549.32 1419.43 1538.42 1425.75C1527.49 1432.15 1514.43 1433.85 1502.24 1430.44C1489.84 1426.96 1479.32 1418.71 1473.01 1407.48C1460.98 1386.01 1469.04 1371.02 1481.54 1353.43C1460.75 1329.84 1437.14 1305.76 1415.79 1282.48C1405.98 1271.78 1380.47 1243.86 1370.24 1236.02L1281.81 1235.91L1281.84 1294.47C1311.83 1325.78 1345.03 1356.21 1375.72 1386.9C1387.78 1398.96 1414.01 1421.4 1423.94 1433.58C1424.31 1462.17 1423.78 1491.94 1424.51 1520.24C1438.25 1519.92 1451.98 1519.47 1465.7 1518.88C1473.85 1518.98 1485.14 1518.2 1491.33 1524.61C1494.77 1528.18 1496.34 1533.96 1495.96 1538.82C1495.61 1543.25 1493.7 1547.3 1490.27 1550.16C1487.92 1552.12 1485.36 1553.34 1482.34 1553.88C1470.95 1555.91 1417.47 1555.42 1405.17 1553.99C1400.68 1553.46 1396.48 1551.98 1393.5 1548.38C1385.47 1538.69 1388.9 1464.7 1388.49 1447.37C1358.38 1416.53 1325.08 1386.77 1294.15 1356.69C1282.68 1345.53 1256.34 1321.46 1247.93 1309.07C1247.62 1284.96 1248.05 1259.65 1247.43 1235.82C1225.98 1235.9 1203.5 1235.64 1182.13 1236.07L1181.84 1360.54C1206.57 1385.89 1231.53 1411.02 1256.71 1435.92C1271.13 1450.2 1297.56 1474.97 1308.74 1490.61C1309.34 1511.29 1309.13 1531.8 1309.52 1552.41C1338.73 1561.86 1359.43 1583.58 1347.51 1616.21C1343.1 1628.23 1333.89 1637.87 1322.08 1642.83C1310.48 1647.77 1297.37 1647.77 1285.77 1642.83C1273.87 1637.8 1264.48 1628.2 1259.72 1616.18C1251.5 1595.59 1259.22 1576.2 1275.08 1562.08C1275.03 1542.84 1275.3 1522.45 1274.54 1503.32C1260.65 1486.74 1242.37 1469.55 1227.02 1454.07C1218.42 1445.41 1201.38 1427.87 1192.1 1420.92L1191.54 1593.35C1205.7 1603.75 1217.75 1614.02 1221.19 1632.71C1223.4 1644.73 1219.34 1658.75 1211.94 1668.44C1204.62 1678.06 1193.76 1684.35 1181.78 1685.92C1139.35 1691.24 1114.93 1639.82 1141.45 1608.46C1146.64 1602.33 1151.95 1598.28 1158.72 1593.98C1158.24 1547.94 1158.05 1501.89 1158.14 1455.85C1158.17 1437.05 1157.35 1403.44 1159.22 1385.37C1156.97 1382.96 1149.11 1375.11 1148.91 1372.37C1145.54 1327.6 1149.93 1280.26 1146.65 1235.53L1109.93 1235.61L1109.79 1532.33L1109.61 1615.57C1109.57 1633.48 1108.58 1652.05 1111.18 1669.75C1121.84 1741.44 1203.59 1764.11 1255.03 1716.93C1268.7 1704.38 1277.87 1670.28 1291.47 1669.11C1325.37 1666.21 1380.75 1669.15 1413.85 1668.76C1443.49 1637.46 1488.94 1607.17 1511.27 1571.05C1514.91 1565.17 1513.94 1554.99 1514.19 1548.52C1515.08 1526.46 1505.94 1497.92 1522.58 1480.87C1543.64 1459.29 1596.55 1429.86 1610.81 1406.1L1610.89 1343.45C1610.88 1332.52 1610.44 1315.82 1611.53 1305.23C1631.17 1283.63 1665.74 1255.01 1681.36 1231.41C1684.47 1226.72 1684.85 1189.68 1684.51 1181.71C1683.05 1147.48 1664.19 1112.96 1652.79 1080.51C1659.58 1071.06 1665.08 1064.12 1672.52 1055.22C1675.13 1038.1 1674.65 994.515 1672.23 976.967C1665.4 968.351 1659.22 961.226 1651.46 951.566C1639.37 936.524 1609.82 910.986 1608.02 891.505C1607.48 885.61 1620.14 874.7 1623.98 867.611C1623.93 847.598 1625 814.249 1620.87 795.551C1616.3 774.855 1581.01 754.637 1575.3 733.45C1572.95 724.752 1573.84 715.843 1573.57 707.172C1572.27 666.609 1583.28 638.443 1550.42 607.561C1541.13 598.83 1536.89 595.769 1526.73 588.235C1514.67 579.304 1481.82 564.329 1482.38 548.875C1482.74 538.63 1486.39 532.266 1486.12 518.63C1465.73 518.269 1445.33 518.164 1424.94 518.313C1423.7 525.699 1424.12 542.087 1424.15 550.112L1424.36 605.987C1393.25 639.856 1355.27 673.777 1322.86 706.871C1309.99 720.011 1291.43 736.027 1280.01 749.633C1279.98 766.831 1279.64 785.021 1279.98 802.134C1296.36 802.081 1313.04 801.89 1329.39 802.406C1345.39 802.911 1361.13 804.646 1377.2 803.923ZM1305.58 1057.39C1306.25 1052.27 1306.25 1047.03 1306.14 1041.87C1305.76 1022.66 1306.28 1003.19 1305.68 984.012C1282.31 984.315 1258.94 984.391 1235.57 984.239C1235.25 1005.7 1234.44 1036.86 1235.6 1057.98L1305.58 1057.39ZM1235.34 862.59L1235.53 935.021L1291.5 935.03L1306.03 934.935L1305.63 862.38L1251.62 862.496L1235.34 862.59ZM1181.53 862.465L1110.2 862.384C1108.89 881.867 1109.95 914.049 1110.03 934.467C1131.99 935.082 1159.9 935.433 1181.81 934.818L1181.53 862.465ZM1181.37 1057.71C1182.17 1034.5 1181.63 1007.78 1181.27 984.374C1157.63 984.128 1133.98 984.069 1110.34 984.196C1109.67 1004.97 1109.63 1036.83 1110.26 1057.93C1133.05 1057.88 1158.83 1058.42 1181.37 1057.71ZM1589.37 1008.7C1584.06 1009.26 1579.49 1012.68 1577.44 1017.61C1575.39 1022.53 1576.2 1028.18 1579.54 1032.34C1582.89 1036.5 1588.23 1038.5 1593.48 1037.56C1601.22 1036.18 1606.46 1028.92 1605.35 1021.14C1604.24 1013.37 1597.18 1007.86 1589.37 1008.7ZM1309.38 1612.76C1317.09 1609.49 1320.69 1600.6 1317.44 1592.89C1314.19 1585.18 1305.31 1581.56 1297.59 1584.8C1289.85 1588.04 1286.21 1596.95 1289.47 1604.69C1292.73 1612.42 1301.66 1616.04 1309.38 1612.76ZM1235.48 1103.15C1234.95 1125.82 1234.77 1154.45 1235.22 1177.27L1305.98 1177.09L1305.4 1103.27L1235.48 1103.15ZM1300.62 445.073C1292.85 447.013 1288.11 454.867 1290 462.65C1291.9 470.432 1299.73 475.222 1307.52 473.369C1315.38 471.501 1320.21 463.599 1318.3 455.754C1316.39 447.909 1308.46 443.117 1300.62 445.073ZM1508.91 1372.95C1501.27 1375.34 1496.99 1383.44 1499.31 1391.09C1501.64 1398.75 1509.7 1403.1 1517.37 1400.83C1525.13 1398.55 1529.54 1390.37 1527.19 1382.63C1524.84 1374.88 1516.63 1370.54 1508.91 1372.95ZM1559.2 843.525C1566.89 840.809 1571.04 832.503 1568.61 824.726C1566.18 816.949 1558.03 812.49 1550.17 814.634C1544.82 816.093 1540.7 820.357 1539.42 825.751C1538.14 831.145 1539.91 836.807 1544.04 840.511C1548.16 844.216 1553.98 845.372 1559.2 843.525ZM1176.15 1624.17C1154.56 1630.83 1154.81 1651.71 1175.5 1654.66C1196.91 1650.3 1196.08 1627.73 1176.15 1624.17ZM1505.92 647.179C1497.82 648.36 1492.16 655.809 1493.19 663.926C1494.22 672.043 1501.57 677.839 1509.7 676.957C1515.1 676.372 1519.76 672.918 1521.89 667.925C1524.02 662.931 1523.29 657.177 1519.98 652.875C1516.66 648.574 1511.29 646.395 1505.92 647.179ZM1548.16 1200.59C1540.33 1203.24 1536.11 1211.72 1538.73 1219.57C1541.35 1227.41 1549.81 1231.66 1557.67 1229.08C1565.57 1226.48 1569.85 1217.95 1567.22 1210.06C1564.58 1202.18 1556.04 1197.93 1548.16 1200.59ZM1181.62 1102.92L1109.95 1103.09C1109.79 1127.53 1109.81 1151.98 1110.02 1176.42C1130.68 1177.02 1161.09 1177.33 1181.6 1176.51C1182.72 1154.87 1181.78 1124.98 1181.62 1102.92Z"/><path fill="#7B50ED" d="M1042.13 625.529C1040.4 578.844 1042.72 526.009 1041.73 478.647C1041.21 453.717 1040.31 389.927 1043.41 367.56C1045.72 350.843 1051.2 334.722 1059.55 320.06C1079.3 284.637 1112.4 258.596 1151.48 247.75C1191.32 236.933 1233.83 242.281 1269.75 262.631C1288.05 273.238 1303.16 287.252 1315.94 303.982C1318.63 307.498 1323.09 312.261 1324.19 316.351C1322.86 319.854 1322.83 318.169 1324.21 321.58L1329.38 324.988C1327.56 330.8 1294.44 379.122 1291.19 380.365C1283.91 378.704 1283.34 372.598 1278.21 375.057L1277.66 374.217C1272.48 366.258 1268.44 357.02 1263.66 348.822C1227.49 286.816 1123.35 302.679 1111.73 375.014C1107.31 402.488 1109.94 441.768 1109.96 470.498L1106.47 472.099C1105.51 475.238 1105.92 500.012 1105.91 505.865L1105.96 608.096C1105.98 622.748 1106.27 637.633 1105.84 652.277C1105.75 655.443 1102.59 659.068 1100.67 661.525C1101.2 663.948 1101 663.36 1101.95 665.491L1101.71 665.778L1099.04 664.239C1097.76 665.576 1097.43 666.568 1096.83 668.288C1094.73 674.345 1089.9 678.898 1085.74 683.582C1085.39 683.976 1086.75 686.875 1087.01 687.456L1085.98 687.521L1084.45 685.749C1082.87 687.719 1083.11 688.005 1082.72 690.586L1079.99 691.946L1079.54 693.517L1081 695.994L1080.17 696.765L1078.46 695.108C1076.52 696.26 1077.12 695.431 1076.57 697.532L1078.01 699.995L1077.22 700.748L1075.41 698.748C1073.84 700.712 1074.08 701.006 1073.71 703.584L1071 704.953L1070.54 706.524L1072.02 709.008L1071.24 709.764L1069.46 707.77C1067.89 709.745 1068.15 710.076 1067.84 712.673L1065.07 713.94C1064.54 716.554 1064.68 715.664 1065.07 718.44L1063.34 717.286C1060.83 721.12 1058.59 724.138 1055.81 727.782C1056.52 730.332 1056.09 729.11 1057.1 731.454L1056.07 731.525L1054.52 729.747C1052.91 731.704 1053.15 731.992 1052.74 734.577C1049.57 736.169 1050.33 734.996 1049.45 737.579L1051.03 739.963L1050.16 740.786L1048.03 739.558L1049.65 739.958L1048.63 738.957C1047.11 741.09 1047.21 741.027 1046.45 743.558C1045.27 735.493 1046.01 703.456 1046.09 693.75C1046.3 668.55 1046.24 642.878 1046.01 617.609C1045.84 600.047 1046.97 579.625 1045.23 562.397C1042.56 574.468 1047.37 618.295 1042.13 625.529Z"/><path fill="#7B50ED" d="M1159.41 446.877C1146.19 438.626 1136.08 430.842 1132.2 414.425C1129.28 401.881 1131.54 388.691 1138.47 377.834C1163.48 338.749 1214.71 355.923 1220.35 396.48C1221.99 409.031 1218.38 421.705 1210.36 431.499C1204.85 438.312 1199.95 441.684 1192.54 446.245C1192.5 455.679 1193.02 475.579 1192.27 484.169L1189.07 485.819C1185.37 492.538 1189.72 526.45 1187.46 538.212C1183.15 541.696 1177.54 548.309 1174.73 553.085L1176.08 555.648L1175.66 556.893L1173.83 555.013L1172.67 555.49L1171.93 559.436C1169.4 560.375 1170.16 559.825 1168.45 561.999L1169.85 564.561L1169.47 565.833L1167.73 563.948L1166.62 564.41C1166.42 567.021 1166.62 566.188 1165.7 568.679C1163.47 569.05 1163.29 570.124 1162.44 572.223C1161.2 566.19 1161.83 552.025 1161.91 545.375L1162.46 490.085C1162.54 479.081 1163.65 456.125 1159.41 446.877ZM1180.44 417.871C1188.28 415.674 1192.96 407.653 1191.02 399.747C1189.08 391.841 1181.21 386.902 1173.25 388.587C1167.86 389.727 1163.52 393.711 1161.93 398.981C1160.34 404.251 1161.74 409.97 1165.6 413.902C1169.45 417.835 1175.14 419.356 1180.44 417.871Z"/><path fill="#CF34F0" d="M1683.74 800.845C1685.46 805.817 1684.71 842.62 1684.52 850.936L1683.51 851.85L1680.53 851.194C1681.29 850.075 1682.21 848.704 1683.3 847.079C1682.53 836.208 1681.59 824.276 1681.4 813.477C1681.36 811.008 1683.19 803.199 1683.74 800.845Z"/><path fill="#19C7FF" d="M849.862 242.467C865.008 241.614 880.2 242.848 895.01 246.135C959.929 260.841 1009.84 320.732 1015.23 387.529C1017.05 410.103 1015.75 435.64 1015.7 458.557L1015.45 585.819L1015.35 979.636L1015.38 1445.3L1015.44 1570.81C1015.44 1605.3 1017.38 1652.98 1009.56 1685.39C999.388 1728.12 972.667 1765.06 935.27 1788.1C898.824 1809.94 855.147 1816.26 814.004 1805.65C771.249 1794.76 741.532 1768.56 719.496 1731.36C647.357 1738.24 591.032 1724.2 533.831 1678.53C485.992 1639.42 465.064 1588.27 461.625 1527.84C423.92 1514.13 396.497 1497.6 371.845 1464.99C337.11 1419.02 330.278 1366.17 346.341 1311.64C337.052 1304.17 327.812 1297.45 319.105 1289.25C292.96 1264.75 275.262 1232.59 268.557 1197.39C261.516 1159.84 269.201 1116.5 290.93 1084.98C263.077 1018.36 285.06 935.327 345.269 894.273C313.244 815.022 337.491 721.221 412.394 676.123C409.656 584.49 443.025 524.504 519.821 476.452C523.64 440.081 543.469 400.695 569.627 375.36C614.065 332.322 661.532 321.96 720.882 321.987C752.452 271.767 791.455 249.08 849.862 242.467ZM790.046 342.098C836.344 367.031 867.756 394.988 883.847 446.981C888.897 463.299 895.027 490.379 886.361 506.203C882.283 513.684 875.248 519.106 866.975 521.143C858.6 523.3 849.706 521.892 842.408 517.252C832.705 511.105 828.594 501.506 827.37 490.438C816.464 391.838 683.379 353.839 617.352 424.754C612.246 430.238 607.179 435.155 602.858 441.781C601.808 443.406 600.814 445.066 599.878 446.76C653.515 442.747 701.248 445.217 743.715 483.386C757.696 495.951 777.461 515.287 780.322 534.724C781.529 565.306 746.05 583.305 724.418 558.972C697.59 528.795 673.705 508.446 631.514 508.908C554.596 509.752 482.168 574.253 478.058 651.563C511.46 651.535 530.592 649.018 562.733 662.708C573.154 656.816 588.828 646.138 595.129 634.828C607.721 612.226 608.873 565.335 648.744 576.425C680.485 585.253 671.995 625.818 661.921 647.698C652.512 670.474 641.364 683.485 624.606 699.243C649.501 731.573 670.513 765.427 678.136 806.484C679.6 814.368 682.101 822.769 680.88 830.84C678.041 847.106 657.93 857.474 642.537 853.7C618.584 847.827 616.789 817.429 610.019 798.249C597.652 763.215 568.624 731.529 532.473 720.977C506.509 713.234 478.529 716.185 454.751 729.173C428.841 743.78 409.666 767.937 401.321 796.487C394.67 819.628 395.364 844.268 405.704 866.223C430.919 864.939 460.067 856.959 478.16 837.627C492.991 821.781 490.336 791.322 518.535 788.605C526.219 787.864 536.953 790.415 542.802 795.519C549.813 801.679 553.907 810.505 554.083 819.836C554.484 844.509 535.493 872.805 518.601 889.336C499.24 908.284 472.344 921.229 445.694 925.631C434.35 927.506 422.69 928.247 411.62 931.442C368.423 945.652 344.799 981.585 345.114 1026.49C345.153 1032.02 345.004 1036.84 345.564 1042.41C373.322 1063.34 363.343 1066.06 379.972 1091.91C384.672 1078.85 386.72 1072.1 389.329 1058.47C392.983 1039.39 387.981 1012.17 408.541 1002.55C417.024 998.577 426.791 998.178 435.421 1001.48C443.624 1004.61 450.21 1010.92 453.676 1018.99C455.596 1023.44 456.482 1029.26 456.981 1034.11C460.838 1071.63 445.909 1105.08 429.409 1137.54C441.394 1140.82 460.205 1145.99 464.977 1159.3C479.512 1199.82 439.984 1211.18 407.511 1198.07C368.101 1182.17 359.403 1167.63 333.384 1137.77C325.426 1195.47 345.896 1234.24 395.66 1264.37C403.153 1268.91 411.36 1271.04 419.337 1274.49C455.936 1290.96 449.097 1332.94 408.798 1338.28C392.339 1393.18 427.224 1448.54 481.018 1464.09C507.494 1471.93 536.009 1468.85 560.196 1455.53C579.48 1444.66 594.667 1425.09 600.566 1403.79C605.026 1387.69 604.439 1371.03 621.006 1361.8C637.711 1352.49 655.797 1356.66 665.087 1373.96C673.456 1389.54 668.742 1408.23 663.73 1424.15C650.093 1463.08 633.59 1480.39 603.222 1505.84C608.169 1511.64 619.931 1525.35 627.232 1529.89C652.76 1545.77 689.31 1562.62 658.909 1597.34C646.603 1611.39 618.944 1601.04 603.374 1593.28C578.633 1580.13 554.813 1559.14 542.084 1533.89C537.92 1533.43 533.404 1532.39 529.679 1533.95C526.205 1539.85 530.059 1550.61 531.502 1557.2C558.005 1678.21 748.134 1710.39 810.441 1602.27C815.606 1593.44 819.617 1583.98 822.375 1574.13C827.603 1554.8 831.323 1506.96 873.584 1525.64C894.289 1534.8 892.71 1568.09 886.944 1584.91C874.684 1648.07 841.911 1680.86 785.486 1709.69C800.788 1727.94 822.711 1739.36 846.434 1741.45C899.373 1746.3 947.706 1696.54 949.844 1645.6C950.49 1630.21 950.524 1615.25 950.484 1599.87L950.286 1528.85L950.277 1455.76C950.272 1443.2 950.698 1425.64 949.696 1413.37C919.859 1444.16 892.901 1458.9 849.354 1462.8C820.657 1465.38 792.854 1477.49 779.316 1504.88C769.925 1523.89 772.634 1558.4 742.104 1559.12C719.647 1559.25 704.525 1543.51 707.4 1520.86C713.603 1461.53 748.535 1428.35 800.338 1404.48C791.95 1374.66 781.56 1352.26 754.268 1335.67C735.294 1324.13 708.422 1325.84 692.539 1314.41C675.091 1301.85 683.996 1261.66 709.697 1260.18C744.719 1258.16 778.034 1269.54 805.778 1290.76C840.296 1318.09 857.527 1353.58 864.6 1395.57C902.944 1375.51 931.245 1356.05 944.985 1311.7C947.99 1301.86 949.791 1291.71 950.349 1281.44C951.366 1264.97 950.633 1242.73 950.593 1225.82L950.419 1127.87L950.385 1048.5C950.361 1016.51 952.88 986.872 936.83 957.783C913.683 915.831 866.901 896.987 823.65 921.674C813.258 927.638 804.272 935.769 797.304 945.516C786.061 961.01 776.394 995.108 746.265 987.027C736.971 984.499 729.09 978.33 724.405 969.915C712.46 948.305 735.212 917.628 748.142 901.381C764.396 880.956 783.531 867.685 806.66 856.055C810.897 853.945 815.218 852.008 819.612 850.249C811.43 820.487 800.821 802.265 774.017 785.825C753.511 773.247 722.155 778.243 713.584 752.666C708.054 736.162 720.264 715.939 737.405 713.069C764.204 708.582 796.32 720.862 819.001 734.643C858.761 760.311 877.037 802.892 891.092 845.865C916.372 853.703 927.965 858.755 950.212 874.532L950.334 810.702C950.394 765.7 950.752 730.248 916.512 696.172C887.831 667.629 859.035 659.732 820.015 660.812C789.284 661.663 778.057 626.012 799.482 605.761C810.039 594.897 841.478 598.2 855.522 598.313C880.446 599.715 906.924 610.527 927.762 623.901C934.441 628.187 943.546 634.616 950.229 638.381L950.29 479.797C950.406 429.96 959.907 374.46 921.134 335.862C903.468 318.275 882.05 311.938 857.502 312.214C855.364 312.232 853.227 312.312 851.093 312.453C825.375 316.335 809.61 324.283 790.046 342.098Z"/><path fill="#19C7FF" d="M862.053 1006.28C895.346 1004.12 908.863 1027.97 895.935 1057.11C885.601 1080.4 867.378 1097.77 848.701 1114.21C863.478 1142.41 896.431 1202.98 876.614 1233.82C871.823 1241.3 864.18 1246.5 855.46 1248.2C846.558 1250.03 836.266 1248.32 828.986 1242.85C816.093 1233.17 817.231 1224.82 815.336 1210.95C810.74 1177.3 795.724 1152.67 768.794 1132.37C746.781 1117.88 715.239 1109.63 689.456 1117.52C673.553 1122.39 661.57 1134.52 642.104 1129.1C632.92 1126.48 625.265 1120.12 621.021 1111.56C607.288 1084.51 629.7 1070.98 650.987 1061.92C705.126 1038.86 743.54 1047.56 795.726 1069.37C806.356 1062.88 815.31 1057.06 823.46 1047.41C839.073 1028.93 836.804 1014.22 862.053 1006.28Z"/><path fill="#19C7FF" d="M632.376 1165.34C662.177 1161.26 678.365 1189.53 663.73 1214.6C656.185 1227.52 643.303 1226.09 630.898 1229.69C585.967 1242.82 553.657 1281.77 544.665 1327.11C538.964 1355.86 547.399 1385.59 511.333 1393.52C483.322 1394.04 470.295 1373.94 472.887 1347.88C481.633 1259.94 540.667 1176.38 632.376 1165.34Z"/><path fill="#19C7FF" d="M634.931 903.144C640.658 902.084 646.564 902.567 652.043 904.543C660.174 907.512 666.725 912.814 669.694 920.935C683.956 959.95 639.153 963.124 618.896 980.133C598.045 997.64 578.445 1024.97 574.888 1051.83C571.452 1077.79 575.755 1093.12 547.129 1104.03C479.893 1107.46 513.808 1008.57 533.133 977.064C555.632 939.634 592.375 912.953 634.931 903.144Z"/></svg>