<svg xmlns="http://www.w3.org/2000/svg" xml:space="preserve" width="1080" height="1080"><title>Layer 1</title><path fill="#fff" d="M1049.05 627.1c.47 8.6-8.14 17.76-19.94 19.98-18.78 3.52-37.46 7.57-56.17 11.44a3488 3488 0 0 0-40.37 8.55c-1.34.29-3.1 1.26-3.6 2.38a1834 1834 0 0 0-16.71 39.13c-.43 1.04.2 2.9.9 4a11340 11340 0 0 0 33.56 51.63c7.6 11.64 15.51 23.08 22.77 34.93 4.47 7.3 4.27 19.63-3.74 27.56-10.03 9.92-20.31 19.58-30.38 29.45-21.61 21.2-43.13 42.49-64.74 63.69a4130 4130 0 0 1-33.95 32.95c-9.68 9.28-20.97 10.53-32.54 2.97-27.73-18.1-55.7-35.84-83.63-53.64-.8-.51-2.32-.47-3.27-.1a2809 2809 0 0 0-39.34 16.03 5.3 5.3 0 0 0-2.82 3.13c-6.44 28.2-12.73 56.44-19.1 84.66-1.2 5.34-2.8 10.6-3.9 15.95-1.91 9.3-12.8 16.18-21.96 16.19-60 .04-119.99.25-179.98-.15-13.95-.1-23.19-6.16-26.26-23.81-3-17.21-7.05-34.23-10.57-51.35-2.83-13.8-5.55-27.63-8.3-41.45-.52-2.64-1.24-4.44-4.44-5.5a683 683 0 0 1-36.7-13.46c-3.91-1.56-6.85-.7-9.89 1.28q-33.47 21.92-66.9 43.88c-4.73 3.1-9.41 6.29-14.26 9.19-8.73 5.2-20.6 5.3-30.2-4.4a18109 18109 0 0 0-88.72-88.76 2524 2524 0 0 0-37.14-36.13c-8.93-8.53-11.14-20.65-3.48-32.34 17.6-26.9 34.41-54.3 51.56-81.48 2.03-3.23 2.15-6.22.5-9.89a565 565 0 0 1-13.62-32.52c-1.93-5.1-6.3-5.07-10.03-5.97-17.3-4.14-34.68-7.93-52.03-11.84L48.48 644c-9.1-2.05-16.46-11.21-16.47-20.53-.02-12 .06-24-.02-36q-.45-72.38-1-144.75c-.1-13.18 7.96-22.23 20.76-24.76 22.69-4.49 45.32-9.27 68-13.87 8.73-1.78 17.52-3.28 26.22-5.19 1.73-.38 3.97-1.74 4.61-3.23a1775 1775 0 0 0 16.74-40.61c.33-.81-.35-2.27-.94-3.17-16.42-24.81-32.9-49.58-49.35-74.37-2.05-3.1-4.14-6.2-5.99-9.42-5.88-10.27-4.04-21.65 5.76-31.42 28.9-28.83 57.8-57.68 86.6-86.62 14.06-14.14 28.1-28.3 41.72-42.86 7.07-7.54 21.12-9.38 30.76-3.14 23.43 15.19 47.51 29.37 71.32 43.98 3.17 1.95 6.56 3.68 9.31 6.12 4.37 3.87 8.5 3.71 13.57 1.42 10.11-4.59 20.48-8.63 30.72-12.95 3.02-1.28 4.64-2.93 5.54-6.87 6.13-26.93 13.01-53.7 19.58-80.52 1.2-4.87 1.8-9.9 3.15-14.71 2.31-8.28 9.92-16.17 19.81-16.4 2.59.4 4.38.84 6.17.84q87.38.07 174.75-.02c2.1 0 4.2-.66 6.3-1.01 8.58.25 17.16 7.13 18.87 15.6 4.45 22.07 8.7 44.17 13.07 66.25 2.26 11.43 4.58 22.85 7.05 34.23.24 1.12 1.52 2.43 2.63 2.87 13.47 5.35 26.87 10.93 40.62 15.45 2.77.92 7.27-1.76 10.35-3.75 21.6-13.95 43.03-28.16 64.5-42.29 5-3.29 9.84-6.82 14.98-9.88 6.92-4.12 19.38-3.46 25.57 2.79 9.25 9.36 18.66 18.56 27.88 27.95 10.23 10.42 20.33 20.97 30.49 31.47l29.42 30.4c10.15 10.5 20.38 20.92 30.43 31.51 5.2 5.48 10.4 11 15.02 16.97 6.2 8.02 5.7 16.98.62 25.12-14.73 23.57-29.96 46.83-44.95 70.24a332 332 0 0 0-9.58 15.73c-.62 1.1-.48 3.03.02 4.3 4.9 12.43 9.87 24.83 15.06 37.14.56 1.32 2.54 2.56 4.06 2.87 22.82 4.77 45.66 9.4 68.51 14 10.32 2.09 20.68 3.95 31 6.06 9.43 1.94 14.86 8.07 17.14 17.93-.39 2.57-.83 4.36-.83 6.15q-.06 88.88.01 177.75c0 2.1.66 4.2 1.01 6.3M168.5 814l94.36 94c2.18-1.02 3.59-1.49 4.8-2.27 23.27-15.2 46.66-30.26 69.73-45.77 8.86-5.96 17.67-9.57 28.31-5.68 21.9 8 43.85 15.87 65.74 23.91 7.47 2.74 12.44 8.07 14.56 15.8.97 3.57 1.65 7.22 2.4 10.84 3.54 17.27 7.04 34.55 10.6 51.81 2.45 11.8 4.97 23.58 7.45 35.36 47.57 0 94.74-.03 141.9.06 3.14 0 4.13-1.18 4.72-4.1 2.65-13 5.54-25.95 8.4-38.9 3.48-15.8 7.12-31.55 10.5-47.36 1.96-9.2 5.64-16.92 14.98-20.7 20.58-8.32 41.24-16.47 61.69-25.1 9.4-3.96 18.28-4.17 26.9 1.33 19.07 12.18 38.02 24.54 57.02 36.83l23.11 14.97 104.54-101.9c-13.95-21.1-27.88-42.1-41.71-63.17-4.7-7.16-9.56-14.26-13.6-21.78-4.35-8.08-1.35-15.94 1.96-23.77a1777 1777 0 0 0 21.17-51.85c4.6-11.9 11.39-20.14 24.9-22.7 28.74-5.43 57.26-12.05 86-17.58 4.62-.9 5.14-2.35 5.13-6.21-.1-45-.06-90-.06-135v-5.14c-2.98-.36-5.6-.5-8.15-1-28.45-5.62-56.87-11.33-85.32-16.92-9.09-1.8-15.91-6.51-19.46-15.14-8.4-20.38-16.4-40.94-24.93-61.27-3.72-8.85-4.03-17.15 1.2-25.35q20.82-32.7 41.68-65.38c3.43-5.39 6.88-10.76 10.19-15.92-13.09-13.51-25.7-26.49-38.26-39.53-5.51-5.72-10.83-11.63-16.37-17.32a5877 5877 0 0 0-46.47-47.3c-.9-.9-3.67-1.17-4.75-.47a5002 5002 0 0 0-71.91 46.86c-10.1 6.74-19.73 8.6-31.43 3.57-19.96-8.56-40.38-16.04-60.74-23.63-8.71-3.26-14.47-8.68-16.29-17.91-1.72-8.74-3.28-17.52-5.04-26.25-4.27-21.12-8.84-42.17-12.72-63.35-.76-4.12-2.11-4.69-5.62-4.68-27.17.1-54.33.06-81.5.06-17.83 0-35.67.18-53.5-.13-4.28-.07-5.88 1.64-6.59 5.27-.74 3.82-1.38 7.65-2.28 11.43-5.55 23.22-11.34 46.39-16.66 69.66-2.5 10.95-6.57 20.25-17.85 24.77-19.72 7.9-39.47 15.74-58.98 24.13-9.26 3.99-17.5 3.11-25.66-2.2-2.45-1.6-4.8-3.35-7.3-4.88-24.47-15.02-48.96-30.01-73.76-45.2L159.99 258.83c.43.94.77 2.04 1.38 2.96 16.66 25.04 33.3 50.1 50.04 75.09 4.87 7.26 6.32 14.96 3.08 23.1q-12.58 31.61-25.55 63.06c-2.45 5.93-4.61 12.52-11.03 15.37-4.8 2.13-10.05 3.48-15.23 4.5-26.25 5.17-52.54 10.09-78.8 15.15-6.9 1.33-6.88 1.43-6.88 8.86v136.83c14.94 3.3 29.46 6.5 43.97 9.72 15.76 3.5 31.52 7.04 47.28 10.53 8.3 1.83 15.18 5.7 18.68 13.84 8.67 20.1 17.11 40.29 25.77 60.39 3.8 8.8 4.94 17.35-.7 25.88-4.44 6.75-8.73 13.6-13.04 20.43-11 17.5-22.09 34.95-32.92 52.55-5.54 9-5.32 9.13 2.46 16.9"/><path fill="#e5fdfd" d="M1049.43 626.88a17 17 0 0 1-1.39-6.08q-.07-88.87-.01-177.75c0-1.8.44-3.58.85-5.77.49.8 1.08 1.99 1.08 3.17q.05 92.36.02 184.72c0 .49-.12.98-.55 1.7"/><path fill="#dbfcfd" d="M635.87 23.56a17 17 0 0 1-6.07 1.4q-87.37.07-174.75.01c-1.79 0-3.58-.45-5.76-.86a6.5 6.5 0 0 1 3.17-1.07q90.85-.05 181.7-.03c.5 0 .99.12 1.71.55"/><path fill="#272727" d="M168.25 813.75c-7.53-7.53-7.75-7.66-2.21-16.66 10.83-17.6 21.92-35.05 32.92-52.55 4.3-6.84 8.6-13.68 13.05-20.43 5.63-8.53 4.48-17.08.7-25.88-8.67-20.1-17.11-40.3-25.78-60.4-3.5-8.12-10.38-12-18.68-13.83l-47.28-10.53c-14.51-3.22-29.03-6.42-43.97-9.72V466.92c0-7.43-.02-7.53 6.88-8.86 26.26-5.06 52.55-9.98 78.8-15.15 5.18-1.02 10.43-2.37 15.23-4.5 6.42-2.85 8.58-9.44 11.03-15.37a5527 5527 0 0 0 25.55-63.06c3.24-8.14 1.79-15.84-3.08-23.1-16.73-25-33.38-50.05-50.04-75.1-.61-.91-.95-2.01-1.38-2.95l105.54-106.98c24.8 15.19 49.29 30.18 73.77 45.2 2.49 1.53 4.84 3.27 7.3 4.87 8.15 5.32 16.39 6.2 25.65 2.21 19.5-8.4 39.26-16.22 58.98-24.13 11.28-4.52 15.35-13.82 17.85-24.77 5.32-23.27 11.11-46.44 16.66-69.66.9-3.78 1.54-7.61 2.28-11.43.71-3.63 2.3-5.34 6.6-5.27 17.82.3 35.66.13 53.49.13 27.17 0 54.33.05 81.5-.06 3.5-.01 4.86.56 5.62 4.68 3.88 21.18 8.45 42.23 12.72 63.35 1.76 8.73 3.32 17.5 5.04 26.25 1.82 9.23 7.58 14.65 16.3 17.9 20.35 7.6 40.77 15.08 60.73 23.64 11.7 5.02 21.33 3.17 31.43-3.57 23.79-15.9 47.85-31.38 71.9-46.86 1.1-.7 3.86-.43 4.76.47a5877 5877 0 0 1 46.47 47.3c5.54 5.7 10.86 11.6 16.37 17.32 12.55 13.04 25.17 26.02 38.26 39.53-3.3 5.16-6.76 10.53-10.2 15.92q-20.86 32.67-41.68 65.38c-5.22 8.2-4.9 16.5-1.2 25.35 8.54 20.33 16.54 40.89 24.94 61.27 3.55 8.63 10.37 13.35 19.46 15.14 28.45 5.6 56.87 11.3 85.32 16.92 2.55.5 5.17.64 8.15 1v5.14c0 45-.03 90 .06 135 0 3.86-.51 5.32-5.13 6.2-28.74 5.54-57.26 12.16-86 17.6-13.51 2.55-20.3 10.8-24.9 22.7a1777 1777 0 0 1-21.17 51.84c-3.31 7.83-6.31 15.69-1.97 23.77 4.05 7.52 8.9 14.62 13.6 21.78 13.84 21.06 27.77 42.06 41.72 63.17l-104.54 101.9-23.11-14.97c-19-12.29-37.95-24.65-57.02-36.83-8.62-5.5-17.5-5.3-26.9-1.33-20.45 8.63-41.1 16.78-61.69 25.1-9.34 3.78-13.02 11.5-14.98 20.7-3.38 15.8-7.02 31.57-10.5 47.36-2.86 12.95-5.75 25.9-8.4 38.9-.6 2.92-1.58 4.1-4.72 4.1-47.16-.09-94.33-.06-141.9-.06-2.48-11.78-5-23.56-7.44-35.36-3.57-17.26-7.07-34.54-10.62-51.8-.74-3.63-1.42-7.28-2.4-10.85-2.11-7.73-7.08-13.06-14.55-15.8-21.89-8.04-43.84-15.91-65.74-23.91-10.64-3.9-19.45-.28-28.31 5.68-23.07 15.51-46.46 30.56-69.74 45.77-1.2.78-2.61 1.25-4.8 2.28zM797 431s.06 0 .01-.7c-.33-.8-.66-1.59-1.08-2.84 0 0-.13-.45-.12-.96a3 3 0 0 1-.88-1.04s-.13-.45-.12-.96a3 3 0 0 1-.88-1.04s-.13-.45-.12-.96a3 3 0 0 1-.88-1.04s-.13-.45-.12-.96a3 3 0 0 1-.88-1.04s-.13-.45-.12-.96a3 3 0 0 1-.88-1.04s-.13-.45-.12-.96a3 3 0 0 1-.88-1.04s-.13-.45-.12-.96a3 3 0 0 1-.88-1.04s-.13-.45-.12-.96a3 3 0 0 1-.88-1.04s-.13-.45-.12-.96a3 3 0 0 1-.88-1.04s-.13-.45-.12-.96a4 4 0 0 1-1.03-1.1 6 6 0 0 1-.97-1.9 3 3 0 0 1-.88-1.04s-.13-.45-.12-.96a3 3 0 0 1-.88-1.04s-.13-.45-.12-.96a4 4 0 0 1-1.03-1.1 6 6 0 0 1-.97-1.9 3 3 0 0 1-.88-1.04s-.13-.45-.12-.96a4 4 0 0 1-1.03-1.1 6 6 0 0 1-.97-1.9 4 4 0 0 1-1.03-1.1 6 6 0 0 1-.97-1.9 4 4 0 0 1-1.03-1.1 6 6 0 0 1-.97-1.9 4 4 0 0 1-1.03-1.1 6 6 0 0 1-.97-1.9c-.27-.2-.53-.4-1.06-1.14-.65-.78-1.3-1.57-1.94-2.86a4 4 0 0 1-1.03-1.1 6 6 0 0 1-.97-1.9c-.27-.2-.53-.4-1.06-1.14-.65-.78-1.3-1.57-1.94-2.86a4 4 0 0 1-1.08-1.16 25 25 0 0 1-2.92-3.84c-.27-.2-.53-.4-1.09-1.16a40 40 0 0 1-3.91-4.84c-.27-.2-.53-.4-1.1-1.17-2.3-2.44-4.6-4.88-6.9-7.83-.27-.2-.53-.4-1.1-1.17a500 500 0 0 1-11.82-11.8c-.3-.12-.6-.22-1.5-.64-2.43-2.3-4.87-4.6-7.5-7.37-.3-.1-.6-.21-1.48-.62a68 68 0 0 1-4.52-4.38c-.3-.1-.6-.21-1.47-.6a41 41 0 0 1-3.53-3.4 13 13 0 0 1-1.45-.6 20 20 0 0 1-2.55-2.4 13 13 0 0 1-1.45-.6 20 20 0 0 1-2.55-2.4c-.3-.1-.6-.21-1.41-.56a7 7 0 0 1-1.6-1.44c-.3-.1-.59-.21-1.4-.56a7 7 0 0 1-1.6-1.44c-.3-.1-.59-.21-1.4-.56a7 7 0 0 1-1.6-1.44c-.3-.1-.59-.21-1.4-.56a7 7 0 0 1-1.6-1.44c-.3-.1-.59-.21-1.4-.56a7 7 0 0 1-1.6-1.44l-1.33-.45s-.46-.08-.66-.55c-.3-.1-.6-.21-1.41-.56a7 7 0 0 1-1.6-1.44l-1.33-.45s-.46-.08-.66-.55c-.3-.1-.6-.21-1.41-.56a7 7 0 0 1-1.6-1.44l-1.33-.45s-.46-.08-.66-.55l-1.34-.45s-.46-.08-.66-.55l-1.34-.45s-.46-.08-.66-.55l-1.34-.45s-.46-.08-.66-.55c-.3-.1-.6-.21-1.41-.56a7 7 0 0 1-1.6-1.44l-1.33-.45s-.46-.08-.66-.55l-1.35-.45s-.46-.09-.83-.67q-1.35-.24-2.71-.4s.05-.02-.13-.48c-.2-.33-.5-.44-1.32-.45 0 0-.46-.08-.66-.55l-1.34-.45s-.46-.08-.66-.55l-1.34-.45s-.46-.08-.66-.55l-1.35-.45s-.46-.09-.83-.67q-1.35-.24-2.71-.4s.05-.02-.13-.48c-.2-.33-.5-.44-1.32-.45 0 0-.46-.08-.66-.55l-1.35-.45s-.46-.09-.83-.67q-1.35-.24-2.71-.4s.05-.02-.13-.48c-.2-.33-.5-.44-1.33-.45 0 0-.46-.09-.83-.67q-1.35-.24-2.71-.4s.05-.03-.31-.61q-1.34-.24-2.7-.4s.06-.02-.3-.6q-1.34-.24-2.7-.4s.06-.02-.3-.6q-1.34-.24-2.7-.4s.06-.02-.3-.6q-1.34-.24-2.7-.4s.06-.02-.3-.6q-1.34-.24-2.7-.4s.06-.02-.3-.6q-1.34-.24-2.7-.4s.06-.02-.3-.6q-1.34-.24-2.7-.4s.06-.02-.35-.63A77 77 0 0 0 615 275s.05-.03-.36-.64q-1.81-.22-3.64-.36s.05-.03-.36-.64q-1.81-.22-3.64-.36s.05-.03-.36-.64q-1.81-.22-3.64-.36s.05-.03-.4-.66q-2.3-.21-4.6-.34s.05-.03-.4-.66q-2.3-.21-4.6-.34s.05-.03-.4-.66q-2.3-.21-4.6-.34s.05-.03-.43-.68q-3.3-.2-6.57-.32s.05-.03-.45-.68A331 331 0 0 0 573 267s.05-.03-.46-.7c-3.18-.11-6.36-.24-9.54-.3 0 0 .05-.03-.48-.7-17.21.24-34.42.4-51.63.8-3 .08-5.96 1.22-8.89 1.9 0 0 0-.06-.88-.02q-5.6 1-11.12 2.02s0-.06-.85-.02q-4.61 1-9.15 2.02s0-.06-.84-.02q-5.62 1.5-11.16 3.02s0-.06-.75-.01q-1.66.48-3.25 1s0-.05-.7 0q-1.18.48-2.3 1s0-.05-.75 0q-1.66.48-3.25 1s0-.05-.7 0q-1.18.48-2.3 1s0-.05-.7 0q-1.18.48-2.3 1s0-.05-.7 0c-.8.33-1.59.66-2.84 1.08 0 0-.45.13-.95.12q-.3.4-.5.8s-.02-.05-.7 0q-1.2.48-2.3 1s-.02-.05-.71 0c-.8.33-1.59.66-2.84 1.08 0 0-.45.13-.95.12q-.3.4-.5.8s-.02-.05-.71 0c-.8.33-1.59.66-2.84 1.08 0 0-.45.13-.95.12a5 5 0 0 0-.5.8s-.02-.05-.71 0c-.8.33-1.59.66-2.84 1.08 0 0-.45.13-.96.12-.2.27-.4.53-1.04.88 0 0-.45.13-.96.12-.2.27-.4.53-1.04.88 0 0-.45.13-.95.12q-.3.4-.5.8s-.02-.05-.71 0c-.8.33-1.59.66-2.84 1.08 0 0-.45.13-.96.12-.2.27-.4.53-1.04.88 0 0-.45.13-.96.12-.2.27-.4.53-1.04.88 0 0-.45.13-.96.12-.2.27-.4.53-1.04.88 0 0-.45.13-.96.12-.2.27-.4.53-1.04.88 0 0-.45.13-.96.12-.2.27-.4.53-1.04.88 0 0-.45.13-.96.12-.2.27-.4.53-1.1 1.03-.47.33-.93.65-1.9.97-.2.27-.4.53-1.04.88 0 0-.45.13-.96.12-.2.27-.4.53-1.04.88 0 0-.45.13-.96.12-.2.27-.4.53-1.04.88 0 0-.45.13-.96.12-.2.27-.4.53-1.1 1.03-.47.33-.93.65-1.9.97-.2.27-.4.53-1.04.88 0 0-.45.13-.96.12-.2.27-.4.53-1.1 1.03-.47.33-.93.65-1.9.97-.2.27-.4.53-1.1 1.03-.47.33-.93.65-1.9.97-.2.27-.4.53-1.04.88 0 0-.45.13-.96.12-.2.27-.4.53-1.1 1.03-.47.33-.93.65-1.9.97-.2.27-.4.53-1.1 1.03-.47.33-.93.65-1.9.97-.2.27-.4.53-1.14 1.06-.78.65-1.57 1.3-2.86 1.94-.2.27-.4.53-1.1 1.03-.47.33-.93.65-1.9.97-.2.27-.4.53-1.14 1.06-.78.65-1.57 1.3-2.86 1.94-.2.27-.4.53-1.16 1.08a25 25 0 0 1-3.84 2.92c-.2.27-.4.53-1.16 1.08a25 25 0 0 1-3.84 2.92c-.2.27-.4.53-1.17 1.1a81 81 0 0 1-6.83 5.9c-.2.27-.4.53-1.17 1.1a1139 1139 0 0 1-17.8 17.82c-.12.3-.22.6-.64 1.5-1.97 2.1-3.94 4.2-6.37 6.5-.1.3-.21.6-.6 1.47a41 41 0 0 1-3.4 3.53c-.1.3-.21.6-.6 1.47a41 41 0 0 1-3.4 3.53c-.1.3-.21.6-.6 1.45a20 20 0 0 1-2.4 2.55c-.1.3-.21.6-.56 1.41a7 7 0 0 1-1.44 1.6c-.1.3-.21.59-.6 1.44-.64.78-1.29 1.57-2.4 2.55-.1.3-.22.6-.56 1.41-.32.47-.65.93-1.44 1.6-.1.3-.21.59-.56 1.4a7 7 0 0 1-1.44 1.6l-.45 1.33s-.08.46-.55.66c-.1.3-.21.6-.56 1.41-.32.47-.65.93-1.44 1.6-.1.3-.21.59-.56 1.4-.32.47-.65.93-1.44 1.6l-.45 1.33s-.08.46-.55.66c-.1.3-.21.6-.56 1.41-.32.47-.65.93-1.44 1.6l-.45 1.33s-.08.46-.55.66l-.45 1.34s-.08.46-.55.66l-.45 1.34s-.08.46-.55.66l-.45 1.34s-.08.46-.55.66c-.1.3-.21.6-.56 1.41-.32.47-.65.93-1.44 1.6l-.45 1.33s-.08.46-.55.66l-.45 1.34s-.08.46-.55.66l-.45 1.34s-.08.46-.55.66l-.45 1.35s-.09.46-.67.83q-.24 1.35-.4 2.71s-.02-.05-.48.13c-.33.2-.44.5-.45 1.32 0 0-.08.46-.55.66l-.45 1.34s-.08.46-.55.66l-.45 1.35s-.09.46-.67.83q-.24 1.35-.4 2.71s-.02-.05-.48.13c-.33.2-.44.5-.45 1.32 0 0-.08.46-.55.66l-.45 1.35s-.09.46-.67.83q-.24 1.35-.4 2.71s-.03-.05-.64.35q-1.22 3.82-2.36 7.65s-.03-.05-.61.31q-.24 1.34-.4 2.7s-.02-.06-.6.3q-.24 1.34-.4 2.7s-.02-.06-.6.3q-.24 1.34-.4 2.7s-.02-.06-.6.3q-.24 1.34-.4 2.7s-.02-.06-.63.35q-.22 1.81-.36 3.64s-.03-.05-.61.31q-.24 1.34-.4 2.7s-.02-.06-.63.35q-.22 1.81-.36 3.64s-.03-.05-.64.36A77 77 0 0 0 270 477s-.03-.05-.64.36A77 77 0 0 0 269 481s-.03-.05-.66.4q-.21 2.3-.34 4.6s-.03-.05-.66.4q-.21 2.3-.34 4.6s-.03-.05-.66.4q-.21 2.3-.34 4.6s-.03-.05-.68.43A250 250 0 0 0 265 503s-.03-.05-.68.45q-.2 3.77-.32 7.55s-.03-.05-.7.46c-.11 3.18-.24 6.36-.3 9.54 0 0-.03-.05-.7.48-.08 12.98-.18 25.95-.2 38.93-.01.54.56 1.1.9 1.59 0 0-.06 0-.02.9q.49 5.1 1.02 10.1s-.06 0-.02.84q.49 3.12 1.02 6.16s-.06 0-.02.84q.49 3.12 1.02 6.16s-.06 0-.02.78q.49 2.15 1.02 4.22s-.06 0-.02.81q.49 2.64 1.02 5.19s-.06 0-.01.75q.48 1.66 1 3.25s-.05 0 0 .75q.48 1.66 1 3.25s-.05 0 0 .75q.48 1.66 1 3.25s-.05 0 0 .75q.48 1.66 1 3.25s-.05 0 0 .79a346 346 0 0 0 2 6.2s-.05.02 0 .7q.49 1.2 1 2.3s-.05.02 0 .7q.48 1.2 1 2.3s-.05.02 0 .7q.48 1.2 1 2.3s-.05.02 0 .7q.48 1.2 1 2.3s-.05.02 0 .7q.48 1.2 1 2.3s-.05.02 0 .71c.33.8.66 1.59 1.08 2.84 0 0 .13.45.12.95q.4.3.8.5s-.05.02 0 .71c.33.8.66 1.59 1.08 2.84 0 0 .13.45.12.95q.4.3.8.5s-.05.02 0 .71c.33.8.66 1.59 1.08 2.84 0 0 .13.45.12.96.27.2.53.4.88 1.04 0 0 .13.45.12.95q.4.3.8.5s-.05.02 0 .74c.66 1.45 1.33 2.9 2.08 4.81 0 0 .13.45.12.96.27.2.53.4.88 1.04 0 0 .13.45.12.96.27.2.53.4.88 1.04 0 0 .13.45.12.96.27.2.53.4.88 1.04 0 0 .13.45.12.96.27.2.53.4.88 1.03 0 0 .13.42.17 1.05.58.84 1.16 1.67 1.83 2.96 0 0 .13.45.12.96.27.2.53.4.88 1.04 0 0 .13.45.12.96.27.2.53.4 1.03 1.1.33.47.65.93.97 1.9.27.2.53.4.88 1.04 0 0 .13.45.12.96.27.2.53.4.88 1.04 0 0 .13.45.12.96.27.2.53.4 1.03 1.1.33.47.65.93.97 1.9.27.2.53.4.88 1.04 0 0 .13.45.12.96.27.2.53.4 1.03 1.1.33.47.65.93.97 1.9.27.2.53.4 1.03 1.1.33.47.65.93.97 1.9.27.2.53.4 1.03 1.1.33.47.65.93.97 1.9.27.2.53.4 1.03 1.1.33.47.65.93.97 1.9.27.2.53.4 1.03 1.1.33.47.65.93.97 1.9.27.2.53.4 1.06 1.14.65.78 1.3 1.57 1.94 2.86.27.2.53.4 1.03 1.1.33.47.65.93.97 1.9.27.2.53.4 1.08 1.16a25 25 0 0 1 2.92 3.84c.27.2.53.4 1.08 1.16a25 25 0 0 1 2.92 3.84c.27.2.53.4 1.1 1.17 1.63 1.77 3.27 3.55 4.9 5.83.27.2.53.4 1.1 1.17 7.2 7.12 14.41 14.23 21.82 21.8.3.12.6.22 1.5.64a104 104 0 0 1 5.5 5.37c.3.1.6.21 1.47.6a41 41 0 0 1 3.53 3.4c.3.1.6.21 1.47.6a41 41 0 0 1 3.53 3.4c.3.1.6.21 1.45.6.78.64 1.57 1.29 2.55 2.4.3.1.6.21 1.41.56.47.32.93.65 1.6 1.44.3.1.59.21 1.44.6.78.64 1.57 1.29 2.55 2.4.3.1.6.21 1.41.56.47.32.93.65 1.6 1.44l1.33.45s.46.08.66.55c.3.1.6.21 1.41.56.47.32.93.65 1.6 1.44.3.1.59.21 1.4.56.47.32.93.65 1.6 1.44l1.33.45s.46.08.66.55c.3.1.6.21 1.41.56.47.32.93.65 1.6 1.44l1.33.45s.46.08.66.55c.3.1.6.21 1.41.56.47.32.93.65 1.6 1.44.3.1.59.22 1.33.45 0 0 .46.08.66.55.3.1.6.22 1.34.45 0 0 .46.08.66.55l1.34.45s.46.08.66.55l1.34.45s.46.08.66.55l1.34.45s.46.08.66.55l1.34.45s.46.08.66.55l1.34.45s.46.08.66.55l1.34.45s.46.08.66.55l1.34.45s.46.08.66.55l1.34.45s.46.08.66.55l1.35.45s.46.09.83.69q2.35.74 4.71 1.38s-.05.02.13.48l.38.33s.5 0 .95.12c0 0 .46.09.83.69q2.35.74 4.71 1.38s-.05.03.32.63q2.32.73 4.68 1.37s-.05.03.31.61q1.34.24 2.7.4s-.06.02.34.63q3.82 1.22 7.65 2.36s-.05.03.36.64q1.81.23 3.64.36s-.05.03.31.61q1.34.24 2.7.4s-.06.02.36.64q3.3.72 6.63 1.35s-.05.03.31.61q1.34.24 2.7.4s-.06.02.39.65q4.3.71 8.6 1.34s-.05.03.4.66q4.3.72 8.6 1.34s-.05.03.42.67q2.79.21 5.58.33s-.05.03.44.68q11.28 1.21 22.56 2.32s-.05.03.48.7q8.76.2 17.52.3s-.05.03.47.7c4.2-.23 8.42-.45 13.09-.77 0 0 .46-.12 1.38.02Q566.51 816.5 583 815s0 .06.82.02q2.62-.49 5.18-1.02s0 .06.81.02q2.64-.49 5.19-1.02s0 .06.78.02q2.15-.49 4.22-1.02s0 .06.75.01q1.66-.48 3.25-1s0 .05.75 0q1.66-.48 3.25-1s0 .05.75 0q1.66-.48 3.25-1s0 .05.75 0q1.66-.48 3.25-1s0 .05.75 0q1.66-.48 3.25-1s0 .05.7 0q1.18-.49 2.3-1s0 .05.7 0q1.18-.49 2.3-1s0 .05.7 0q1.18-.49 2.3-1s0 .05.7 0q1.18-.49 2.3-1s0 .05.7 0q1.18-.49 2.3-1s0 .05.7 0q1.18-.49 2.3-1s0 .05.7 0c.8-.33 1.59-.66 2.84-1.08 0 0 .45-.13.95-.12q.3-.4.5-.8s.02.05.71 0c.8-.33 1.59-.66 2.84-1.08 0 0 .45-.13.95-.12q.3-.4.5-.8s.02.05.71 0c.8-.33 1.59-.66 2.84-1.08 0 0 .45-.13.96-.12.2-.27.4-.53 1.04-.88 0 0 .45-.13.95-.12q.3-.4.5-.8s.02.05.76 0c2.11-1 4.22-2 6.8-3.08 0 0 .44-.13.95-.12.2-.27.4-.53 1.04-.88 0 0 .45-.13.96-.12.2-.27.4-.53 1.04-.88 0 0 .45-.13.96-.12.2-.27.4-.53 1.04-.88 0 0 .45-.13.96-.12.2-.27.4-.53 1.04-.88 0 0 .45-.13.96-.12.2-.27.4-.53 1.04-.88 0 0 .45-.13.96-.12.2-.27.4-.53 1.04-.88 0 0 .45-.13.96-.12.2-.27.4-.53 1.04-.88 0 0 .45-.13.96-.12.2-.27.4-.53 1.1-1.03.47-.33.93-.65 1.9-.97.2-.27.4-.53 1.04-.88 0 0 .45-.13.96-.12.2-.27.4-.53 1.04-.88 0 0 .45-.13.96-.12.2-.27.4-.53 1.1-1.03.47-.33.93-.65 1.9-.97.2-.27.4-.53 1.1-1.03.47-.33.93-.65 1.9-.97.2-.27.4-.53 1.04-.88 0 0 .45-.13.96-.12.2-.27.4-.53 1.1-1.03.47-.33.93-.65 1.9-.97.2-.27.4-.53 1.1-1.03.47-.33.93-.65 1.9-.97.2-.27.4-.53 1.1-1.03.47-.33.93-.65 1.9-.97.2-.27.4-.53 1.1-1.03.47-.33.93-.65 1.9-.97.2-.27.4-.53 1.14-1.06.78-.65 1.57-1.3 2.86-1.94.2-.27.4-.53 1.14-1.06.78-.65 1.57-1.3 2.86-1.94.2-.27.4-.53 1.16-1.08a25 25 0 0 1 3.84-2.92c.2-.27.4-.53 1.16-1.08a25 25 0 0 1 3.84-2.92c.2-.27.4-.53 1.17-1.1 2.1-1.96 4.21-3.94 6.83-5.9.2-.27.4-.53 1.17-1.1 5.78-5.87 11.56-11.75 17.8-17.82.12-.3.22-.6.64-1.5a104 104 0 0 1 5.37-5.5c.1-.3.21-.6.62-1.48 1.3-1.44 2.6-2.88 4.38-4.52.1-.3.21-.6.6-1.45.64-.78 1.29-1.57 2.4-2.55.1-.3.21-.6.6-1.45.64-.78 1.29-1.57 2.4-2.55.1-.3.21-.6.6-1.45.64-.78 1.29-1.57 2.4-2.55.1-.3.21-.6.56-1.41a7 7 0 0 1 1.44-1.6c.1-.3.21-.59.56-1.4a7 7 0 0 1 1.44-1.6c.1-.3.21-.59.56-1.4.32-.47.65-.93 1.44-1.6.1-.3.21-.59.56-1.4.32-.47.65-.93 1.44-1.6.1-.3.21-.59.56-1.4a7 7 0 0 1 1.44-1.6l.45-1.33s.08-.46.55-.66c.1-.3.21-.6.56-1.41.32-.47.65-.93 1.44-1.6l.45-1.33s.08-.46.55-.66c.1-.3.21-.6.56-1.41.32-.47.65-.93 1.44-1.6l.45-1.33s.08-.46.55-.66l.45-1.34s.08-.46.55-.66l.45-1.34s.08-.46.55-.66l.45-1.34s.08-.46.55-.66l.45-1.34s.08-.46.55-.66l.45-1.34s.08-.46.55-.66l.45-1.34s.08-.46.55-.66l.45-1.34s.08-.46.55-.66l.45-1.34s.08-.46.55-.66l.45-1.34s.08-.46.55-.66l.45-1.34s.08-.46.55-.66l.45-1.35s.09-.46.67-.83q.24-1.35.4-2.71s.02.05.48-.13c.33-.2.44-.5.45-1.32 0 0 .08-.46.55-.66l.45-1.35s.09-.46.67-.83q.24-1.35.4-2.71s.02.05.48-.13c.33-.2.44-.5.45-1.33 0 0 .09-.46.7-.87q1.23-4.34 2.37-8.67s.03.05.65-.34q1.21-4.32 2.35-8.66s.03.05.61-.31q.24-1.34.4-2.7s.02.06.6-.3q.24-1.34.4-2.7s.02.06.63-.35q.23-1.81.36-3.64s.03.05.64-.36q.23-1.81.36-3.64s.03.05.64-.36q.23-1.81.36-3.64s.03.05.64-.36q.22-1.81.36-3.64s.03.05.66-.4q.21-2.3.34-4.6s.03.05.66-.4q.21-2.3.34-4.6s.03.05.67-.42q.21-2.79.33-5.58s.03.05.68-.44q.7-7.27 1.32-14.56s.03.05.7-.47q.2-5.77.3-11.53s.03.05.7-.48c.1-9.15.25-18.3.25-27.44 0-1.7-.6-3.42-.95-5.08 0 0 .06 0 .02-.92q-.49-5.57-1.02-11.08s.06 0 .02-.86q-.49-3.62-1.02-7.14s.06 0 .02-.84q-.49-3.12-1.02-6.16s.06 0 .02-.82q-.49-2.62-1.02-5.18s.06 0 .02-.78q-.49-2.16-1.02-4.22s.06 0 .02-.78q-.49-2.16-1.02-4.22s.06 0 .01-.75q-.48-1.66-1-3.25s.05 0 0-.75q-.48-1.66-1-3.25s.05 0 0-.75q-.48-1.66-1-3.25s.05 0 0-.7q-.49-1.18-1-2.3s.05 0 0-.75q-.48-1.66-1-3.25s.05 0 0-.7q-.49-1.18-1-2.3s.05 0 0-.7q-.49-1.18-1-2.3s.05 0 0-.7q-.49-1.18-1-2.3s.05 0 0-.7q-.49-1.18-1-2.3s.05 0 0-.7q-.49-1.18-1-2.3s.05 0 0-.7c-.33-.8-.66-1.59-1.08-2.84 0 0-.13-.45-.12-.95a5 5 0 0 0-.8-.5s.05-.02 0-.71c-.33-.8-.66-1.59-1.08-2.84 0 0-.13-.45-.12-.95a5 5 0 0 0-.8-.5s.05-.02 0-.71c-.33-.8-.66-1.59-1.08-2.84 0 0-.13-.45-.12-.96a3 3 0 0 1-.88-1.04s-.13-.45-.12-.95q-.4-.3-.8-.5"/><path fill="#1ed760" d="M365.91 757.01c-1.1-.97-2.22-1.95-3.77-3.24-.66-.54-.92-.68-1.23-.76a349 349 0 0 0-5.75-5.23c-.68-.55-.94-.7-1.25-.77a1628 1628 0 0 1-21.86-21.84c-.38-.78-.6-1-.85-1.18a122 122 0 0 1-5.15-5.83c-.38-.77-.6-1-.85-1.17a53 53 0 0 1-3.15-3.83c-.38-.77-.6-1-.85-1.17a53 53 0 0 1-3.15-3.83c-.38-.77-.6-1-.85-1.17-.33-.46-.65-.92-1.18-1.86-.35-.74-.56-.97-.82-1.14-.65-.78-1.3-1.57-2.16-2.84-.37-.76-.58-.99-.84-1.16-.33-.46-.65-.92-1.18-1.86-.35-.74-.56-.97-.82-1.14-.33-.46-.65-.92-1.18-1.86-.35-.74-.56-.97-.82-1.14-.33-.46-.65-.92-1.18-1.86-.35-.74-.56-.97-.82-1.14a18 18 0 0 1-1.18-1.86c-.35-.74-.56-.97-.82-1.14-.33-.46-.65-.92-1.18-1.86-.35-.74-.56-.97-.82-1.14l-.25-.89c-.28-.71-.5-.94-.75-1.1a18 18 0 0 1-1.18-1.87c-.35-.74-.56-.97-.82-1.14l-.25-.89c-.28-.71-.5-.94-.75-1.1l-.25-.9c-.28-.71-.5-.94-.75-1.1-.33-.47-.65-.93-1.18-1.87-.35-.74-.56-.97-.82-1.14l-.25-.89c-.28-.71-.5-.94-.75-1.1 0 0-.13-.46-.17-1.03a16 16 0 0 0-1.83-3.02l-.25-.86c-.28-.7-.5-.92-.75-1.1l-.25-.89c-.28-.71-.5-.94-.75-1.1l-.25-.9c-.28-.71-.5-.94-.75-1.1l-.25-.9c-.28-.71-.5-.94-.75-1.1 0 0-.13-.46-.17-1.05-.73-2.04-1.4-3.5-2.09-4.94 0 0 .06-.01-.03-.2a2 2 0 0 0-.71-.82l-.25-.89c-.28-.71-.5-.94-.75-1.1 0 0-.13-.46-.17-1.03-.4-1.37-.74-2.17-1.09-2.96 0 0 .06-.01-.03-.2a2 2 0 0 0-.71-.82s-.13-.45-.17-1.02c-.4-1.37-.74-2.17-1.09-2.96 0 0 .06-.01-.03-.2a2 2 0 0 0-.71-.82s-.13-.45-.17-1.02c-.4-1.37-.74-2.17-1.09-2.96 0 0 .06-.01.05-.33a23 23 0 0 0-1.05-2.67s.06-.01.05-.33a23 23 0 0 0-1.05-2.67s.06-.01.05-.33a23 23 0 0 0-1.05-2.67s.06-.01.05-.33a23 23 0 0 0-1.05-2.67s.06-.01.05-.33a23 23 0 0 0-1.05-2.67s.06-.01.05-.38c-.68-2.45-1.37-4.54-2.05-6.62 0 0 .06-.01.06-.36a50 50 0 0 0-1.06-3.64s.06-.01.06-.36a50 50 0 0 0-1.06-3.64s.06-.01.06-.36a50 50 0 0 0-1.06-3.64s.06-.01.06-.36a50 50 0 0 0-1.06-3.64s.06-.01.06-.4c-.36-2.12-.7-3.86-1.06-5.6 0 0 .06-.01.06-.38-.36-1.78-.7-3.2-1.06-4.63 0 0 .06 0 .06-.4-.36-2.46-.7-4.53-1.06-6.6 0 0 .06 0 .06-.4-.36-2.46-.7-4.53-1.06-6.6 0 0 .06 0 .06-.43-.36-3.81-.7-7.19-1.06-10.57 0 0 .06 0 .06-.45l-.03-40.6s.03.05.28-.25c.4-3.45.56-6.6.72-9.75 0 0 .03.05.27-.24.41-2.78.57-5.27.73-7.76 0 0 .03.05.27-.24.4-2.44.57-4.6.73-6.76 0 0 .03.05.27-.22.4-1.77.57-3.27.73-4.78 0 0 .03.05.27-.22.4-1.77.57-3.27.73-4.78 0 0 .03.05.27-.22.4-1.77.57-3.27.73-4.78 0 0 .03.05.26-.2.4-1.43.57-2.62.74-3.8 0 0 .03.05.26-.2.4-1.43.57-2.62.74-3.8 0 0 .03.05.26-.2.4-1.43.57-2.62.74-3.8 0 0 .03.05.25-.17.4-1.1.58-1.96.75-2.83 0 0 .03.05.26-.2.4-1.43.57-2.62.74-3.8 0 0 .03.05.25-.17.4-1.1.58-1.96.75-2.83 0 0 .03.05.25-.17.4-1.1.58-1.96.75-2.83 0 0 .03.05.25-.17.4-1.1.58-1.96.75-2.83 0 0 .03.05.25-.17.4-1.1.58-1.96.75-2.83 0 0 .03.05.28-.17 1.07-2.76 1.9-5.3 2.72-7.83 0 0 .03.05.25-.18.4-1.1.59-1.98.76-2.85 0 0 .1-.46.33-.84.46-.6.6-.86.68-1.17 0 0 .08-.46.32-.82.45-.59.6-.85.67-1.14 0 0 .02.05.25-.18.4-1.1.58-1.98.75-2.85 0 0 .1-.46.33-.84.46-.6.6-.86.68-1.17 0 0 .08-.46.32-.83.46-.6.6-.86.68-1.17 0 0 .08-.46.32-.82.45-.59.6-.85.67-1.14 0 0 .02.05.25-.18.4-1.1.58-1.98.75-2.85 0 0 .1-.46.33-.84.46-.6.6-.86.68-1.17 0 0 .08-.46.32-.83.46-.6.6-.86.68-1.17 0 0 .08-.46.32-.83.46-.6.6-.86.68-1.17 0 0 .08-.46.32-.83.46-.6.6-.86.68-1.17l1.26-1.8c.52-.63.66-.9.74-1.2 0 0 .08-.46.32-.83.46-.6.6-.86.68-1.17 0 0 .08-.46.32-.83.46-.6.6-.86.68-1.17 0 0 .08-.46.32-.83.46-.6.6-.86.68-1.17 0 0 .08-.46.32-.83.46-.6.6-.86.68-1.17l1.26-1.8c.52-.63.66-.9.74-1.2 0 0 .08-.46.32-.83.46-.6.6-.86.68-1.17l1.26-1.8c.52-.63.66-.9.74-1.2l1.26-1.8c.52-.63.66-.9.74-1.2 0 0 .08-.46.32-.83.46-.6.6-.86.68-1.17l1.26-1.8c.52-.63.66-.9.74-1.2l1.26-1.8c.52-.63.66-.9.74-1.2.64-.78 1.3-1.57 2.25-2.78.53-.65.67-.91.75-1.22l1.26-1.8c.52-.63.66-.9.74-1.2.64-.78 1.3-1.57 2.25-2.78.53-.65.67-.91.75-1.22.97-1.1 1.95-2.22 3.24-3.77.54-.66.68-.92.76-1.23.97-1.1 1.95-2.22 3.24-3.77.54-.66.68-.92.76-1.23 1.96-2.1 3.93-4.2 6.23-6.75.55-.68.7-.94.77-1.25 5.78-5.87 11.56-11.75 17.84-17.86.78-.38 1-.6 1.18-.85 2.1-1.97 4.21-3.95 6.83-6.15.77-.38 1-.6 1.17-.85a57 57 0 0 1 3.83-3.15c.77-.38 1-.6 1.17-.85a57 57 0 0 1 3.83-3.15c.77-.38 1-.6 1.17-.85.78-.65 1.57-1.3 2.84-2.16.76-.37.99-.58 1.16-.84.46-.33.92-.65 1.86-1.18.74-.35.97-.56 1.14-.82.78-.65 1.57-1.3 2.84-2.16.76-.37.99-.58 1.16-.84.46-.33.92-.65 1.86-1.18.74-.35.97-.56 1.14-.82.46-.33.92-.65 1.86-1.18.74-.35.97-.56 1.14-.82l.89-.25c.71-.28.94-.5 1.1-.75.47-.33.93-.65 1.87-1.18.74-.35.97-.56 1.14-.82.46-.33.92-.65 1.86-1.18.74-.35.97-.56 1.14-.82l.89-.25c.71-.28.94-.5 1.1-.75.47-.33.93-.65 1.87-1.18.74-.35.97-.56 1.14-.82l.89-.25c.71-.28.94-.5 1.1-.75l.9-.25c.71-.28.94-.5 1.1-.75l.9-.25c.71-.28.94-.5 1.1-.75.47-.33.93-.65 1.87-1.18.74-.35.97-.56 1.14-.82l.89-.25c.71-.28.94-.5 1.1-.75l.9-.25c.71-.28.94-.5 1.1-.75l.9-.25c.71-.28.94-.5 1.1-.75l.9-.25c.71-.28.94-.5 1.1-.75l.9-.25c.71-.28.94-.5 1.1-.75 0 0 .46-.13 1.03-.17a21 21 0 0 0 2.96-1.09s.01.06.2-.03c.44-.25.65-.46.82-.71l.89-.25c.71-.28.94-.5 1.1-.75l.9-.25c.71-.28.94-.5 1.1-.75 0 0 .46-.13 1.03-.17a21 21 0 0 0 2.96-1.09s.01.06.2-.03c.44-.25.65-.46.82-.71 0 0 .45-.13 1.02-.17 1.37-.4 2.17-.74 2.96-1.09 0 0 .01.06.2-.03.44-.25.65-.46.82-.71 0 0 .45-.13 1.02-.17a21 21 0 0 0 2.96-1.09s.01.06.33.05c1.1-.35 1.89-.7 2.67-1.05 0 0 .01.06.2-.03.44-.25.65-.46.82-.71 0 0 .45-.13 1.02-.17a21 21 0 0 0 2.96-1.09s.01.06.33.05c1.1-.35 1.89-.7 2.67-1.05 0 0 .01.06.33.05 1.1-.35 1.89-.7 2.67-1.05 0 0 .01.06.36.06a50 50 0 0 0 3.64-1.06s.01.06.33.05c1.1-.35 1.89-.7 2.67-1.05 0 0 .01.06.36.06a50 50 0 0 0 3.64-1.06s.01.06.4.05a471 471 0 0 0 11.6-3.05s.01.06.4.06c3.47-.69 6.54-1.37 9.6-2.06 0 0 .01.06.42.06a659 659 0 0 0 11.59-2.06s0 .06.43.06c12-.67 23.57-1.51 35.16-1.94 8.48-.31 16.97-.08 25.46-.09 0 0-.05.03.25.28 3.45.4 6.6.56 9.75.72 0 0-.05.03.24.27 2.78.41 5.27.57 7.76.73 0 0-.05.03.24.27 2.44.4 4.6.57 6.76.73 0 0-.05.03.22.27 1.77.4 3.27.57 4.78.73 0 0-.05.03.22.27 1.77.4 3.27.57 4.78.73 0 0-.05.03.22.27 1.77.4 3.27.57 4.78.73 0 0-.05.03.2.26 1.43.4 2.62.57 3.8.74 0 0-.05.03.2.26 1.43.4 2.62.57 3.8.74 0 0-.05.03.2.26 1.43.4 2.62.57 3.8.74 0 0-.05.03.2.26 1.43.4 2.62.57 3.8.74 0 0-.05.03.17.25 1.1.4 1.96.58 2.83.75 0 0-.05.03.17.25 1.1.4 1.96.58 2.83.75 0 0-.05.03.17.25 1.1.4 1.96.58 2.83.75 0 0-.05.03.17.25 1.1.4 1.96.58 2.83.75 0 0-.05.03.17.25 1.1.4 1.96.58 2.83.75 0 0-.05.03.17.25 1.1.4 1.96.58 2.83.75 0 0-.05.03.17.25 1.1.4 1.96.58 2.83.75 0 0-.05.03.18.25 1.1.4 1.98.59 2.85.76 0 0 .46.1.83.33.59.45.85.6 1.14.67 0 0-.05.02.18.25 1.1.4 1.98.58 2.85.75 0 0 .46.1.84.33.6.46.86.6 1.17.68 0 0 .46.08.82.32.59.45.85.6 1.14.67 0 0-.05.02.18.25 1.1.4 1.98.58 2.85.75 0 0 .46.1.84.33.6.46.86.6 1.17.68 0 0 .46.08.83.32.6.46.86.6 1.17.68 0 0 .46.08.83.32.6.46.86.6 1.17.68 0 0 .46.08.82.32.59.45.85.6 1.14.67 0 0-.05.02.18.25 1.1.4 1.98.58 2.85.75 0 0 .46.1.84.33.6.46.86.6 1.17.68 0 0 .46.08.83.32.6.46.86.6 1.17.68l1.8 1.26c.63.52.9.66 1.2.74 0 0 .46.08.83.32.6.46.86.6 1.17.68 0 0 .46.08.83.32.6.46.86.6 1.17.68 0 0 .46.08.83.32.6.46.86.6 1.17.68 0 0 .46.08.83.32.6.46.86.6 1.17.68l1.8 1.26c.63.52.9.66 1.2.74 0 0 .46.08.83.32.6.46.86.6 1.17.68l1.8 1.26c.63.52.9.66 1.2.74 0 0 .46.08.83.32.6.46.86.6 1.17.68l1.8 1.26c.63.52.9.66 1.2.74l1.8 1.26c.63.52.9.66 1.2.74l1.8 1.26c.63.52.9.66 1.2.74l1.8 1.26c.63.52.9.66 1.2.74l1.8 1.26c.63.52.9.66 1.2.74.78.64 1.57 1.3 2.78 2.25.65.53.91.67 1.22.75.78.64 1.57 1.3 2.78 2.25.65.53.91.67 1.22.75 1.1.97 2.22 1.95 3.77 3.24.66.54.92.68 1.23.76 1.44 1.3 2.88 2.6 4.76 4.23.67.55.93.7 1.24.77 2.43 2.3 4.87 4.6 7.75 7.23.68.55.94.7 1.25.77 3.87 3.78 7.75 7.56 11.86 11.84.38.78.6 1 .85 1.18 2.3 2.44 4.61 4.88 7.15 7.82.38.78.6 1 .85 1.18a87 87 0 0 1 4.15 4.83c.38.77.6 1 .85 1.17a57 57 0 0 1 3.15 3.83c.38.77.6 1 .85 1.17.65.78 1.3 1.57 2.16 2.84.37.76.58.99.84 1.16.33.46.65.92 1.18 1.86.35.74.56.97.82 1.14.65.78 1.3 1.57 2.16 2.84.37.76.58.99.84 1.16.33.46.65.92 1.18 1.86.35.74.56.97.82 1.14.33.46.65.92 1.18 1.86.35.74.56.97.82 1.14.33.46.65.92 1.18 1.86.35.74.56.97.82 1.14.33.46.65.92 1.18 1.86.35.74.56.97.82 1.14l.25.89c.28.71.5.94.75 1.1.33.47.65.93 1.18 1.87.35.74.56.97.82 1.14l.25.89c.28.71.5.94.75 1.1l.25.9c.28.71.5.94.75 1.1.33.47.65.93 1.18 1.87.35.74.56.97.82 1.14l.25.89c.28.71.5.94.75 1.1l.25.9c.28.71.5.94.75 1.1l.25.9c.28.71.5.94.75 1.1l.25.9c.28.71.5.94.75 1.1l.25.9c.28.71.5.94.75 1.1l.25.9c.28.71.5.94.75 1.1l.25.9c.28.71.5.94.75 1.1l.25.9c.28.71.5.94.75 1.1l.25.9c.28.71.5.94.75 1.1 0 0 .13.46.17 1.03.4 1.37.74 2.17 1.09 2.96 0 0-.06.01.03.2.25.44.46.65.71.82l.25.89c.28.71.5.94.75 1.1 0 0 .13.46.17 1.03.4 1.37.74 2.17 1.09 2.96 0 0-.06.01.03.2.25.44.46.65.71.82 0 0 .13.45.17 1.02.4 1.37.74 2.17 1.09 2.96 0 0-.06.01.03.2.25.44.46.65.71.82 0 0 .13.45.17 1.02.4 1.37.74 2.17 1.09 2.96 0 0-.06.01-.05.33.35 1.1.7 1.89 1.05 2.67 0 0-.06.01-.05.33.35 1.1.7 1.89 1.05 2.67 0 0-.06.01-.05.33.35 1.1.7 1.89 1.05 2.67 0 0-.06.01-.05.33.35 1.1.7 1.89 1.05 2.67 0 0-.06.01-.05.33.35 1.1.7 1.89 1.05 2.67 0 0-.06.01-.06.36.36 1.44.7 2.54 1.06 3.64 0 0-.06.01-.05.33.35 1.1.7 1.89 1.05 2.67 0 0-.06.01-.06.36.36 1.44.7 2.54 1.06 3.64 0 0-.06.01-.06.36.36 1.44.7 2.54 1.06 3.64 0 0-.06.01-.06.36.36 1.44.7 2.54 1.06 3.64 0 0-.06.01-.06.38.36 1.78.7 3.2 1.06 4.63 0 0-.06 0-.06.37.36 1.78.7 3.2 1.06 4.63 0 0-.06 0-.06.38.36 2.13.7 3.87 1.06 5.62 0 0-.06 0-.06.4.36 2.46.7 4.53 1.06 6.6 0 0-.06 0-.06.41.36 2.8.7 5.2 1.06 7.59 0 0-.06 0-.06.44.36 4.14.7 7.85 1.06 11.56 0 0-.06 0-.06.45l.03 32.6s-.03-.05-.28.25c-.4 4.12-.56 7.94-.72 11.75 0 0-.03-.05-.27.24-.74 5.12-1.24 9.94-1.73 14.76 0 0-.03-.05-.27.23-.4 2.1-.57 3.94-.73 5.77 0 0-.03-.05-.27.22-.4 1.77-.57 3.27-.73 4.78 0 0-.03-.05-.27.22-.4 1.77-.57 3.27-.73 4.78 0 0-.03-.05-.26.2-.4 1.43-.57 2.62-.74 3.8 0 0-.03-.05-.26.2-.4 1.43-.57 2.62-.74 3.8 0 0-.03-.05-.26.2-.4 1.43-.57 2.62-.74 3.8 0 0-.03-.05-.26.2-.4 1.43-.57 2.62-.74 3.8 0 0-.03-.05-.25.17-.4 1.1-.58 1.96-.75 2.83 0 0-.03-.05-.25.17-.4 1.1-.58 1.96-.75 2.83 0 0-.03-.05-.26.2-1.07 3.09-1.9 5.94-2.74 8.8 0 0-.03-.05-.28.17-1.08 3.11-1.9 5.99-2.73 8.86 0 0-.1.46-.33.83-.45.59-.6.85-.67 1.14 0 0-.02-.05-.25.18a18 18 0 0 0-.75 2.85s-.1.46-.33.84c-.46.6-.6.86-.68 1.17 0 0-.08.46-.32.82-.45.59-.6.85-.67 1.14 0 0-.02-.05-.25.18a18 18 0 0 0-.75 2.85s-.1.46-.33.84c-.46.6-.6.86-.68 1.17 0 0-.08.46-.32.83-.46.6-.6.86-.68 1.17 0 0-.08.46-.32.83-.46.6-.6.86-.68 1.17 0 0-.08.46-.32.83-.46.6-.6.86-.68 1.17 0 0-.08.46-.32.83-.46.6-.6.86-.68 1.17 0 0-.08.46-.32.83-.46.6-.6.86-.68 1.17 0 0-.08.46-.32.83-.46.6-.6.86-.68 1.17 0 0-.08.46-.32.83-.46.6-.6.86-.68 1.17 0 0-.08.46-.32.83-.46.6-.6.86-.68 1.17 0 0-.08.46-.32.83-.46.6-.6.86-.68 1.17 0 0-.08.46-.32.83-.46.6-.6.86-.68 1.17 0 0-.08.46-.32.83-.46.6-.6.86-.68 1.17l-1.26 1.8c-.52.63-.66.9-.74 1.2 0 0-.08.46-.32.83-.46.6-.6.86-.68 1.17l-1.26 1.8c-.52.63-.66.9-.74 1.2 0 0-.08.46-.32.83-.46.6-.6.86-.68 1.17l-1.26 1.8c-.52.63-.66.9-.74 1.2l-1.26 1.8c-.52.63-.66.9-.74 1.2l-1.26 1.8c-.52.63-.66.9-.74 1.2l-1.26 1.8c-.52.63-.66.9-.74 1.2l-1.26 1.8c-.52.63-.66.9-.74 1.2-.64.78-1.3 1.57-2.25 2.78-.53.65-.67.91-.75 1.22-.64.78-1.3 1.57-2.25 2.78-.53.65-.67.91-.75 1.22a155 155 0 0 0-2.25 2.78c-.53.65-.67.91-.75 1.22-1.3 1.44-2.6 2.88-4.23 4.76-.55.67-.7.93-.77 1.24a349 349 0 0 0-5.23 5.75c-.55.68-.7.94-.77 1.25-5.78 5.87-11.56 11.75-17.84 17.86-.78.38-1 .6-1.18.85-2.1 1.97-4.21 3.95-6.83 6.15-.77.38-1 .6-1.17.85a57 57 0 0 1-3.83 3.15c-.77.38-1 .6-1.17.85a57 57 0 0 1-3.83 3.15c-.77.38-1 .6-1.17.85-.78.65-1.57 1.3-2.84 2.16-.76.37-.98.58-1.16.84-.78.65-1.57 1.3-2.84 2.16-.76.37-.98.58-1.16.84-.46.33-.92.65-1.86 1.18-.74.35-.96.56-1.14.82-.46.33-.92.65-1.86 1.18-.74.35-.96.56-1.14.82-.46.33-.92.65-1.86 1.18-.74.35-.96.56-1.14.82-.46.33-.92.65-1.86 1.18-.74.35-.96.56-1.14.82l-.89.25c-.71.28-.93.5-1.1.75-.47.33-.93.65-1.87 1.18-.74.35-.96.56-1.14.82-.46.33-.92.65-1.86 1.18-.74.35-.96.56-1.14.82l-.89.25c-.71.28-.93.5-1.1.75l-.9.25c-.71.28-.93.5-1.1.75-.47.33-.93.65-1.87 1.18-.74.35-.96.56-1.14.82l-.89.25c-.71.28-.93.5-1.1.75l-.9.25c-.71.28-.93.5-1.1.75l-.9.25c-.71.28-.93.5-1.1.75l-.9.25c-.71.28-.93.5-1.1.75l-.9.25c-.71.28-.93.5-1.1.75l-.9.25c-.71.28-.93.5-1.1.75l-.9.25c-.71.28-.93.5-1.1.75 0 0-.46.13-1.06.17a94 94 0 0 0-6.93 3.09s-.01-.06-.2.03a2 2 0 0 0-.82.71l-.89.25c-.71.28-.94.5-1.1.75 0 0-.46.13-1.03.17-1.37.4-2.17.74-2.96 1.09 0 0-.01-.06-.2.03a2 2 0 0 0-.82.71s-.45.13-1.02.17c-1.37.4-2.17.74-2.96 1.09 0 0-.01-.06-.2.03a2 2 0 0 0-.82.71s-.45.13-1.02.17c-1.37.4-2.17.74-2.96 1.09 0 0-.01-.06-.33-.05-1.1.35-1.89.7-2.67 1.05 0 0-.01-.06-.33-.05-1.1.35-1.89.7-2.67 1.05 0 0-.01-.06-.33-.05-1.1.35-1.89.7-2.67 1.05 0 0-.01-.06-.33-.05-1.1.35-1.89.7-2.67 1.05 0 0-.01-.06-.33-.05-1.1.35-1.89.7-2.67 1.05 0 0-.01-.06-.33-.05-1.1.35-1.89.7-2.67 1.05 0 0-.01-.06-.36-.06-1.44.36-2.54.7-3.64 1.06 0 0-.01-.06-.36-.06-1.44.36-2.54.7-3.64 1.06 0 0-.01-.06-.36-.06-1.44.36-2.54.7-3.64 1.06 0 0-.01-.06-.36-.06-1.44.36-2.54.7-3.64 1.06 0 0-.01-.06-.36-.06-1.44.36-2.54.7-3.64 1.06 0 0-.01-.06-.38-.06-1.78.36-3.2.7-4.63 1.06 0 0 0-.06-.38-.06-2.13.36-3.87.7-5.62 1.06 0 0 0-.06-.38-.06-2.13.36-3.87.7-5.62 1.06 0 0 0-.06-.43-.06-5 .34-9.57.63-14.12 1.02-6.48.55-12.96 1.19-19.43 1.79 0 0-.46.12-1.17.16-4.77.04-8.83.05-12.9.06 0 0 .05-.03-.26-.28-6.12-.4-11.93-.56-17.74-.72 0 0 .05-.03-.25-.28a818 818 0 0 0-22.75-2.72s.05-.03-.23-.27c-2.1-.4-3.94-.57-5.77-.73 0 0 .05-.03-.21-.27-3.11-.73-5.95-1.23-8.79-1.73 0 0 .05-.03-.21-.27-3.1-.73-5.95-1.23-8.79-1.73 0 0 .05-.03-.17-.25-1.1-.4-1.96-.58-2.83-.75 0 0 .05-.03-.2-.27-2.43-.74-4.61-1.23-6.8-1.73 0 0 .05-.03-.17-.25-1.1-.4-1.96-.58-2.83-.75 0 0 .05-.03-.2-.26-1.43-.4-2.62-.57-3.8-.74 0 0 .05-.03-.17-.28a140 140 0 0 0-7.83-2.72s.05-.03-.17-.25c-1.1-.4-1.96-.58-2.83-.75 0 0 .05-.03-.17-.27a55 55 0 0 0-4.83-1.73s.05-.03-.17-.28a56 56 0 0 0-4.86-1.73s-.46-.1-.83-.33c-.59-.45-.85-.6-1.14-.67 0 0 .05-.02-.17-.27a56 56 0 0 0-4.86-1.73s-.46-.1-.84-.33c-.6-.46-.86-.6-1.17-.68 0 0-.46-.08-.83-.32-.6-.46-.86-.6-1.17-.68 0 0-.46-.08-.83-.32-.6-.46-.86-.6-1.17-.68 0 0-.46-.08-.83-.32-.6-.46-.86-.6-1.17-.68 0 0-.46-.08-.83-.32-.6-.46-.86-.6-1.17-.68 0 0-.46-.08-.83-.32-.6-.46-.86-.6-1.17-.68 0 0-.46-.08-.83-.32-.6-.46-.86-.6-1.17-.68 0 0-.46-.08-.83-.32-.6-.46-.86-.6-1.17-.68 0 0-.46-.08-.83-.32-.6-.46-.86-.6-1.17-.68 0 0-.46-.08-.83-.32-.6-.46-.86-.6-1.17-.68 0 0-.46-.08-.83-.32-.6-.46-.86-.6-1.17-.68l-1.8-1.26c-.63-.52-.9-.66-1.2-.74 0 0-.46-.08-.83-.32-.6-.46-.86-.6-1.17-.68l-1.8-1.26c-.63-.52-.9-.66-1.2-.74 0 0-.46-.08-.83-.32-.6-.46-.86-.6-1.17-.68l-1.8-1.26c-.63-.52-.9-.66-1.2-.74l-1.8-1.26c-.63-.52-.9-.66-1.2-.74 0 0-.46-.08-.83-.32-.6-.46-.86-.6-1.17-.68l-1.8-1.26c-.63-.52-.9-.66-1.2-.74-.78-.64-1.57-1.3-2.78-2.25-.65-.53-.91-.67-1.22-.75l-1.8-1.26c-.63-.52-.9-.66-1.2-.74-.78-.64-1.57-1.3-2.78-2.25-.65-.53-.91-.67-1.22-.75-1.1-.97-2.22-1.95-3.77-3.24-.66-.54-.92-.68-1.23-.76M308.01 434s.05 0-.46.46l-.62 3.08s-.13.45-.48.75c-.22.22-.36.5-.52 1.25 0 0-.13.45-.48.75-.22.22-.36.5-.52 1.25 0 0-.13.45-.47.74a2 2 0 0 0-.46.72s.06 0-.45.46l-.62 3.08s-.13.45-.47.74a2 2 0 0 0-.46.72s.06 0-.45.46l-.62 3.08s-.13.45-.47.74a2 2 0 0 0-.46.72s.06 0-.45.45q-.25 1.31-.55 2.55s.06 0-.45.45q-.25 1.31-.55 2.55s.06 0-.45.45q-.25 1.31-.55 2.55s.06 0-.45.45q-.25 1.31-.55 2.55s.06 0-.45.45q-.25 1.31-.55 2.55s.06 0-.45.45q-.25 1.31-.55 2.55s.06 0-.46.5q-.25 1.79-.54 3.5s.06 0-.46.5q-.25 1.79-.54 3.5s.06 0-.46.5q-.25 1.79-.54 3.5s.06 0-.46.5q-.25 1.79-.54 3.5s.06 0-.47.54q-.25 2.26-.53 4.46s.06 0-.47.54q-.25 2.26-.53 4.46s.06 0-.48.56q-.24 2.76-.52 5.44s.06 0-.49.57a445 445 0 0 1-.5 6.43s.05 0-.5.6q-.24 4.23-.5 8.4s.05 0-.51.62q-.24 10.23-.5 20.38s.06 0-.42.39q.26 1.3.42 2.61s.03-.05 0 .9q.54 10.05 1 20.1s.03-.05 0 .84q.55 4.08 1 8.16s.03-.05 0 .8q.55 3.1 1 6.2s.03-.05 0 .76q.55 2.63 1 5.24s.03-.05 0 .76q.55 2.63 1 5.24s.03-.05 0 .69q.55 1.65 1 3.31s.03-.05 0 .73q.55 2.13 1 4.27s.03-.05 0 .75q1.05 3.12 2 6.25s.03-.05 0 .69q.54 1.65 1 3.31s.03-.05.02.63c.34.79.7 1.58.98 2.37 0 0 .03-.05.02.63.34.79.7 1.58.98 2.37 0 0 .03-.05.02.63.34.79.7 1.58.98 2.37 0 0 .03-.05.02.63.34.79.7 1.58.98 2.37 0 0 .03-.05.02.63.34.79.7 1.58.98 2.37 0 0 .03-.05.02.63.34.79.7 1.58.98 2.37 0 0 .03-.05.02.63.34.79.7 1.58.98 2.37 0 0 .02-.05.19.36.15.27.36.48.74 1.1 0 0 .09.46.08 1.15q.54 1.2 1 2.4s0-.06.18.35c.15.27.36.48.74 1.1 0 0 .08.45.25.88.16.27.36.5.75 1.12 0 0 .09.46.08 1.15q.54 1.2 1 2.4s0-.06.18.35c.15.27.36.48.74 1.1 0 0 .08.45.25.88.16.27.36.5.75 1.12 0 0 .08.45.25.88.16.27.36.5.75 1.12 0 0 .08.45.25.88.16.27.36.5.75 1.12 0 0 .08.45.25.88.16.27.36.5.75 1.12 0 0 .08.45.25.88.16.27.36.5.75 1.12 0 0 .08.45.25.88.16.27.36.5.75 1.12 0 0 .08.45.25.88.16.27.36.5.75 1.12 0 0 .08.45.25.88.16.27.36.5.86 1.19.32.46.65.92 1.14 1.81.16.27.36.5.75 1.12 0 0 .08.45.25.88.16.27.36.5.75 1.12 0 0 .08.45.25.88.16.27.36.5.86 1.19.32.46.65.92 1.14 1.81.16.27.36.5.75 1.12 0 0 .08.45.25.88.16.27.36.5.86 1.19.32.46.65.92 1.14 1.81.16.27.36.5.86 1.19.32.46.65.92 1.14 1.81.16.27.36.5.86 1.19.32.46.65.92 1.14 1.81.16.27.36.5.86 1.19.32.46.65.92 1.14 1.81.16.27.36.5.86 1.19.32.46.65.92 1.14 1.81.16.27.36.5.9 1.22.64.79 1.29 1.57 2.1 2.78.16.27.36.5.9 1.22.64.79 1.29 1.57 2.1 2.78.16.27.36.5.92 1.26 1.3 1.44 2.61 2.87 4.08 4.74.16.27.36.5.92 1.26 1.3 1.44 2.61 2.87 4.08 4.74.16.27.36.5.94 1.27 7.29 7.2 14.58 14.4 22.17 21.94.22.22.5.36 1.38.72 1.77 1.64 3.55 3.29 5.62 5.28.22.22.5.36 1.37.71 1.1.98 2.22 1.96 3.63 3.29.22.22.5.36 1.35.7.78.65 1.57 1.3 2.65 2.3.22.22.5.36 1.35.7.78.65 1.57 1.3 2.65 2.3.22.22.5.36 1.32.67.46.32.92.65 1.68 1.33.22.22.5.36 1.35.7.78.65 1.57 1.3 2.65 2.3.22.22.5.36 1.32.67.46.32.92.65 1.68 1.33.22.22.5.36 1.25.52 0 0 .45.13.75.48.22.22.5.36 1.32.67.46.32.92.65 1.68 1.33.22.22.5.36 1.32.67.46.32.92.65 1.68 1.33.22.22.5.36 1.25.52 0 0 .45.13.75.48.22.22.5.36 1.32.67.46.32.92.65 1.68 1.33.22.22.5.36 1.25.52 0 0 .45.13.75.48.22.22.5.36 1.25.52 0 0 .45.13.75.48.22.22.5.36 1.25.52 0 0 .45.13.75.48.22.22.5.36 1.25.52 0 0 .45.13.75.48.22.22.5.36 1.25.52 0 0 .45.13.75.48.22.22.5.36 1.25.52 0 0 .45.13.75.48.22.22.5.36 1.25.52 0 0 .45.13.75.48.22.22.5.36 1.25.52 0 0 .45.13.75.48.22.22.5.36 1.25.52 0 0 .45.13.75.48.22.22.5.36 1.25.52 0 0 .45.13.75.48.22.22.5.36 1.25.52 0 0 .45.13.75.48.22.22.5.36 1.25.52 0 0 .45.13.74.47q.35.33.72.46s0-.06.46.45l3.08.62s.45.13.74.47q.35.33.72.46s0-.06.46.45l3.08.62s.45.13.74.47q.35.33.72.46s0-.06.45.45q1.31.25 2.55.55s0-.06.46.45l3.08.62s.45.13.74.47q.35.33.72.46s0-.06.45.45q1.31.25 2.55.55s0-.06.45.45q1.31.25 2.55.55s0-.06.5.46q1.79.25 3.5.54s0-.06.45.45q1.31.25 2.55.55s0-.06.45.45q1.31.25 2.55.55s0-.06.5.46q1.79.25 3.5.54s0-.06.5.46q1.79.25 3.5.54s0-.06.5.46q1.79.25 3.5.54s0-.06.54.47q2.26.25 4.46.53s0-.06.54.47q2.26.25 4.46.53s0-.06.56.48q2.76.24 5.44.52s0-.06.57.49q3.25.24 6.43.5s0-.05.59.5q3.74.24 7.4.5s.01-.05.62.51q6.24.23 12.39.5s0-.06.62.5c4.76.17 9.53.52 14.28.44 3.7-.06 7.4-.65 11.1-.94 0 0-.05-.03.89 0q6.55-.55 13.11-1s-.05-.03.82 0q3.58-.55 7.18-1s-.05-.03.8 0q3.1-.55 6.2-1s-.05-.03.76 0q2.63-.55 5.24-1s-.05-.03.73 0q2.13-.55 4.27-1s-.05-.03.69 0q1.65-.55 3.31-1s-.05-.03.73 0q2.13-.55 4.27-1s-.05-.03.69 0q1.65-.55 3.31-1s-.05-.03.63-.02A39 39 0 0 1 610 787s-.05-.03.69 0q1.65-.55 3.31-1s-.05-.03.63-.02A39 39 0 0 1 617 785s-.05-.03.63-.02A39 39 0 0 1 620 784s-.05-.03.63-.02c.79-.34 1.58-.7 2.37-.98 0 0-.05-.03.63-.02.79-.34 1.58-.7 2.37-.98 0 0-.05-.03.63-.02.79-.34 1.58-.7 2.37-.98 0 0-.05-.03.63-.02.79-.34 1.58-.7 2.37-.98 0 0-.05-.03.63-.02.79-.34 1.58-.7 2.37-.98 0 0-.05-.02.36-.19.27-.15.48-.36 1.1-.74 0 0 .46-.09 1.15-.08q1.2-.54 2.4-1s-.06 0 .35-.18c.27-.15.48-.36 1.1-.74 0 0 .45-.08.88-.25.27-.16.5-.36 1.12-.75 0 0 .46-.09 1.15-.08q1.2-.54 2.4-1s-.06 0 .35-.18c.27-.15.48-.36 1.1-.74 0 0 .45-.08.88-.25.27-.16.5-.36 1.12-.75 0 0 .45-.08.88-.25.27-.16.5-.36 1.12-.75 0 0 .45-.08.88-.25.27-.16.5-.36 1.12-.75 0 0 .45-.08.88-.25.27-.16.5-.36 1.12-.75 0 0 .45-.08.88-.25.27-.16.5-.36 1.12-.75 0 0 .45-.08.88-.25.27-.16.5-.36 1.12-.75 0 0 .45-.08.88-.25.27-.16.5-.36 1.12-.75 0 0 .45-.08.88-.25.27-.16.5-.36 1.12-.75 0 0 .45-.08.88-.25.27-.16.5-.36 1.19-.86.46-.32.92-.65 1.81-1.14.27-.16.5-.36 1.12-.75 0 0 .45-.08.88-.25.27-.16.5-.36 1.12-.75 0 0 .45-.08.88-.25.27-.16.5-.36 1.19-.86.46-.32.92-.65 1.81-1.14.27-.16.5-.36 1.12-.75 0 0 .45-.08.88-.25.27-.16.5-.36 1.19-.86.46-.32.92-.65 1.81-1.14.27-.16.5-.36 1.19-.86.46-.32.92-.65 1.81-1.14.27-.16.5-.36 1.19-.86.46-.32.92-.65 1.81-1.14.27-.16.5-.36 1.19-.86.46-.32.92-.65 1.81-1.14.27-.16.5-.36 1.22-.9.79-.64 1.57-1.29 2.78-2.1.27-.16.5-.36 1.22-.9a32 32 0 0 1 2.78-2.1c.27-.16.5-.36 1.22-.9.79-.64 1.57-1.29 2.78-2.1.27-.16.5-.36 1.26-.92 1.44-1.3 2.87-2.61 4.74-4.08.27-.16.5-.36 1.27-.93 2.44-2.3 4.87-4.6 7.73-7.07.27-.16.5-.36 1.27-.94 4.53-4.62 9.06-9.25 13.94-14.17.22-.22.36-.5.73-1.38 1.97-2.1 3.94-4.21 6.27-6.62.22-.22.36-.5.72-1.37 1.3-1.45 2.62-2.89 4.28-4.63.22-.22.36-.5.7-1.35.65-.78 1.3-1.57 2.3-2.65.22-.22.36-.5.7-1.35.65-.78 1.3-1.57 2.3-2.65.22-.22.36-.5.7-1.35.65-.78 1.3-1.57 2.3-2.65.22-.23.36-.5.67-1.32.32-.46.65-.92 1.33-1.68.22-.23.36-.5.67-1.32.32-.46.65-.92 1.33-1.68.22-.23.36-.5.67-1.32.32-.46.65-.92 1.33-1.68.22-.23.36-.5.67-1.32.32-.46.65-.92 1.33-1.68.22-.22.36-.5.52-1.25 0 0 .13-.45.48-.75.22-.22.36-.5.67-1.32.32-.46.65-.92 1.33-1.68.22-.22.36-.5.52-1.25 0 0 .13-.45.48-.75.22-.22.36-.5.67-1.32.32-.46.65-.92 1.33-1.68.22-.22.36-.5.52-1.25 0 0 .13-.45.48-.75.22-.22.36-.5.52-1.25 0 0 .13-.45.48-.75.22-.22.36-.5.52-1.25 0 0 .13-.45.48-.75.22-.22.36-.5.52-1.25 0 0 .13-.45.48-.75.22-.22.36-.5.52-1.25 0 0 .13-.45.48-.75.22-.22.36-.5.52-1.25 0 0 .13-.45.48-.75.22-.22.36-.5.52-1.25 0 0 .13-.45.48-.75.22-.22.36-.5.52-1.25 0 0 .13-.45.48-.75.22-.22.36-.5.52-1.25 0 0 .13-.45.48-.75.22-.22.36-.5.52-1.25 0 0 .13-.45.47-.74q.33-.35.46-.72s-.06 0 .45-.46l.62-3.08s.13-.45.48-.75c.22-.22.36-.5.52-1.25 0 0 .13-.45.47-.74q.33-.35.46-.72s-.06 0 .45-.46l.62-3.08s.13-.45.47-.74q.33-.35.46-.72s-.06 0 .45-.45q.25-1.31.55-2.55s-.06 0 .45-.45q.25-1.31.55-2.55s-.06 0 .45-.45q.25-1.31.55-2.55s-.06 0 .45-.45q.25-1.31.55-2.55s-.06 0 .45-.45q.25-1.31.55-2.55s-.06 0 .45-.45q.25-1.31.55-2.55s-.06 0 .45-.45q.25-1.31.55-2.55s-.06 0 .46-.5q.25-1.79.54-3.5s-.06 0 .46-.5q.25-1.79.54-3.5s-.06 0 .46-.5q.25-1.79.54-3.5s-.06 0 .47-.54q.25-2.26.53-4.46s-.06 0 .46-.5q.25-1.79.54-3.5s-.06 0 .48-.56q.24-2.76.52-5.44s-.06 0 .48-.56q.24-2.76.52-5.44s-.06 0 .49-.59q.23-3.74.5-7.4s-.05-.01.5-.62q.24-5.23.5-10.39s-.05 0 .51-.62c.13-11.27.43-22.55.29-33.82-.05-3.86-1.2-7.7-1.8-11.56 0 0-.02.05 0-.82q-.54-3.58-1-7.18s-.02.05 0-.76q-.54-2.63-1-5.24s-.02.05 0-.73q-.54-2.13-1-4.27s-.02.05 0-.73q-.54-2.13-1-4.27s-.02.05 0-.73q-.54-2.13-1-4.27s-.02.05 0-.69q-.54-1.65-1-3.31s-.02.05 0-.69q-.54-1.65-1-3.31s-.02.05 0-.63q-.54-1.18-1-2.37s-.02.05 0-.69q-.54-1.65-1-3.31s-.02.05 0-.63q-.54-1.18-1-2.37s-.02.05 0-.63q-.54-1.18-1-2.37s-.02.05 0-.63q-.54-1.19-1-2.37s-.02.05 0-.63q-.54-1.18-1-2.37s-.02.05 0-.63q-.54-1.19-1-2.37s0 .05-.18-.36c-.15-.27-.36-.48-.74-1.1 0 0-.09-.46-.08-1.15q-.54-1.2-1-2.4s0 .06-.18-.35c-.15-.27-.36-.48-.74-1.1 0 0-.09-.46-.08-1.15q-.54-1.2-1-2.4s0 .06-.18-.35c-.15-.27-.36-.48-.74-1.1 0 0-.08-.45-.25-.88-.16-.27-.36-.5-.75-1.12 0 0-.09-.46-.08-1.15q-.54-1.2-1-2.4s0 .06-.18-.35c-.15-.27-.36-.48-.74-1.1 0 0-.08-.45-.25-.88-.16-.27-.36-.5-.75-1.12 0 0-.08-.45-.25-.88-.16-.27-.36-.5-.75-1.12 0 0-.08-.45-.25-.88-.16-.27-.36-.5-.75-1.12 0 0-.08-.45-.25-.88-.16-.27-.36-.5-.75-1.12 0 0-.08-.45-.25-.88-.16-.27-.36-.5-.75-1.12 0 0-.08-.45-.25-.88-.16-.27-.36-.5-.75-1.12 0 0-.08-.45-.25-.88-.16-.27-.36-.5-.86-1.19-.32-.46-.65-.92-1.14-1.81-.16-.27-.36-.5-.75-1.12 0 0-.08-.45-.25-.88-.16-.27-.36-.5-.75-1.12 0 0-.08-.45-.25-.88-.16-.27-.36-.5-.86-1.19-.32-.46-.65-.92-1.14-1.81-.16-.27-.36-.5-.75-1.12 0 0-.08-.45-.25-.88-.16-.27-.36-.5-.86-1.19-.32-.46-.65-.92-1.14-1.81-.16-.27-.36-.5-.86-1.19-.32-.46-.65-.92-1.14-1.81-.16-.27-.36-.5-.86-1.19-.32-.46-.65-.92-1.14-1.81-.16-.27-.36-.5-.86-1.19-.32-.46-.65-.92-1.14-1.81-.16-.27-.36-.5-.86-1.19-.32-.46-.65-.92-1.14-1.81-.16-.27-.36-.5-.9-1.22-.64-.79-1.29-1.57-2.1-2.78-.16-.27-.36-.5-.9-1.22-.64-.79-1.29-1.57-2.1-2.78-.16-.27-.36-.5-.91-1.24a54 54 0 0 1-3.09-3.76c-.16-.27-.36-.5-.92-1.26a84 84 0 0 1-4.08-4.74c-.16-.27-.36-.5-.94-1.27-8.29-8.2-16.58-16.4-25.17-24.94a4 4 0 0 0-1.36-.7 31 31 0 0 1-3.5-4.36l-3.49-1.64c-.78-.65-1.57-1.3-2.65-2.3-.22-.22-.5-.36-1.37-.71-1.1-.98-2.22-1.96-3.63-3.29-.22-.22-.5-.36-1.32-.67-.46-.32-.92-.65-1.68-1.33-.22-.22-.5-.36-1.35-.7-.78-.65-1.57-1.3-2.65-2.3-.22-.22-.5-.36-1.32-.67-.46-.32-.92-.65-1.68-1.33-.22-.22-.5-.36-1.32-.67-.46-.32-.92-.65-1.68-1.33-.22-.22-.5-.36-1.25-.52 0 0-.45-.13-.75-.48-.22-.22-.5-.36-1.32-.67-.46-.32-.92-.65-1.68-1.33-.22-.22-.5-.36-1.32-.67-.46-.32-.92-.65-1.68-1.33-.22-.22-.5-.36-1.25-.52 0 0-.45-.13-.75-.48-.22-.22-.5-.36-1.25-.52 0 0-.45-.13-.75-.48-.22-.22-.5-.36-1.32-.67-.46-.32-.92-.65-1.68-1.33-.22-.22-.5-.36-1.25-.52 0 0-.45-.13-.75-.48-.22-.22-.5-.36-1.25-.52 0 0-.45-.13-.75-.48-.22-.22-.5-.36-1.25-.52 0 0-.45-.13-.75-.48-.22-.22-.5-.36-1.25-.52 0 0-.45-.13-.75-.48-.22-.22-.5-.36-1.25-.52 0 0-.45-.13-.75-.48-.22-.22-.5-.36-1.25-.52 0 0-.45-.13-.75-.48-.22-.22-.5-.36-1.25-.52 0 0-.45-.13-.75-.48-.22-.22-.5-.36-1.25-.52 0 0-.45-.13-.75-.48-.22-.22-.5-.36-1.25-.52 0 0-.45-.13-.75-.48-.22-.22-.5-.36-1.25-.52 0 0-.45-.13-.74-.47a2 2 0 0 0-.72-.46s0 .06-.46-.45l-3.08-.62s-.45-.13-.75-.48c-.22-.22-.5-.36-1.25-.52 0 0-.45-.13-.74-.47a2 2 0 0 0-.72-.46s0 .06-.45-.45q-1.31-.25-2.55-.55s0 .06-.46-.45l-3.08-.62s-.45-.13-.74-.47a2 2 0 0 0-.72-.46s0 .06-.45-.45q-1.31-.25-2.55-.55s0 .06-.45-.45A61 61 0 0 1 625 301s0 .06-.45-.45q-1.31-.25-2.55-.55s0 .06-.45-.45q-1.31-.25-2.55-.55s0 .06-.45-.45q-1.31-.25-2.55-.55s0 .06-.5-.46q-1.79-.25-3.5-.54s0 .06-.45-.45q-1.31-.25-2.55-.55s0 .06-.5-.46q-1.79-.25-3.5-.54s0 .06-.5-.46q-1.79-.25-3.5-.54s0 .06-.5-.46q-1.79-.25-3.5-.54s0 .06-.54-.47q-2.26-.25-4.46-.53s0 .06-.56-.48q-2.76-.24-5.44-.52s0 .06-.56-.48A314 314 0 0 1 580 290s0 .06-.57-.49q-3.25-.24-6.43-.5s0 .05-.6-.5q-4.74-.24-9.4-.5s0 .05-.62-.51q-20.34-.21-40.68-.35c-.56 0-1.13.6-1.7.85 0 0 .05.03-.85 0q-4.58.55-9.15 1s.05.03-.8 0q-3.1.55-6.2 1s.05.03-.8 0q-3.1.55-6.2 1s.05.03-.73 0q-2.13.55-4.27 1s.05.03-.73 0q-2.13.55-4.27 1s.05.03-.69 0q-1.65.55-3.31 1s.05.03-.69 0q-1.65.55-3.31 1s.05.03-.69 0q-1.65.55-3.31 1s.05.03-.69 0q-1.65.55-3.31 1s.05.03-.63.02c-.79.34-1.58.7-2.37.98 0 0 .05.03-.63.02-.79.34-1.58.7-2.37.98 0 0 .05.03-.63.02-.79.34-1.58.7-2.37.98 0 0 .05.03-.63.02-.79.34-1.58.7-2.37.98 0 0 .05.03-.63.02-.79.34-1.58.7-2.37.98 0 0 .05.03-.63.02-.79.34-1.58.7-2.37.98 0 0 .05.03-.63.02-.79.34-1.58.7-2.37.98 0 0 .05.02-.36.19-.27.15-.48.36-1.1.74 0 0-.46.09-1.15.08q-1.2.54-2.4 1s.06 0-.35.18c-.27.15-.48.36-1.1.74 0 0-.46.09-1.15.08q-1.2.54-2.4 1s.06 0-.35.18c-.27.15-.48.36-1.1.74 0 0-.45.08-.88.25-.27.16-.5.36-1.12.75 0 0-.45.08-.88.25-.27.16-.5.36-1.12.75 0 0-.46.09-1.15.08q-1.2.54-2.4 1s.06 0-.35.18c-.27.15-.48.36-1.1.74 0 0-.45.08-.88.25-.27.16-.5.36-1.12.75 0 0-.45.08-.88.25-.27.16-.5.36-1.12.75 0 0-.45.08-.88.25-.27.16-.5.36-1.12.75 0 0-.45.08-.88.25-.27.16-.5.36-1.19.86-.46.32-.92.65-1.81 1.14-.27.16-.5.36-1.12.75 0 0-.45.08-.88.25-.27.16-.5.36-1.12.75 0 0-.45.08-.88.25-.27.16-.5.36-1.12.75 0 0-.45.08-.88.25-.27.16-.5.36-1.19.86-.46.32-.92.65-1.81 1.14-.27.16-.5.36-1.12.75 0 0-.45.08-.88.25-.27.16-.5.36-1.19.86-.46.32-.92.65-1.81 1.14-.27.16-.5.36-1.19.86-.46.32-.92.65-1.81 1.14-.27.16-.5.36-1.19.86-.46.32-.92.65-1.81 1.14-.27.16-.5.36-1.19.86-.46.32-.92.65-1.81 1.14-.27.16-.5.36-1.19.86-.46.32-.92.65-1.81 1.14-.27.16-.5.36-1.19.86-.46.32-.92.65-1.81 1.14-.27.16-.5.36-1.22.9-.79.64-1.57 1.29-2.78 2.1-.27.16-.5.36-1.24.91a54 54 0 0 1-3.76 3.09c-.27.16-.5.36-1.26.92a84 84 0 0 1-4.74 4.08c-.27.16-.5.36-1.27.93a166 166 0 0 1-6.73 6.07c-.27.16-.5.36-1.27.94-4.53 4.62-9.06 9.25-13.94 14.17-.22.22-.36.5-.73 1.38-2.3 2.44-4.61 4.88-7.27 7.62-.22.22-.36.5-.71 1.37-.98 1.1-1.96 2.22-3.29 3.63-.22.22-.36.5-.71 1.37-.98 1.1-1.96 2.22-3.29 3.63-.22.22-.36.5-.7 1.35-.65.78-1.3 1.57-2.3 2.65-.22.22-.36.5-.67 1.32-.32.46-.65.92-1.33 1.68-.22.22-.36.5-.7 1.35-.65.78-1.3 1.57-2.3 2.65-.22.22-.36.5-.67 1.32-.32.46-.65.92-1.33 1.68-.22.22-.36.5-.67 1.32-.32.46-.65.92-1.33 1.68-.22.22-.36.5-.52 1.25 0 0-.13.45-.48.75-.22.22-.36.5-.67 1.32-.32.46-.65.92-1.33 1.68-.22.22-.36.5-.52 1.25 0 0-.13.45-.48.75-.22.22-.36.5-.67 1.32-.32.46-.65.92-1.33 1.68-.22.22-.36.5-.52 1.25 0 0-.13.45-.48.75-.22.22-.36.5-.52 1.25 0 0-.13.45-.48.75-.22.22-.36.5-.67 1.32-.32.46-.65.92-1.33 1.68-.22.22-.36.5-.52 1.25 0 0-.13.45-.48.75-.22.22-.36.5-.52 1.25 0 0-.13.45-.48.75-.22.22-.36.5-.52 1.25 0 0-.13.45-.48.75-.22.22-.36.5-.52 1.25 0 0-.13.45-.48.75-.22.22-.36.5-.52 1.25 0 0-.13.45-.47.74a2 2 0 0 0-.46.72"/><path fill="#30c465" d="M562.78 265.63c-8.22.35-16.71.12-25.2.43-11.58.43-23.15 1.27-35.18 1.92 2.53-.66 5.5-1.8 8.49-1.87 17.2-.41 34.42-.57 51.9-.48M262.63 521.22c.35 13.12.36 26.5.35 40.36-.32-.08-.89-.63-.89-1.17.03-12.98.13-25.95.54-39.2m286.85 296.67a756 756 0 0 1 18.97-1.86c4.55-.4 9.12-.68 14.14-1q-15.87 1.49-33.11 2.86m270.89-260.1a979 979 0 0 1-.35-32.36c.33 1.24.93 2.95.93 4.66a596 596 0 0 1-.58 27.7M494.2 814.35q10.84.77 22.5 2.43a316 316 0 0 1-22.5-2.43m23.02 3.02q8.3-.26 17.47.4-8.3.26-17.47-.4M817.35 584.8a130 130 0 0 1 1.43-14.5q-.26 6.85-1.43 14.5M479.58 271.96q-4.98 1.5-11.22 3.02 4.99-1.5 11.22-3.02m55.63 546.4c3.8-.34 7.87-.35 12.41-.35-3.73.24-7.94.46-12.4.35m-33.66-550.4q-4.93 1.01-11.17 2.02 4.92-1 11.17-2.02m317.8 301.83q-.25-5.32.42-11.48.25 5.31-.42 11.48m.68-45.25a567 567 0 0 1-1.02-11.13q.5 4.88 1.02 11.13m-17.72 116.33a60 60 0 0 1 2.46-8.64 60 60 0 0 1-2.46 8.64M489.57 269.96q-3.95 1.01-9.2 2.02 3.97-1 9.2-2.02m315.77 361.9a62 62 0 0 1 2.45-8.62 62 62 0 0 1-2.45 8.62m-542.38-69.4q.5 4.38 1.02 10.13-.5-4.38-1.02-10.13M572.8 266.64q-4.34.24-9.5-.42 4.33-.25 9.5.42M445.15 801.33q3.5.79 7.63 2.45a50 50 0 0 1-7.63-2.45m25.02 8.01q3.92.3 8.56 1.45-3.91-.28-8.56-1.45m9 2.01q3.92.28 8.56 1.44-3.91-.28-8.56-1.44M263.64 511.2q.24 4.34-.42 9.5-.25-4.33.42-9.5m17.03-69.05a50 50 0 0 1-2.45 7.63 50 50 0 0 1 2.45-7.63m374.71 351.88q2.61-1.48 6.33-3.01-2.61 1.5-6.33 3.01m163.66-281.46a156 156 0 0 1-1.02-7.19q.5 2.95 1.02 7.19M271.96 614.4q1 2.55 2.02 6.26a63 63 0 0 1-2.02-6.26m-7.32-111.2q.24 3.35-.42 7.5-.24-3.34.42-7.5M580.8 267.64q-3.35.24-7.5-.42 3.35-.24 7.5.42m-120.64 538.7q2.96.29 6.59 1.45-2.95-.29-6.6-1.45M265.65 496.2q.23 2.86-.44 6.51-.22-2.86.44-6.52m552.39 8.39q-.5-2.48-1.02-6.2.5 2.45 1.02 6.2M587.8 268.65q-2.86.23-6.51-.44 2.86-.22 6.52.44M263.96 573.42q.5 2.48 1.02 6.2a103 103 0 0 1-1.02-6.2m1 7q.5 2.48 1.02 6.2-.5-2.46-1.02-6.2m21.01 72.95a27 27 0 0 1 2.01 4.35 27 27 0 0 1-2.01-4.35M817.04 497.6a64 64 0 0 1-1.02-5.24q.5 2 1.02 5.23M583.41 815.04q2-.5 5.23-1.02-2 .5-5.23 1.02m5.99-1q2.03-.5 5.24-1.02-2 .5-5.23 1.02m-101.23-.69q2.39-.23 5.54.44-2.38.22-5.54-.44m-51.05-15.02q2.03.3 4.65 1.45-2.02-.29-4.65-1.45m-5.03-2.01q2.03.3 4.68 1.46-2.04-.3-4.67-1.46m-7.01-3q2.03.3 4.68 1.46-2.04-.3-4.67-1.46m391.24-202.5q-.23-2.39.44-5.54.21 2.38-.44 5.54m-549.39 1.58q.5 2.03 1.02 5.24a64 64 0 0 1-1.02-5.23m325.87-322.75q-1.93.21-4.56-.45 1.91-.22 4.56.45m5 1q-1.93.21-4.56-.45 1.91-.22 4.56.45M268.66 481.17q.21 1.93-.45 4.56-.22-1.91.45-4.56m546.38 5.43a37 37 0 0 1-1.02-4.26q.5 1.54 1.02 4.27m-547.38-.44q.21 1.93-.45 4.56-.22-1.91.45-4.56m-1 5q.21 1.93-.45 4.56-.22-1.91.45-4.56m549.38.43a37 37 0 0 1-1.02-4.26q.5 1.54 1.02 4.27M602.83 271.66q-1.93.21-4.56-.45 1.91-.22 4.56.45m-7.43 541.38a37 37 0 0 1 4.26-1.02 37 37 0 0 1-4.27 1.02M265.96 587.4q.5 1.55 1.02 4.26a37 37 0 0 1-1.02-4.27m549.38 8.44q-.21-1.93.45-4.56.22 1.91-.45 4.56m-1 5q-.21-1.93.45-4.56.22 1.91-.45 4.56M271.67 469.16q.19 1.45-.47 3.59-.2-1.46.47-3.6m195.95-194.19q-1.1.5-3.3 1.02 1.1-.5 3.3-1.02m342.42 191.66q-.5-1.1-1.02-3.3.5 1.1 1.02 3.3m-191.2-190.95a9 9 0 0 1-3.59-.47q1.46-.2 3.6.47M273.67 462.16q.19 1.45-.47 3.59-.2-1.46.47-3.6m538.37 11.47q-.5-1.1-1.02-3.3.5 1.1 1.02 3.3m-541.37-.46q.19 1.45-.47 3.59-.2-1.46.47-3.6m189.95-196.19q-1.1.5-3.3 1.02 1.1-.5 3.3-1.02m352.42 200.66q-.5-1.1-1.02-3.3.5 1.1 1.02 3.3m-543.37-.46q.19 1.45-.47 3.59-.2-1.46.47-3.6m544.37 4.47q-.5-1.1-1.02-3.3.5 1.1 1.02 3.3M292.22 667.27a8 8 0 0 1 1.76 2.47 8 8 0 0 1-1.76-2.47m312.16 143.77q1.1-.5 3.3-1.02-1.1.5-3.3 1.02M269.96 606.38q.5 1.1 1.02 3.3-.5-1.1-1.02-3.3m346.42 201.66q1.1-.5 3.3-1.02-1.1.5-3.3 1.02m195.95-199.2q-.19-1.45.47-3.59.2 1.46-.47 3.6M612.38 809.04q1.1-.5 3.3-1.02-1.1.5-3.3 1.02m-4 1q1.1-.5 3.3-1.02-1.1.5-3.3 1.02m6.46-535.37a9 9 0 0 1-3.59-.47q1.46-.2 3.6.47m-14.47 537.37q1.1-.5 3.3-1.02-1.1.5-3.3 1.02M268.96 602.38q.5 1.1 1.02 3.3-.5-1.1-1.02-3.3m544.37 2.46q-.19-1.45.47-3.59.2 1.46-.47 3.6M606.84 272.67a9 9 0 0 1-3.59-.47q1.46-.2 3.6.47M267.96 598.38q.5 1.1 1.02 3.3-.5-1.1-1.02-3.3m543.37 14.46q-.19-1.45.47-3.59.2 1.46-.47 3.6m-540.37-2.47q.5 1.1 1.02 3.3-.5-1.1-1.02-3.3m182.19 193.95q1.46-.18 3.6.47a9 9 0 0 1-3.6-.47m357.18-187.49q-.19-1.45.47-3.59.2 1.46-.47 3.6M610.84 273.67a9 9 0 0 1-3.59-.47q1.46-.2 3.6.47m17.02 5.01a5 5 0 0 1-2.64-.49q1.02-.16 2.64.49m-171.22-.72a8 8 0 0 1-2.36 1.02 8 8 0 0 1 2.36-1.02m168.22-.28a5 5 0 0 1-2.64-.49q1.02-.16 2.64.49m-3-1a5 5 0 0 1-2.64-.49q1.02-.16 2.64.49m-158.22-.72a8 8 0 0 1-2.36 1.02 8 8 0 0 1 2.36-1.02M277.68 450.13q.17 1.02-.49 2.64-.16-1.02.49-2.64m530.35 9.52a8 8 0 0 1-1-2.36 8 8 0 0 1 1 2.36m-532.35-3.52q.17 1.02-.49 2.64-.16-1.02.49-2.64m531.36.52a8 8 0 0 1-1.02-2.36 8 8 0 0 1 1.02 2.36m-530.36-3.52q.17 1.02-.49 2.64-.16-1.02.49-2.64m529.36.52a8 8 0 0 1-1.02-2.36 8 8 0 0 1 1.02 2.36m-531.36 5.48q.17 1.02-.49 2.64-.16-1.02.49-2.64m530.36-8.48a8 8 0 0 1-1.02-2.36 8 8 0 0 1 1.02 2.36m-1.01-3a9 9 0 0 1-1.02-2.39q.5.68 1.02 2.39m-2-5a9 9 0 0 1-1.02-2.39q.5.68 1.02 2.39M281.7 439.1q.15 1.04-.5 2.67-.16-1.03.5-2.67m529.34 30.55a8 8 0 0 1-1.02-2.36 8 8 0 0 1 1.02 2.36m-538.36-3.52q.17 1.02-.49 2.64-.16-1.02.49-2.64m536.36-3.48a8 8 0 0 1-1.02-2.36 8 8 0 0 1 1.02 2.36M442.13 800.32q1.02-.17 2.64.49-1.02.16-2.64-.49m201.22-1.29a9 9 0 0 1 2.39-1.02q-.68.5-2.39 1.02m5-2a9 9 0 0 1 2.39-1.02q-.68.5-2.39 1.02m-215.7-510.06q-.68.49-2.39 1.02a9 9 0 0 1 2.39-1.02m198.22-7.29a5 5 0 0 1-2.64-.49q1.02-.16 2.64.49m-177.22-.72a8 8 0 0 1-2.36 1.02 8 8 0 0 1 2.36-1.02m201.25 9.74a5.3 5.3 0 0 1-2.67-.5q1.03-.16 2.67.5m-231.25 2.27q-.68.49-2.39 1.02a9 9 0 0 1 2.39-1.02m214.7 510.06a9 9 0 0 1 2.39-1.02q-.68.5-2.39 1.02m-171.22 7.29q1.02-.17 2.64.49-1.02.16-2.64-.49m-16.48-528.35q-.68.49-2.39 1.02a9 9 0 0 1 2.39-1.02m183.22.71a5 5 0 0 1-2.64-.49q1.02-.16 2.64.49m3 1a5 5 0 0 1-2.64-.49q1.02-.16 2.64.49m-191.22.28a8 8 0 0 1-2.36 1.02 8 8 0 0 1 2.36-1.02m194.22.72a5 5 0 0 1-2.64-.49q1.02-.16 2.64.49m-197.22.29q-.68.49-2.39 1.02a9 9 0 0 1 2.39-1.02m200.25.73a5.3 5.3 0 0 1-2.67-.5q1.03-.16 2.67.5m-205.25 1.27q-.68.49-2.39 1.02a9 9 0 0 1 2.39-1.02m182.7 522.07a8 8 0 0 1 2.36-1.02 8 8 0 0 1-2.36 1.02M647.9 285.7a5.3 5.3 0 0 1-2.67-.5q1.03-.16 2.67.5m-24.55 520.34a8 8 0 0 1 2.36-1.02 8 8 0 0 1-2.36 1.02m-166.22-.72q1.02-.17 2.64.49-1.02.16-2.64-.49m169.22-.28a8 8 0 0 1 2.36-1.02 8 8 0 0 1-2.36 1.02m3-1a8 8 0 0 1 2.36-1.02 8 8 0 0 1-2.36 1.02m3-1a8 8 0 0 1 2.36-1.02 8 8 0 0 1-2.36 1.02m3-1a8 8 0 0 1 2.36-1.02 8 8 0 0 1-2.36 1.02M273.96 621.35a8 8 0 0 1 1.02 2.36 8 8 0 0 1-1.02-2.36m3 9a8 8 0 0 1 1.02 2.36 8 8 0 0 1-1.02-2.36m-1-3a8 8 0 0 1 1.02 2.36 8 8 0 0 1-1.02-2.36m-1-3a8 8 0 0 1 1.02 2.36 8 8 0 0 1-1.02-2.36m534.36-4.48q-.17-1.02.49-2.64.16 1.02-.49 2.64m-1 3q-.17-1.02.49-2.64.16 1.02-.49 2.64m-525.35 23.48q.49.68 1.02 2.39a9 9 0 0 1-1.02-2.39m514.33 6.55q-.15-1.04.5-2.67.16 1.03-.5 2.67M665.9 293.7a5.3 5.3 0 0 1-2.67-.5q1.03-.16 2.67.5m134.4 352.2q-.15-1.04.5-2.67.16 1.03-.5 2.67m-519.33-4.55q.49.68 1.02 2.39a9 9 0 0 1-1.02-2.39m-2-5q.49.68 1.02 2.39a9 9 0 0 1-1.02-2.39m-1.01-3a8 8 0 0 1 1.02 2.36 8 8 0 0 1-1.02-2.36M288.7 423.1q.15 1.04-.5 2.67-.16-1.03.5-2.67m-4 9q.15 1.04-.5 2.67-.16-1.03.5-2.67m515.33 5.55a9 9 0 0 1-1.02-2.39q.5.68 1.02 2.39m-3-7a9 9 0 0 1-1.02-2.39q.5.68 1.02 2.39m-419.02 335.6q.29-.23.85.38c-.15.06-.45-.04-.85-.38m330.24-2.45q-.11-.37.62-.7c.02.18-.17.44-.62.7m-333.24.45q.29-.23.85.38-.24.11-.85-.38m-4-3q.29-.23.85.38-.24.11-.85-.38m341.24-.45q-.11-.37.62-.7c.02.18-.17.44-.62.7m-346.24-3.55q.29-.23.85.38-.24.11-.85-.38m351.24-.45q-.11-.37.62-.7c.02.18-.17.44-.62.7m-356.24-3.55q.29-.23.85.38-.24.11-.85-.38m337.24 17.55q-.11-.37.62-.7c.02.18-.17.44-.62.7m-6 4q-.11-.37.62-.7c.02.18-.17.44-.62.7m-331.5-444.6q.12.37-.62.7-.04-.29.62-.7m29.26 444.05q.29-.23.85.38-.24.11-.85-.38m305.24-1.45q-.11-.37.62-.7c.02.18-.17.44-.62.7m-308.24-.55q.29-.23.85.38c-.15.06-.45-.04-.85-.38m-2-1q.29-.23.85.38c-.15.06-.45-.04-.85-.38m-3-2q.29-.23.85.38-.24.11-.85-.38m319.24-.45q-.11-.37.62-.7c.02.18-.17.44-.62.7m-347.24-21.55q.29-.23.85.38-.24.11-.85-.38m350.24 19.55q-.11-.37.62-.7c.02.18-.17.44-.62.7m71-73.81q-.23-.29.38-.85.11.24-.38.85m-9 13q-.23-.29.38-.85c.06.15-.04.45-.38.85m-451.05-1.74q.37-.12.7.62-.29.04-.7-.62m454.05-2.26q-.23-.29.38-.85.11.24-.38.85m-457.05-1.74q.37-.12.7.62-.29.04-.7-.62m459.05-1.26q-.23-.29.38-.85.11.24-.38.85m-461.05-1.74q.37-.12.7.62-.29.04-.7-.62m463.05-1.26q-.23-.29.38-.85.11.24-.38.85m-465.05-1.74q.37-.12.7.62-.29.04-.7-.62m9 13q.37-.12.7.62-.29.04-.7-.62m-11-16q.37-.12.7.62-.29.04-.7-.62m471.05-1.26q-.23-.29.38-.85.11.24-.38.85m-473.05-1.74q.37-.12.7.62-.29.04-.7-.62m475.05-1.26q-.23-.29.38-.85.11.24-.38.85m-477.05-1.74q.37-.12.7.62c-.18.02-.44-.17-.7-.62m478.05-.26q-.23-.29.38-.85.11.24-.38.85m-385.24 92.26q.29-.23.85.38-.24.11-.85-.38m335.24-31.45q-.11-.37.62-.7c.02.18-.17.44-.62.7m-8 7q-.11-.37.62-.7c.02.18-.17.44-.62.7m27-25.81q-.23-.29.38-.85.11.24-.38.85m-418.05-2.74q.37-.12.7.62-.29.04-.7-.62m424.05-4.26q-.23-.29.38-.85c.06.15-.04.45-.38.85m-430.05-2.74q.37-.12.7.62-.29.04-.7-.62m435.05-3.26q-.23-.29.38-.85.11.24-.38.85m-439.05-1.74q.37-.12.7.62-.29.04-.7-.62m442.05-2.26q-.23-.29.38-.85.11.24-.38.85m-60.26-394.24q-.29.23-.85-.38.24-.11.85.38m-53-29q-.29.23-.85-.38.24-.11.85.38m-2.75 511.05q-.11-.36.6-.7c.03.18-.16.45-.6.7m52.75-484.05q-.29.23-.85-.38.24-.11.85.38m-318.24.45q.12.37-.62.7-.04-.29.62-.7m270.5 481.6q-.12-.37.62-.7c.02.18-.17.44-.62.7m-222.21-.55c.2-.16.46 0 .82.38.15.17-.35.18-.35.18s-.38-.33-.47-.56m224.2-.45q-.11-.36.6-.7c.03.18-.16.45-.6.7m-2.28-507.05c-.2.16-.46 0-.82-.38q.36-.45.82.38m-223.21.45q.12.37-.62.7-.04-.29.62-.7m-2 1q.12.37-.62.7-.04-.29.62-.7m230.24.55q-.29.23-.85-.38.24-.11.85.38m-233.98 502.5q.29-.23.85.38c-.15.06-.45-.04-.85-.38m1.75-502.05q.11.36-.6.7c-.03-.18.16-.45.6-.7m234.23.55q-.29.23-.85-.38.24-.11.85.38m-237.98 500.5q.29-.23.85.38-.24.11-.85-.38m242.24-.45q-.11-.37.62-.7c.02.18-.17.44-.62.7m-285.5-473.6q.12.37-.62.7-.04-.29.62-.7m41.26 473.05q.29-.23.85.38-.24.11-.85-.38M395.75 305.2q.12.37-.62.7-.04-.29.62-.7m51.01-24q.11.36-.6.7c-.03-.18.16-.45.6-.7m242.23 25.55q-.29.23-.85-.38.24-.11.85.38m-296.24.45q.12.37-.62.7c-.02-.18.17-.44.62-.7m46.01-23q.11.36-.6.7c-.03-.18.16-.45.6-.7m206.2.55c-.2.16-.46 0-.82-.38q.36-.45.82.38m46.03 23q-.29.23-.85-.38.24-.11.85.38m-301.24 1.45q.12.37-.62.7c-.02-.18.17-.44.62-.7m275.5 480.6q-.11-.37.62-.7c.02.18-.17.44-.62.7m28.74-480.05q-.29.23-.85-.38.24-.11.85.38m-306.24.45q.12.37-.62.7-.04-.29.62-.7m309.24 1.55q-.29.23-.85-.38.24-.11.85.38m-312.24.45q.12.37-.62.7-.04-.29.62-.7m49.01-26q.11.36-.6.7c-.03-.18.16-.45.6-.7m208.48 513.6q-.11-.36.6-.7c.03.18-.16.45-.6.7m-237.23-16.55q.29-.23.85.38-.24.12-.85-.38m308.98-459.5q-.29.23-.85-.38.24-.11.85.38m-310.98 458.5q.29-.23.85.38-.24.12-.85-.38m277.24-.45q-.11-.37.62-.7c.02.18-.17.44-.62.7m2-1q-.11-.37.62-.7c.02.18-.17.44-.62.7m-316.5-454.6q.12.37-.62.7-.04-.29.62-.7m34.26 454.05q.29-.23.85.38c-.15.06-.45-.04-.85-.38m284.24-.45q-.11-.37.62-.7c.02.18-.17.44-.62.7m-286.24-.55q.29-.23.85.38-.24.11-.85-.38m289.24-1.45q-.11-.37.62-.7c.02.18-.17.44-.62.7m31.74-450.05q-.29.23-.85-.38.24-.11.85.38m-325.98 448.5q.29-.23.85.38-.24.11-.85-.38m297.24-.45q-.11-.37.62-.7c.02.18-.17.44-.62.7m-29.26-484.05q-.29.23-.85-.38.24-.11.85.38m45 26q-.29.23-.85-.38.24-.11.85.38m-288.98 471.5q.29-.23.85.38-.24.11-.85-.38m250.24-.45q-.11-.37.62-.7c.02.18-.17.44-.62.7m-252.24-.55q.29-.23.85.38c-.15.06-.45-.04-.85-.38m254.24-.45q-.11-.37.62-.7c.02.18-.17.44-.62.7m-294.5-468.6q.12.37-.62.7-.04-.29.62-.7m38.26 468.05q.29-.23.85.38-.24.11-.85-.38m258.24-.45q-.11-.37.62-.7c.02.18-.17.44-.62.7m-260.24-.55q.29-.23.85.38-.24.11-.85-.38m262.24-.45q-.11-.37.62-.7c.02.18-.17.44-.62.7m36.74-465.05q-.29.23-.85-.38.24-.11.85.38m-300.98 464.5q.29-.23.85.38-.24.11-.85-.38m266.24-.45q-.11-.37.62-.7c.02.18-.17.44-.62.7m-304.5-462.6q.12.37-.62.7-.04-.29.62-.7m36.26 462.05q.29-.23.85.38-.24.11-.85-.38m270.24-.45q-.11-.37.62-.7c.02.18-.17.44-.62.7m-270.5-484.6q.12.37-.62.7-.04-.29.62-.7M782.8 401.75q-.37.12-.7-.62c.18-.02.44.17.7.62m-109.81-104q-.29.23-.85-.38.24-.11.85.38m110.81 106q-.37.12-.7-.62c.18-.02.44.17.7.62m-485.05.26q.23.29-.38.85-.11-.24.38-.85m486.05 1.74q-.37.12-.7-.62c.18-.02.44.17.7.62m-487.05.26q.23.29-.38.85-.11-.24.38-.85m-1 2q.23.29-.38.85-.11-.24.38-.85m378.24-109.26q-.29.23-.85-.38.24-.11.85.38m-265.24-1.55q.12.37-.62.7c-.02-.18.17-.44.62-.7M786.8 408.75q-.37.12-.7-.62c.18-.02.44.17.7.62m-491.05 1.26q.23.29-.38.85-.11-.24.38-.85m381.24-110.26q-.29.23-.85-.38.24-.11.85.38m-272.24.45q.12.37-.62.7c-.02-.18.17-.44.62-.7M787.8 410.75q-.37.12-.7-.62c.18-.02.44.17.7.62m-108.81-110q-.29.23-.85-.38.24-.11.85.38m-276.24.45q.12.37-.62.7c-.02-.18.17-.44.62-.7m-108 110.81q.23.29-.38.85-.11-.24.38-.85m386.24-110.26q-.29.23-.85-.38.24-.11.85.38m-280.24.45q.12.37-.62.7-.04-.29.62-.7m15-8q.12.37-.62.7c-.02-.18.17-.44.62-.7m358.05 93.55q-.37.12-.7-.62c.18-.02.44.17.7.62m-465.05.26q.23.29-.38.85-.11-.24.38-.85m467.05 2.74q-.37.12-.7-.62c.18-.02.44.17.7.62m-469.05.26q.23.29-.38.85-.11-.24.38-.85m111-97.81q.12.37-.62.7c-.02-.18.17-.44.62-.7m-112 99.81q.23.29-.38.85-.11-.24.38-.85m472.05.74q-.37.12-.7-.62c.18-.02.44.17.7.62m-474.05 2.26q.23.29-.38.85-.11-.24.38-.85m485.05 16.74q-.37.12-.7-.62c.18-.02.44.17.7.62m-9-16q-.37.12-.7-.62c.18-.02.44.17.7.62m-111.81-102q-.29.23-.85-.38.24-.11.85.38m-254.24.45q.12.37-.62.7c-.02-.18.17-.44.62-.7M780.8 398.75q-.37.12-.7-.62c.18-.02.44.17.7.62m-479.05.26q.23.29-.38.85-.11-.24.38-.85m368.24-103.26q-.29.23-.85-.38.24-.11.85.38m-258.24.45q.12.37-.62.7c-.02-.18.17-.44.62-.7m-111 104.81q.23.29-.38.85-.11-.24.38-.85m-14 27q.23.29-.38.85-.11-.24.38-.85m-1 2q.23.29-.38.85-.11-.24.38-.85m512.05 1.75q-.36.11-.7-.6c.18-.03.45.16.7.6m1 1.99q-.37.12-.7-.62c.18-.02.44.17.7.62m-3-7q-.37.12-.7-.62c.18-.02.44.17.7.62m-512.05 8.29c.16.2 0 .46-.38.82q-.45-.36.38-.82m519.05 8.72q-.36.11-.7-.6c.18-.03.45.16.7.6m-520.05-6.75q.23.29-.38.85-.11-.24.38-.85m518.05 1.75q-.36.11-.7-.6c.18-.03.45.16.7.6m-510.05-19.75q.23.29-.38.85-.11-.24.38-.85m499.05-4.26q-.37.12-.7-.62c.18-.02.44.17.7.62m-105.81-111q-.29.23-.85-.38.24-.11.85.38m-286.24.45q.12.37-.62.7-.04-.29.62-.7m-105 110.81q.23.29-.38.85-.11-.24.38-.85m498.05 1.74q-.37.12-.7-.62c.18-.02.44.17.7.62m-499.05.26q.23.29-.38.85-.11-.24.38-.85m500.05 1.74q-.37.12-.7-.62c.18-.02.44.17.7.62m-481.05-33.74q.23.29-.38.85-.12-.24.38-.85m482.05 35.74q-.37.12-.7-.62c.18-.02.44.17.7.62m-503.05.26q.23.29-.38.85-.11-.24.38-.85m504.05 1.74q-.37.12-.7-.62c.18-.02.44.17.7.62m1 2q-.37.12-.7-.62c.18-.02.44.17.7.62m-507.05 1.29c.16.2 0 .46-.38.82q-.45-.36.38-.82m506.5 232.95q-.23-.29.38-.85.11.24-.38.85m-503.05 6.26q.37-.11.7.62-.29.04-.7-.62m500.05-.26q-.23-.29.38-.85.11.24-.38.85m-501.05-1.74q.37-.12.7.62c-.18.02-.44-.17-.7-.62m502.05-.26q-.23-.29.38-.85.11.24-.38.85m-503.05-1.74q.37-.12.7.62-.29.04-.7-.62m504.05-.26q-.23-.29.38-.85.11.24-.38.85m-505.05-1.74q.37-.12.7.62c-.18.02-.44-.17-.7-.62m507.05-2.26q-.23-.29.38-.85.11.24-.38.85m1-2q-.23-.29.38-.85.11.24-.38.85M419.75 292.2q.12.37-.62.7c-.02-.18.17-.44.62-.7M285.2 652.24q.36-.11.7.6c-.18.03-.45-.16-.7-.6m497.05 29.75q-.23-.29.38-.85c.06.15-.04.45-.38.85m-483.05-1.74q.37-.12.7.62-.29.04-.7-.62m484.05-.26q-.23-.29.38-.85.11.24-.38.85m-485.05-1.74q.37-.12.7.62-.29.04-.7-.62m487.05-1.26q-.23-.29.38-.85.11.24-.38.85m-488.05-.74q.37-.12.7.62-.29.04-.7-.62m489.05-1.26q-.23-.29.38-.85.11.24-.38.85m-491.05-1.74q.37-.12.7.62-.29.04-.7-.62m492.05-.26q-.23-.29.38-.85.11.24-.38.85m-493.05-1.74q.37-.12.7.62c-.18.02-.44-.17-.7-.62m494.05-.26q-.23-.29.38-.85.11.24-.38.85m1-2q-.23-.29.38-.85.11.24-.38.85m1-2q-.23-.29.38-.85c.06.15-.04.45-.38.85M685.99 304.75q-.29.23-.85-.38.24-.11.85.38m60.81 49q-.37.12-.7-.62c.18-.02.44.17.7.62m-413.05 2.26q.23.29-.38.85-.11-.24.38-.85m421.05 6.74q-.37.12-.7-.62c.18-.02.44.17.7.62m-428.05 1.26q.23.29-.38.85-.11-.24.38-.85m433.05 4.74q-.37.12-.7-.62c.18-.02.44.17.7.62m-437.05.26q.23.29-.38.85-.11-.24.38-.85m411.24-28.26q-.29.23-.85-.38.24-.11.85.38m29.81 33q-.37.12-.7-.62c.18-.02.44.17.7.62m-445.05.26q.23.29-.38.85-.11-.24.38-.85m448.05 3.74q-.37.12-.7-.62c.18-.02.44.17.7.62m-451.05.26q.23.29-.38.85-.11-.24.38-.85m347.21-85.26c-.2.16-.46 0-.82-.38q.36-.45.82.38m105.84 88q-.37.12-.7-.62c.18-.02.44.17.7.62m-455.05.26q.23.29-.38.85-.11-.24.38-.85m458.05 3.74q-.37.12-.7-.62c.18-.02.44.17.7.62m-46.81-52q-.29.23-.85-.38.24-.11.85.38M284.2 650.25q.37-.12.7.62-.29.04-.7-.62m514.05-.29c-.16-.2 0-.46.38-.82q.45.36-.38.82m1-1.97q-.23-.29.38-.85.11.24-.38.85m-517.05-2.75q.36-.11.7.6c-.18.03-.45-.16-.7-.6m519.05-2.28c-.16-.2 0-.46.38-.82q.45.36-.38.82M301.2 683.25q.37-.12.7.62c-.18.02-.44-.17-.7-.62m-21-43.01q.36-.11.7.6c-.18.03-.45-.16-.7-.6m72.55-303.04q.12.37-.62.7c-.02-.18.17-.44.62-.7"/><path fill="#272727" d="M679.91 755.99c-.46.32-.92.65-1.9 1.09-.7.38-.9.64-1.1.9 0 0-.45.1-.93.15a2.4 2.4 0 0 0-1.07.86c-.46.32-.92.65-1.9 1.09-.7.38-.9.64-1.1.9 0 0-.45.1-.93.15a2.4 2.4 0 0 0-1.07.86s-.45.08-.93.14a2.4 2.4 0 0 0-1.07.86c-.46.32-.92.65-1.9 1.09-.7.38-.9.64-1.1.9 0 0-.45.1-.93.15-.68.33-.87.6-1.07.86 0 0-.45.08-.93.14-.68.33-.87.6-1.07.86 0 0-.45.08-.93.14a2.4 2.4 0 0 0-1.07.86s-.45.08-.93.14a2.4 2.4 0 0 0-1.07.86s-.45.08-.93.14c-.68.33-.87.6-1.07.86 0 0-.45.08-.93.14-.68.33-.87.6-1.07.86 0 0-.45.08-.93.14a2.4 2.4 0 0 0-1.07.86s-.45.08-.93.14a2.4 2.4 0 0 0-1.07.86s-.45.08-.93.14c-.66.32-.85.59-1.03.85 0 0 .05.02-.3.01-1.14.33-1.94.66-2.73 1 0 0-.46.08-.94.14-.68.33-.87.6-1.07.86 0 0-.45.08-.93.14-.66.32-.85.59-1.03.85 0 0 .05.02-.3.01-1.14.33-1.94.66-2.73 1 0 0-.46.08-.94.14-.66.32-.85.59-1.03.85 0 0 .05.02-.3.01-1.13.33-1.91.65-2.7.98 0 0 .05.03-.3.02-1.13.33-1.91.65-2.7.98 0 0 .05.03-.3.02-1.13.33-1.91.65-2.7.98 0 0 .05.03-.3.02-1.13.33-1.91.65-2.7.98 0 0 .05.03-.3.02-1.13.33-1.91.65-2.7.98 0 0 .05.03-.3.02-1.13.33-1.91.65-2.7.98 0 0 .05.03-.3.02-1.13.33-1.91.65-2.7.98 0 0 .05.03-.32.02-1.48.32-2.58.65-3.68.98 0 0 .05.03-.3.02-1.13.33-1.91.65-2.7.98 0 0 .05.03-.32.02-1.48.32-2.58.65-3.68.98 0 0 .05.03-.34.02-1.82.32-3.24.65-4.66.98 0 0 .05.03-.32.02-1.48.32-2.58.65-3.68.98 0 0 .05.03-.34.02-1.82.32-3.24.65-4.66.98 0 0 .05.03-.36.02-2.15.32-3.9.65-5.64.98 0 0 .05.03-.37.02-2.5.32-4.56.65-6.63.98 0 0 .05.03-.38.02-2.83.32-5.22.65-7.62.98 0 0 .05.03-.41.02-4.84.32-9.22.65-13.59.98 0 0 .05.03-.42.02l-25.53-.05s0 .06-.24-.29c-4.41-.47-8.58-.59-12.76-.7 0 0 0 .05-.22-.3a64 64 0 0 0-7.78-.7s0 .05-.22-.29c-2.4-.46-4.59-.6-6.78-.72 0 0 0 .06-.21-.28-2.07-.46-3.93-.59-5.79-.72 0 0 0 .06-.2-.27-1.73-.46-3.26-.6-4.8-.73 0 0 0 .06-.2-.27-1.73-.46-3.26-.6-4.8-.73 0 0 0 .06-.18-.26-1.4-.46-2.6-.6-3.81-.74 0 0-.01.06-.2-.26-1.38-.46-2.6-.6-3.8-.74 0 0-.01.06-.2-.26-1.38-.46-2.6-.6-3.8-.74 0 0-.01.06-.17-.25a11 11 0 0 0-2.83-.75s-.01.06-.17-.25a11 11 0 0 0-2.83-.75s-.01.06-.2-.26c-1.38-.46-2.6-.6-3.8-.74 0 0-.01.06-.17-.25-1.04-.45-1.94-.6-2.83-.75 0 0-.01.06-.17-.25-1.04-.45-1.94-.6-2.83-.75 0 0-.01.06-.07-.18a2 2 0 0 0-.95-.56s-.45-.13-.86-.47a16 16 0 0 0-3.12-.79s-.01.06-.17-.25c-1.04-.45-1.94-.6-2.83-.75 0 0-.01.06-.07-.18a2 2 0 0 0-.95-.56s-.45-.13-.86-.47a16 16 0 0 0-3.12-.79s-.01.06-.07-.18a2 2 0 0 0-.95-.56s-.45-.13-.86-.47a16 16 0 0 0-3.12-.79s-.01.06-.07-.18a2 2 0 0 0-.95-.56s-.45-.13-.78-.4c-.62-.39-.92-.5-1.22-.6 0 0-.45-.13-.78-.4-.62-.39-.92-.5-1.22-.6 0 0-.45-.13-.78-.4a6 6 0 0 0-1.22-.6s-.45-.13-.78-.4c-.62-.39-.92-.5-1.22-.6 0 0-.45-.13-.78-.4a6 6 0 0 0-1.22-.6s-.45-.13-.78-.4c-.62-.39-.92-.5-1.22-.6 0 0-.45-.13-.78-.4-.62-.39-.92-.5-1.22-.6 0 0-.45-.13-.78-.4-.62-.39-.92-.5-1.22-.6 0 0-.45-.13-.78-.4-.62-.39-.92-.5-1.22-.6 0 0-.45-.13-.78-.4a6 6 0 0 0-1.22-.6s-.45-.13-.78-.4c-.62-.39-.92-.5-1.22-.6 0 0-.45-.13-.78-.4a6 6 0 0 0-1.22-.6c-.46-.33-.92-.66-1.74-1.33a5 5 0 0 0-1.26-.67s-.45-.13-.78-.4c-.62-.39-.92-.5-1.22-.6-.46-.33-.92-.66-1.74-1.33a4 4 0 0 0-1.26-.67c-.46-.33-.92-.66-1.74-1.33a4 4 0 0 0-1.26-.67s-.45-.13-.78-.4c-.62-.39-.92-.5-1.22-.6-.46-.33-.92-.66-1.74-1.33a4 4 0 0 0-1.26-.67c-.78-.65-1.57-1.3-2.73-2.31a5 5 0 0 0-1.27-.7 25 25 0 0 1-1.74-1.32 5 5 0 0 0-1.26-.67c-.78-.65-1.57-1.3-2.73-2.31-.67-.48-.97-.59-1.27-.7-.78-.64-1.57-1.3-2.73-2.3-.67-.48-.97-.59-1.27-.7l-3.72-3.3a5 5 0 0 0-1.28-.7l-5.71-5.3c-.7-.48-1-.59-1.29-.7a1125 1125 0 0 1-22.03-22.13c-.42-.76-.68-.95-.95-1.15a56 56 0 0 1-4.05-4.86c-.42-.75-.68-.94-.95-1.14-1.3-1.44-2.6-2.87-4.05-4.86a3 3 0 0 0-.95-1.14c-.64-.78-1.29-1.56-2.07-2.88-.4-.73-.66-.92-.93-1.12-.64-.78-1.29-1.56-2.07-2.88-.4-.73-.66-.92-.93-1.12-.32-.46-.65-.92-1.09-1.9-.38-.7-.64-.9-.9-1.1-.33-.46-.66-.92-1.1-1.9-.38-.7-.64-.9-.9-1.1-.33-.46-.66-.92-1.1-1.9-.38-.7-.64-.9-.9-1.1-.33-.46-.66-.92-1.1-1.9-.38-.7-.64-.9-.9-1.1-.33-.46-.66-.92-1.1-1.9-.38-.7-.64-.9-.9-1.1 0 0-.1-.45-.15-.93a2.4 2.4 0 0 0-.86-1.07c-.32-.46-.65-.92-1.09-1.9-.38-.7-.64-.9-.9-1.1 0 0-.1-.45-.15-.93-.33-.68-.6-.87-.86-1.07 0 0-.08-.45-.14-.93a2.4 2.4 0 0 0-.86-1.07c-.32-.46-.65-.92-1.09-1.9-.38-.7-.64-.9-.9-1.1 0 0-.1-.45-.15-.93a2.4 2.4 0 0 0-.86-1.07s-.08-.45-.14-.93c-.33-.68-.6-.87-.86-1.07 0 0-.08-.45-.14-.93-.33-.68-.6-.87-.86-1.07 0 0-.08-.45-.14-.93a2.4 2.4 0 0 0-.86-1.07s-.08-.45-.14-.93c-.33-.68-.6-.87-.86-1.07 0 0-.08-.45-.14-.93-.33-.68-.6-.87-.86-1.07 0 0-.08-.45-.14-.93-.33-.68-.6-.87-.86-1.07 0 0-.08-.45-.14-.93a2.2 2.2 0 0 0-.85-1.03s-.02.05-.01-.3a22 22 0 0 0-1-2.73s-.08-.46-.14-.94a2.4 2.4 0 0 0-.86-1.07s-.08-.45-.14-.93a2.2 2.2 0 0 0-.85-1.03s-.02.05-.01-.3a23 23 0 0 0-1-2.73s-.08-.46-.14-.94a2.2 2.2 0 0 0-.85-1.03s-.02.05-.01-.3a22 22 0 0 0-.98-2.7s-.03.05-.02-.3a24 24 0 0 0-.98-2.7s-.03.05-.02-.3a22 22 0 0 0-.98-2.7s-.03.05-.02-.3a22 22 0 0 0-.98-2.7s-.03.05-.02-.3a22 22 0 0 0-.98-2.7s-.03.05-.02-.3a24 24 0 0 0-.98-2.7s-.03.05-.02-.3a22 22 0 0 0-.98-2.7s-.03.05-.02-.32c-.32-1.48-.65-2.58-.98-3.68 0 0-.03.05-.02-.34-.66-2.48-1.32-4.57-1.98-6.66 0 0-.03.05-.02-.34-.32-1.82-.65-3.24-.98-4.66 0 0-.03.05-.02-.32a47 47 0 0 0-.98-3.68s-.03.05-.02-.36c-.32-2.15-.65-3.9-.98-5.64 0 0-.03.05-.02-.36-.32-2.15-.65-3.9-.98-5.64 0 0-.03.05-.02-.37-.32-2.5-.65-4.56-.98-6.63 0 0-.03.05-.02-.39-.32-3.16-.65-5.89-.98-8.6 0 0-.03.04-.02-.43-.32-7.17-.65-13.88-.98-20.58 0 0-.03.05-.02-.33l.05-2.61s-.06-.01.3-.25c.46-7.08.58-13.92.7-20.76 0 0-.06 0 .28-.23.47-3.07.6-5.92.72-8.77 0 0-.06 0 .28-.22.46-2.4.6-4.59.72-6.78 0 0-.06 0 .28-.21.46-2.07.59-3.93.72-5.79 0 0-.06 0 .27-.2.46-1.73.6-3.26.73-4.8 0 0-.06 0 .27-.2.46-1.73.6-3.26.73-4.8 0 0-.06 0 .26-.18.46-1.4.6-2.6.74-3.81 0 0-.06-.01.26-.2.46-1.38.6-2.6.74-3.8 0 0-.06-.01.26-.2.46-1.38.6-2.6.74-3.8 0 0-.06-.01.26-.2.46-1.38.6-2.6.74-3.8 0 0-.06-.01.25-.17.45-1.04.6-1.94.75-2.83 0 0-.06-.01.25-.17.45-1.04.6-1.94.75-2.83 0 0-.06-.01.25-.17.45-1.04.6-1.94.75-2.83 0 0-.06-.01.25-.17.45-1.04.6-1.94.75-2.83 0 0-.06-.01.25-.17.45-1.04.6-1.94.75-2.83 0 0-.06-.01.25-.17.45-1.04.6-1.94.75-2.83 0 0-.06-.01.18-.07.35-.36.46-.66.56-.95 0 0 .13-.45.47-.86.48-1.32.64-2.22.79-3.12 0 0-.06-.01.18-.07.35-.36.46-.66.56-.95 0 0 .13-.45.47-.86.48-1.32.64-2.22.79-3.12 0 0-.06-.01.18-.07.35-.36.46-.66.56-.95 0 0 .13-.45.4-.78.39-.62.5-.92.6-1.22 0 0 .13-.45.4-.78.39-.62.5-.92.6-1.22 0 0 .13-.45.47-.86.48-1.32.64-2.22.79-3.12 0 0-.06-.01.18-.07.35-.36.46-.66.56-.95 0 0 .13-.45.4-.78.39-.62.5-.92.6-1.22 0 0 .13-.45.4-.78.39-.62.5-.92.6-1.22 0 0 .13-.45.4-.78.39-.62.5-.92.6-1.22 0 0 .13-.45.4-.78.39-.62.5-.92.6-1.22 0 0 .13-.45.4-.78.39-.62.5-.92.6-1.22.33-.46.66-.92 1.33-1.74.46-.66.57-.96.67-1.26 0 0 .13-.45.4-.78.39-.62.5-.92.6-1.22 0 0 .13-.45.4-.78.39-.62.5-.92.6-1.22.33-.46.66-.92 1.33-1.74.46-.66.57-.96.67-1.26 0 0 .13-.45.4-.78.39-.62.5-.92.6-1.22.33-.46.66-.92 1.33-1.74.46-.66.57-.96.67-1.26 0 0 .13-.45.4-.78.39-.62.5-.92.6-1.22.33-.46.66-.92 1.33-1.74.46-.66.57-.96.67-1.26.33-.46.66-.92 1.33-1.74.46-.66.57-.96.67-1.26.65-.78 1.3-1.57 2.31-2.73.48-.67.59-.97.7-1.27.32-.46.65-.92 1.32-1.74.46-.66.57-.96.67-1.26.65-.78 1.3-1.57 2.31-2.73.48-.67.59-.97.7-1.27l3.3-3.72c.48-.68.59-.98.7-1.28l3.3-3.72c.48-.68.59-.98.7-1.28 2.3-2.44 4.6-4.88 7.3-7.71.48-.7.59-1 .7-1.29 4.52-4.62 9.05-9.25 14.13-14.03.76-.42.95-.68 1.15-.95 2.1-1.96 4.2-3.93 6.85-6.05.76-.42.95-.68 1.15-.95 1.44-1.3 2.87-2.6 4.86-4.05.75-.42.94-.68 1.14-.95a36 36 0 0 1 3.87-3.06c.74-.4.93-.67 1.13-.94.78-.64 1.56-1.29 2.88-2.07.73-.4.92-.66 1.12-.93.46-.32.92-.65 1.9-1.09.7-.38.9-.64 1.1-.9.46-.33.92-.66 1.9-1.1.7-.38.9-.64 1.1-.9.46-.33.92-.66 1.9-1.1.7-.38.9-.64 1.1-.9.46-.33.92-.66 1.9-1.1.7-.38.9-.64 1.1-.9.46-.33.92-.66 1.9-1.1.7-.38.9-.64 1.1-.9.46-.33.92-.66 1.9-1.1.7-.38.9-.64 1.1-.9 0 0 .45-.1.93-.15a2.4 2.4 0 0 0 1.07-.86c.46-.32.92-.65 1.9-1.09.7-.38.9-.64 1.1-.9 0 0 .45-.1.93-.15a2.4 2.4 0 0 0 1.07-.86s.45-.08.93-.14c.68-.33.87-.6 1.07-.86 0 0 .45-.08.93-.14.68-.33.87-.6 1.07-.86.46-.32.92-.65 1.9-1.09.7-.38.9-.64 1.1-.9 0 0 .45-.1.93-.15a2.4 2.4 0 0 0 1.07-.86s.45-.08.93-.14c.68-.33.87-.6 1.07-.86 0 0 .45-.08.93-.14.68-.33.87-.6 1.07-.86 0 0 .45-.08.93-.14.66-.32.85-.59 1.03-.85 0 0-.05-.02.3-.01 1.14-.33 1.94-.66 2.73-1 0 0 .46-.08.94-.14.68-.33.87-.6 1.07-.86 0 0 .45-.08.93-.14.68-.33.87-.6 1.07-.86 0 0 .45-.08.93-.14.66-.32.85-.59 1.03-.85 0 0-.05-.02.3-.01 1.14-.33 1.94-.66 2.73-1 0 0 .46-.08.94-.14.66-.32.85-.59 1.03-.85 0 0-.05-.02.3-.01 1.14-.33 1.94-.66 2.73-1 0 0 .46-.08.94-.14.66-.32.85-.59 1.03-.85 0 0-.05-.02.3-.01 1.13-.33 1.91-.65 2.7-.98 0 0-.05-.03.3-.02 1.13-.33 1.91-.65 2.7-.98 0 0-.05-.03.3-.02 1.13-.33 1.91-.65 2.7-.98 0 0-.05-.03.3-.02 1.13-.33 1.91-.65 2.7-.98 0 0-.05-.03.3-.02 1.13-.33 1.91-.65 2.7-.98 0 0-.05-.03.3-.02 1.13-.33 1.91-.65 2.7-.98 0 0-.05-.03.3-.02 1.13-.33 1.91-.65 2.7-.98 0 0-.05-.03.32-.02 1.48-.32 2.58-.65 3.68-.98 0 0-.05-.03.32-.02 1.48-.32 2.58-.65 3.68-.98 0 0-.05-.03.32-.02 1.48-.32 2.58-.65 3.68-.98 0 0-.05-.03.32-.02 1.48-.32 2.58-.65 3.68-.98 0 0-.05-.03.34-.02 1.82-.32 3.24-.65 4.66-.98 0 0-.05-.03.34-.02 1.82-.32 3.24-.65 4.66-.98 0 0-.05-.03.37-.02 2.5-.32 4.56-.65 6.63-.98 0 0-.05-.03.37-.02 2.5-.32 4.56-.65 6.63-.98 0 0-.05-.03.4-.02 3.5-.32 6.55-.65 9.6-.98 0 0-.05-.03.42-.02l42.53.05s0-.06.23.29c3.41.46 6.59.59 9.77.7 0 0 0-.05.22.29 2.4.46 4.59.6 6.78.72 0 0 0-.06.21.28 2.07.46 3.93.59 5.79.72 0 0 0-.06.21.28 2.07.46 3.93.59 5.79.72 0 0 0-.06.2.27 1.73.46 3.26.6 4.8.73 0 0 0-.06.18.26 1.4.46 2.6.6 3.81.74 0 0 .01-.06.2.26 1.38.46 2.6.6 3.8.74 0 0 .01-.06.2.26 1.38.46 2.6.6 3.8.74 0 0 .01-.06.17.25 1.04.45 1.94.6 2.83.75 0 0 .01-.06.2.26 1.38.46 2.6.6 3.8.74 0 0 .01-.06.17.25 1.04.45 1.94.6 2.83.75 0 0 .01-.06.17.25 1.04.45 1.94.6 2.83.75 0 0 .01-.06.17.25 1.04.45 1.94.6 2.83.75 0 0 .01-.06.17.25 1.04.45 1.94.6 2.83.75 0 0 .01-.06.17.25 1.04.45 1.94.6 2.83.75 0 0 .01-.06.07.18.36.35.66.46.95.56 0 0 .45.13.86.47 1.32.48 2.22.64 3.12.79 0 0 .01-.06.17.25 1.04.45 1.94.6 2.83.75 0 0 .01-.06.07.18.36.35.66.46.95.56 0 0 .45.13.78.4.62.39.92.5 1.22.6 0 0 .45.13.86.47 1.32.48 2.22.64 3.12.79 0 0 .01-.06.07.18.36.35.66.46.95.56 0 0 .45.13.78.4.62.39.92.5 1.22.6 0 0 .45.13.78.4.62.39.92.5 1.22.6 0 0 .45.13.78.4.62.39.92.5 1.22.6 0 0 .45.13.78.4.62.39.92.5 1.22.6 0 0 .45.13.78.4.62.39.92.5 1.22.6 0 0 .45.13.78.4.62.39.92.5 1.22.6 0 0 .45.13.78.4.62.39.92.5 1.22.6 0 0 .45.13.78.4.62.39.92.5 1.22.6 0 0 .45.13.78.4.62.39.92.5 1.22.6 0 0 .45.13.78.4.62.39.92.5 1.22.6.46.33.92.66 1.74 1.33.66.46.96.57 1.26.67 0 0 .45.13.78.4.62.39.92.5 1.22.6 0 0 .45.13.78.4.62.39.92.5 1.22.6.46.33.92.66 1.74 1.33.66.46.96.57 1.26.67.46.33.92.66 1.74 1.33.66.46.96.57 1.26.67 0 0 .45.13.78.4.62.39.92.5 1.22.6.46.33.92.66 1.74 1.33.66.46.96.57 1.26.67.46.33.92.66 1.74 1.33.66.46.96.57 1.26.67.78.65 1.57 1.3 2.73 2.31.67.48.97.59 1.27.7.46.32.92.65 1.74 1.32.66.46.96.57 1.26.67l3.72 3.3c.68.49.98.6 1.28.7.78.65 1.57 1.3 2.78 2.36 1.35.92 2.27 1.42 3.2 1.92 1.12 1.22 2.24 2.44 3.74 4.03.68.48.98.59 1.28.7 8.29 8.19 16.58 16.38 25.03 25.13.42.76.68.95.95 1.15 1.3 1.44 2.6 2.87 4.05 4.86.42.75.68.94.95 1.14.97 1.1 1.94 2.22 3.06 3.87.4.74.67.93.94 1.13.64.78 1.29 1.56 2.07 2.88.4.73.66.92.93 1.12.64.78 1.29 1.56 2.07 2.88.4.73.66.92.93 1.12.32.46.65.92 1.09 1.9.38.7.64.9.9 1.1.33.46.66.92 1.1 1.9.38.7.64.9.9 1.1.33.46.66.92 1.1 1.9.38.7.64.9.9 1.1.33.46.66.92 1.1 1.9.38.7.64.9.9 1.1.33.46.66.92 1.1 1.9.38.7.64.9.9 1.1 0 0 .1.45.15.93.33.68.6.87.86 1.07.32.46.65.92 1.09 1.9.38.7.64.9.9 1.1 0 0 .1.45.15.93.33.68.6.87.86 1.07 0 0 .08.45.14.93.33.68.6.87.86 1.07.32.46.65.92 1.09 1.9.38.7.64.9.9 1.1 0 0 .1.45.15.93.33.68.6.87.86 1.07 0 0 .08.45.14.93.33.68.6.87.86 1.07 0 0 .08.45.14.93.33.68.6.87.86 1.07 0 0 .08.45.14.93.33.68.6.87.86 1.07 0 0 .08.45.14.93.33.68.6.87.86 1.07 0 0 .08.45.14.93.33.68.6.87.86 1.07 0 0 .08.45.14.93.32.66.59.85.85 1.03 0 0 .02-.05.01.3.33 1.15.66 1.94 1 2.73 0 0 .08.46.14.94.33.68.6.87.86 1.07 0 0 .08.45.14.93.32.66.59.85.85 1.03 0 0 .02-.05.01.3.33 1.15.66 1.94 1 2.73 0 0 .08.46.14.94.32.66.59.85.85 1.03 0 0 .02-.05.01.3.33 1.15.66 1.94 1 2.73 0 0 .08.46.14.94.32.66.59.85.85 1.03 0 0 .02-.05.01.3.33 1.13.65 1.91.98 2.7 0 0 .03-.05.02.3.33 1.13.65 1.91.98 2.7 0 0 .03-.05.02.3.33 1.13.65 1.91.98 2.7 0 0 .03-.05.02.3.33 1.13.65 1.91.98 2.7 0 0 .03-.05.02.3.33 1.13.65 1.91.98 2.7 0 0 .03-.05.02.32.32 1.48.65 2.58.98 3.68 0 0 .03-.05.02.3.33 1.13.65 1.91.98 2.7 0 0 .03-.05.02.32.32 1.48.65 2.58.98 3.68 0 0 .03-.05.02.32.32 1.48.65 2.58.98 3.68 0 0 .03-.05.02.34a86 86 0 0 0 .98 4.66s.03-.05.02.34c.32 1.82.65 3.24.98 4.66 0 0 .03-.05.02.34.32 1.82.65 3.24.98 4.66 0 0 .03-.05.02.36.32 2.15.65 3.9.98 5.64 0 0 .03-.05.02.38.32 2.83.65 5.22.98 7.62 0 0 .03-.05.02.41.31 15.49.63 30.51.95 45.54 0 0 .06 0-.29.24a113 113 0 0 0-.7 10.76s.05 0-.3.22a64 64 0 0 0-.7 7.78s.05 0-.29.21c-.46 2.07-.59 3.93-.72 5.79 0 0 .06 0-.28.21-.46 2.07-.59 3.93-.72 5.79 0 0 .06 0-.26.18-.46 1.4-.6 2.6-.74 3.81 0 0 .06.01-.27.2-.46 1.74-.6 3.27-.73 4.8 0 0 .06.01-.26.2-.46 1.38-.6 2.6-.74 3.8 0 0 .06.01-.26.2-.46 1.38-.6 2.6-.74 3.8 0 0 .06.01-.26.2-.46 1.38-.6 2.6-.74 3.8 0 0 .06.01-.25.17-.45 1.04-.6 1.94-.75 2.83 0 0 .06.01-.25.17-.45 1.04-.6 1.94-.75 2.83 0 0 .06.01-.25.17-.45 1.04-.6 1.94-.75 2.83 0 0 .06.01-.25.17-.45 1.04-.6 1.94-.75 2.83 0 0 .06.01-.25.17-.45 1.04-.6 1.94-.75 2.83 0 0 .06.01-.25.17-.45 1.04-.6 1.94-.75 2.83 0 0 .06.01-.25.17-.45 1.04-.6 1.94-.75 2.83 0 0 .06.01-.18.07-.35.36-.46.66-.56.95 0 0-.13.45-.47.86a15 15 0 0 0-.79 3.12s.06.01-.18.07c-.35.36-.46.66-.56.95 0 0-.13.45-.4.78-.39.62-.5.92-.6 1.22 0 0-.13.45-.47.86a15 15 0 0 0-.79 3.12s.06.01-.18.07c-.35.36-.46.66-.56.95 0 0-.13.45-.4.78-.39.62-.5.92-.6 1.22 0 0-.13.45-.4.78-.39.62-.5.92-.6 1.22 0 0-.13.45-.4.78-.39.62-.5.92-.6 1.22 0 0-.13.45-.4.78-.39.62-.5.92-.6 1.22 0 0-.13.45-.4.78-.39.62-.5.92-.6 1.22 0 0-.13.45-.4.78-.39.62-.5.92-.6 1.22 0 0-.13.45-.4.78-.39.62-.5.92-.6 1.22 0 0-.13.45-.4.78-.39.62-.5.92-.6 1.22 0 0-.13.45-.4.78-.39.62-.5.92-.6 1.22 0 0-.13.45-.4.78-.39.62-.5.92-.6 1.22-.33.46-.66.92-1.33 1.74a4 4 0 0 0-.67 1.26s-.13.45-.4.78c-.39.62-.5.92-.6 1.22-.33.46-.66.92-1.33 1.74a5 5 0 0 0-.67 1.26s-.13.45-.4.78c-.39.62-.5.92-.6 1.22-.33.46-.66.92-1.33 1.74a5 5 0 0 0-.67 1.26c-.33.46-.66.92-1.33 1.74a4 4 0 0 0-.67 1.26c-.33.46-.66.92-1.33 1.74a4 4 0 0 0-.67 1.26c-.33.46-.66.92-1.33 1.74a4 4 0 0 0-.67 1.26c-.65.78-1.3 1.57-2.31 2.73-.48.67-.59.97-.7 1.27-.64.78-1.3 1.57-2.3 2.73-.48.67-.59.97-.7 1.27-.64.78-1.3 1.57-2.3 2.73-.48.67-.59.97-.7 1.27l-4.3 4.72c-.48.68-.59.98-.7 1.28l-6.3 6.71c-.48.7-.59 1-.7 1.29a468 468 0 0 1-14.13 14.03c-.76.42-.95.68-1.15.95-2.43 2.3-4.86 4.6-7.85 7.05-.76.42-.95.68-1.15.95a56 56 0 0 1-4.86 4.05c-.75.42-.94.68-1.14.95-.78.64-1.56 1.29-2.88 2.07-.73.4-.92.66-1.12.93-.78.64-1.56 1.29-2.88 2.07-.73.4-.92.66-1.12.93-.78.64-1.56 1.29-2.88 2.07-.73.4-.92.66-1.12.93-.46.32-.92.65-1.9 1.09-.7.38-.9.64-1.1.9-.46.33-.92.66-1.9 1.1-.7.38-.9.64-1.1.9-.46.33-.92.66-1.9 1.1-.7.38-.9.64-1.1.9"/><path fill="#30c465" d="M798.22 558.69c-.6-14.72-.92-29.74-1.26-45.23.63 3.4 1.78 7.24 1.83 11.1a715 715 0 0 1-.57 34.13M562.69 287.78c-13.71.26-27.73.25-42.22.26.1-.3.67-.9 1.23-.89 13.56.08 27.12.22 40.99.63m-34.38 508.44c8.05-.26 16.4-.25 25.22-.26-3.23.33-6.92.92-10.63.98-4.75.08-9.52-.27-14.59-.72m-244.29-252.8q.5 9.35 1.02 20.1-.5-9.33-1.02-20.1m.76-24.11q.25 9.8-.41 20.47c-.19-6.54-.03-13.35.4-20.47m269.65 276.67q5.86-.5 13.11-1.02-5.85.5-13.11 1.02m-39.12-.76q5.83-.25 12.49.42-5.82.25-12.48-.42M797.22 569.7q-.25-4.83.42-10.49.24 4.82-.42 10.48M572.7 288.78q-4.33.25-9.5-.42 4.34-.24 9.5.42m-53.1-.76q-3.9.5-9.15 1.02 3.9-.5 9.15-1.02M285.78 510.3q.25 3.84-.42 8.5a42 42 0 0 1 .42-8.5m-.76 54.1q.5 3.41 1.02 8.16-.5-3.42-1.02-8.17m511.2 13.31q-.24-3.35.42-7.5.24 3.35-.42 7.5m-505.2 23.65a63 63 0 0 1 2.01 6.26 63 63 0 0 1-2.01-6.26m505.96-88.73q-.5-2.95-1.02-7.19.5 2.95 1.02 7.19m-228.6 282.36a157 157 0 0 1 7.19-1.02q-2.95.5-7.19 1.02m-61.08-.76q3.34-.24 7.5.42-3.35.24-7.5-.42m72.41-504.43q-2.86.22-6.52-.44 2.87-.23 6.52.44m-292.92 213.5q.22 2.86-.44 6.52-.23-2.87.44-6.52m-.77 70.08q.5 2.48 1.02 6.2-.5-2.46-1.02-6.2m290.35 220.61q2.48-.5 6.2-1.02-2.45.5-6.2 1.02m-76.08-.77q2.86-.22 6.52.44-2.87.23-6.52-.44m9.34-504.19q-2.48.5-6.2 1.02 2.45-.5 6.2-1.02m-7 1q-2.48.5-6.2 1.02 2.45-.5 6.2-1.02M287.79 497.28q.22 2.38-.44 5.54-.23-2.39.44-5.54m206.49 294.93q2.38-.22 5.54.44-2.39.23-5.54-.44m301.7-287.57a64 64 0 0 1-1.02-5.23q.5 2 1.02 5.23M583.36 792.98a64 64 0 0 1 5.23-1.02q-2 .5-5.23 1.02m2.36-502.19q-2.38.22-5.54-.44 2.39-.23 5.54.44m209.49 292.93q-.21-2.38.44-5.54.23 2.39-.44 5.54M591.72 291.79q-2.38.22-5.54-.44 2.39-.23 5.54.44m-304.7 288.57q.5 2 1.02 5.23a64 64 0 0 1-1.02-5.23m507.19 9.36q-.22-2.38.44-5.54.23 2.39-.44 5.54m-506.19-3.36q.5 2 1.02 5.23a64 64 0 0 1-1.02-5.23m.78-94.09q.21 1.91-.46 4.56-.21-1.92.45-4.56m504.19-3.61a37 37 0 0 1-1.02-4.27q.5 1.56 1.02 4.27m1 5a37 37 0 0 1-1.02-4.27 37 37 0 0 1 1.02 4.27m-504.18-6.39q.21 1.91-.46 4.56-.21-1.92.45-4.56m505.19 11.39a37 37 0 0 1-1.02-4.27q.5 1.56 1.02 4.27M589.34 791.98q1.54-.5 4.27-1.02a37 37 0 0 1-4.27 1.02m-100.07-.78q1.91-.21 4.56.46-1.92.21-4.56-.45m-5-1.01q1.91-.21 4.56.46-1.92.21-4.56-.45M792.2 598.73q-.21-1.91.46-4.56.21 1.92-.45 4.56m-502.19-2.39a37 37 0 0 1 1.02 4.27 37 37 0 0 1-1.02-4.27m308.32 193.64q1.54-.5 4.27-1.02a37 37 0 0 1-4.27 1.02M490.66 292.02a37 37 0 0 1-4.27 1.02q1.56-.5 4.27-1.02m106.07.78q-1.91.21-4.56-.46 1.92-.21 4.56.45m-101.07-1.77a37 37 0 0 1-4.27 1.02q1.56-.5 4.27-1.02M462.25 784.2q1.46-.2 3.6.47a9 9 0 0 1-3.6-.47m148.07 2.78q1.1-.5 3.3-1.02-1.1.5-3.3 1.02m-138.07.22q1.46-.2 3.6.47a9 9 0 0 1-3.6-.47m143.5-489.4a9 9 0 0 1-3.6-.47q1.46-.19 3.6.47m-139.5 490.4q1.46-.2 3.6.47a9 9 0 0 1-3.6-.47m127.07.78q1.1-.5 3.3-1.02-1.1.5-3.3 1.02m-123.07.22q1.46-.2 3.6.47a9 9 0 0 1-3.6-.47m114.07 1.78q1.1-.5 3.3-1.02-1.1.5-3.3 1.02m-305.3-198.66q.5 1.1 1.02 3.3-.5-1.1-1.02-3.3m499.96-119.64q-.5-1.1-1.02-3.3.5 1.1 1.02 3.3m-495.18-1.43q.2 1.46-.47 3.6-.19-1.46.47-3.6m-1 4q.2 1.46-.47 3.6-.19-1.46.47-3.6m498.18 4.43q-.5-1.1-1.02-3.3.5 1.1 1.02 3.3m-499.18-.43q.2 1.46-.47 3.6-.19-1.46.47-3.6m500.18 4.43q-.5-1.1-1.02-3.3.5 1.1 1.02 3.3m-501.18-.43q.2 1.46-.47 3.6-.19-1.46.47-3.6m415.12-137.51a7.4 7.4 0 0 1-2.85-1.45c.82.19 1.8.64 2.85 1.45m-412.9 262.58q.5 1.1 1.02 3.3-.5-1.1-1.02-3.3m496.18 2.43q-.2-1.46.47-3.6.18 1.46-.47 3.6m1-4q-.2-1.46.47-3.6.18 1.46-.47 3.6m1-4q-.2-1.46.47-3.6.18 1.46-.47 3.6M485.68 293.02q-1.1.5-3.3 1.02 1.1-.5 3.3-1.02m115.07.78a9 9 0 0 1-3.6-.47q1.46-.19 3.6.47m-119.07.22q-1.1.5-3.3 1.02 1.1-.5 3.3-1.02M793.2 593.75q-.2-1.46.47-3.6.18 1.46-.47 3.6M604.75 294.8a9 9 0 0 1-3.6-.47q1.46-.19 3.6.47m-127.07.22q-1.1.5-3.3 1.02 1.1-.5 3.3-1.02m131.07.78a9 9 0 0 1-3.6-.47q1.46-.19 3.6.47m-135.07.22q-1.1.5-3.3 1.02 1.1-.5 3.3-1.02m-6.98 2a8 8 0 0 1-2.35 1.02 8 8 0 0 1 2.36-1.02m-3.01 1a8 8 0 0 1-2.35 1.02 8 8 0 0 1 2.36-1.02M789.98 475.7a8 8 0 0 1-1.01-2.35 8 8 0 0 1 1 2.36M618.77 298.8q-1.02.17-2.64-.48 1.02-.17 2.64.49M283.82 540.2c.23.55.21 1.3.22 2.42-.14-.5-.3-1.36-.22-2.42M469.7 297.02a8 8 0 0 1-2.35 1.02 8 8 0 0 1 2.36-1.02m142.06-.22q-1.02.17-2.64-.48 1.02-.17 2.64.49M784.98 459.7a8 8 0 0 1-1.01-2.35 8 8 0 0 1 1 2.36m-486.17-3.48q.17 1.02-.48 2.64-.17-1.02.49-2.64m485.17.47a8 8 0 0 1-1.01-2.35 8 8 0 0 1 1 2.36m-484.17-3.48q.17 1.02-.48 2.64-.17-1.02.49-2.64m482.18-1.49a9 9 0 0 1-1.02-2.39q.49.68 1.02 2.39m-480.19-3.51q.16 1.03-.5 2.67-.15-1.03.5-2.67m478.19-1.49a9 9 0 0 1-1.02-2.39q.49.68 1.02 2.39m-476.19-3.51q.16 1.03-.5 2.67-.15-1.03.5-2.67m156.9-143.21a8 8 0 0 1-2.35 1.02 8 8 0 0 1 2.36-1.02m164.06.78q-1.02.17-2.64-.48 1.02-.17 2.64.49m-167.07.21a8 8 0 0 1-2.35 1.02 8 8 0 0 1 2.36-1.02m170.06.78q-1.02.17-2.64-.48 1.02-.17 2.64.49m-173.07.21a8 8 0 0 1-2.35 1.02 8 8 0 0 1 2.36-1.02m176.06.78q-1.02.17-2.64-.48 1.02-.17 2.64.49m-179.07.21a8 8 0 0 1-2.35 1.02 8 8 0 0 1 2.36-1.02M295.02 615.3a8 8 0 0 1 1.02 2.35 8 8 0 0 1-1.02-2.36m-.22-147.06q.17 1.02-.48 2.64-.17-1.02.49-2.64M621.77 299.8q-1.02.17-2.64-.48 1.02-.17 2.64.49M787.98 468.7a8 8 0 0 1-1.01-2.35 8 8 0 0 1 1 2.36m-492.17-3.48q.17 1.02-.48 2.64-.17-1.02.49-2.64m491.17.47a8 8 0 0 1-1.01-2.35 8 8 0 0 1 1 2.36m-490.17-3.48q.17 1.02-.48 2.64-.17-1.02.49-2.64m489.17.47a8 8 0 0 1-1.01-2.35 8 8 0 0 1 1 2.36m-488.17-3.48q.17 1.02-.48 2.64-.17-1.02.49-2.64M469.23 786.2q1.02-.17 2.64.48a5 5 0 0 1-2.64-.49m138.07 1.79a8 8 0 0 1 2.35-1.01 8 8 0 0 1-2.36 1m7.01-1.99a8 8 0 0 1 2.35-1.01 8 8 0 0 1-2.36 1m-148.06-.77q1.02-.17 2.64.48a5 5 0 0 1-2.64-.49m151.07-.21a8 8 0 0 1 2.35-1.02 8 8 0 0 1-2.36 1.02m3.01-1a8 8 0 0 1 2.35-1.01 8 8 0 0 1-2.36 1m-161.06-.77q1.02-.17 2.64.48a5 5 0 0 1-2.64-.49m164.07-.21a8 8 0 0 1 2.35-1.01 8 8 0 0 1-2.36 1m-167.06-.77q1.02-.17 2.64.48a5 5 0 0 1-2.64-.49m170.07-.21a8 8 0 0 1 2.35-1.01 8 8 0 0 1-2.36 1m3.01-.99a8 8 0 0 1 2.35-1.01 8 8 0 0 1-2.36 1m152.91-149.2q-.17-1.02.48-2.64.17 1.02-.49 2.64m-483.17-4.47a8 8 0 0 1 1.02 2.35 8 8 0 0 1-1.02-2.36m484.18 1.48q-.17-1.02.48-2.64.17 1.02-.49 2.64m-485.17-4.47a8 8 0 0 1 1.02 2.35 8 8 0 0 1-1.02-2.36m486.18 1.48q-.17-1.02.48-2.64.17 1.02-.49 2.64m-487.17-4.47a8 8 0 0 1 1.02 2.35 8 8 0 0 1-1.02-2.36m3 9.01a8 8 0 0 1 1.02 2.35 8 8 0 0 1-1.02-2.36m485.18-7.52q-.17-1.02.48-2.64.17 1.02-.49 2.64m-489.17-4.47a8 8 0 0 1 1.02 2.35 8 8 0 0 1-1.02-2.36m490.18 1.48q-.17-1.02.48-2.64.17 1.02-.49 2.64m1.01-3q-.17-1.02.48-2.64.17 1.02-.49 2.64m-493.17-4.47a8 8 0 0 1 1.02 2.35 8 8 0 0 1-1.02-2.36m494.18 1.48q-.17-1.02.48-2.64.17 1.02-.49 2.64M451.23 780.2q1.03-.16 2.67.5a5 5 0 0 1-2.67-.5m181.07-.22a8 8 0 0 1 2.35-1.01 8 8 0 0 1-2.36 1m-184.06-.77q1.02-.17 2.64.48a5 5 0 0 1-2.64-.49m189.03-1.2a9 9 0 0 1 2.39-1.02q-.68.49-2.39 1.02m-194.03-.79q1.03-.16 2.67.5a5 5 0 0 1-2.67-.5m-5-2q1.03-.16 2.67.5a5 5 0 0 1-2.67-.5m206.03-.21a9 9 0 0 1 2.39-1.02q-.68.49-2.39 1.02M305.01 642.26q.5.68 1.02 2.39a9 9 0 0 1-1.02-2.39m472.19 1.51q-.16-1.03.5-2.67.15 1.04-.5 2.67m-475.19-8.51q.5.68 1.02 2.39a9 9 0 0 1-1.02-2.39m478.19 1.51q-.16-1.03.5-2.67.15 1.04-.5 2.67M635.77 304.8q-1.03.16-2.67-.5 1.04-.15 2.67.5m-189.03.21q-.68.5-2.39 1.02a9 9 0 0 1 2.39-1.02m330.25 134.73a9 9 0 0 1-1.02-2.39q.49.68 1.02 2.39M638.77 305.8q-1.02.17-2.64-.48 1.02-.17 2.64.49m7 2.99q-1.03.16-2.67-.5 1.04-.15 2.67.5m-204.03-1.79q-.68.5-2.39 1.02a9 9 0 0 1 2.39-1.02m-9 4q-.68.5-2.39 1.02a9 9 0 0 1 2.39-1.02M307.8 434.23q.16 1.03-.5 2.67-.15-1.03.5-2.67M670.13 761.9q-.04-.29.62-.7c.08.26-.14.46-.62.7m-256.99.47q.24-.12.85.38-.3.23-.85-.38m254.99.53q-.04-.29.62-.7c.08.26-.14.46-.62.7m-252.99.47q.24-.12.85.38-.3.23-.85-.38m2 1q.24-.12.85.38-.3.23-.85-.38m247.99.53q-.04-.29.62-.7c.08.26-.14.46-.62.7m-245.99.47q.24-.12.85.38-.3.23-.85-.38m243.99.53q-.04-.29.62-.7c.08.26-.14.46-.62.7m-237.99 2.47q.24-.12.85.38-.3.23-.85-.38m246.99-7.47q-.04-.29.62-.7c.08.26-.14.46-.62.7m-261.99-.53q.24-.12.85.38-.3.23-.85-.38m-2-1q.24-.12.85.38-.3.23-.85-.38m266.99-.47q-.04-.29.62-.7c.08.26-.14.46-.62.7m2-1q-.04-.29.62-.7c.08.26-.14.46-.62.7m-271.99-.53q.24-.12.85.38-.3.23-.85-.38m274.99-1.47q-.04-.29.62-.7c.08.26-.14.46-.62.7m-277.99-.53q.24-.12.85.38-.3.23-.85-.38m-2-1q.24-.12.85.38-.3.23-.85-.38m282.99-.47q-.04-.29.62-.7c.08.26-.14.46-.62.7m-246 20.47q.24-.12.83.38c-.2.16-.46 0-.83-.38m210.02-.47c-.02-.18.17-.45.6-.7q.13.36-.6.7m-212.01-.53q.24-.12.85.38-.3.23-.85-.38m213.99-.47q-.04-.29.62-.7c.08.26-.14.46-.62.7m-215.99-.53q.24-.12.85.38-.3.23-.85-.38m217.99-.47q-.04-.29.62-.7c.08.26-.14.46-.62.7m-219.99-.53q.24-.12.85.38-.3.23-.85-.38m-10-5q.24-.12.85.38-.3.23-.85-.38m231.99 4.53q-.04-.29.62-.7c.08.26-.14.46-.62.7m-223.99-.53q.24-.12.85.38-.3.23-.85-.38m225.99-.47q-.04-.29.62-.7c.08.26-.14.46-.62.7m-227.99-.53q.24-.12.85.38-.3.23-.85-.38m229.99-.47q-.04-.29.62-.7c.08.26-.14.46-.62.7m2-1q-.04-.29.62-.7c.08.26-.14.46-.62.7m-235.99-.53q.24-.12.85.38-.3.23-.85-.38m237.99-.47q-.04-.29.62-.7c.08.26-.14.46-.62.7m77.24-62.04q-.12-.24.38-.85.23.3-.38.85m-396.27-2.73q.29-.04.7.62c-.26.08-.46-.14-.7-.62m401.27-3.27q-.12-.24.38-.85.23.3-.38.85m-406.27-2.73c.18-.02.44.17.7.62-.26.08-.46-.14-.7-.62m409.27-1.27q-.12-.24.38-.85.23.3-.38.85m-412.27-2.73c.18-.02.44.17.7.62-.26.08-.46-.14-.7-.62m415.27-1.27q-.12-.24.38-.85.23.3-.38.85m-418.27-2.73q.29-.04.7.62c-.26.08-.46-.14-.7-.62m421.27-1.27q-.12-.24.38-.85.23.29-.38.85m-423.27-1.73c.18-.02.44.17.7.62-.26.08-.46-.14-.7-.62m425.27-1.27q-.12-.24.38-.85.23.29-.38.85m-377.23 53.51q.24-.12.85.38-.3.23-.85-.38m20 15q.24-.12.85.38-.3.23-.85-.38m288.99-.47q-.04-.29.62-.7c.08.26-.14.46-.62.7m3-2q-.04-.29.62-.7c.08.26-.14.46-.62.7m-295.99-.53q.24-.12.85.38-.3.23-.85-.38m-3-2q.24-.12.85.38-.3.23-.85-.38m302.99-.47q-.04-.29.62-.7c.08.26-.14.46-.62.7m-306.99-2.53q.24-.12.85.38-.3.23-.85-.38m310.99-.47q-.04-.29.62-.7c.08.26-.14.46-.62.7m-314.99-2.53q.24-.12.85.38-.3.23-.85-.38m318.99-.47q-.04-.29.62-.7c.08.26-.14.46-.62.7m6-5q-.04-.29.62-.7c.08.26-.14.46-.62.7m-336.99-4.53q.24-.12.85.38-.3.23-.85-.38m345.99-3.47q-.04-.29.62-.7c.08.26-.14.46-.62.7m15.24-15.04q-.12-.24.38-.85.23.3-.38.85m-384.27-4.73q.29-.04.7.62c-.26.08-.46-.14-.7-.62m78.77-394.03q.04.29-.62.7c-.08-.26.14-.46.62-.7m230.99.53q-.24.12-.85-.38.3-.23.85.38m-232.99.47q.04.29-.62.7c-.08-.26.14-.46.62-.7m234.99.53q-.24.12-.85-.38.3-.23.85.38m-4-2q-.24.12-.85-.38.3-.23.85.38m-232.99 2.47q.04.29-.62.7c-.08-.26.14-.46.62-.7m238.99.53q-.24.12-.85-.38.3-.23.85.38m2 1q-.24.12-.85-.38.3-.23.85.38m-15.99-8q-.24.12-.83-.38c.2-.16.46 0 .83.38m-203.02-3.53c.02.18-.17.45-.6.7q-.14-.36.6-.7m196.02.53q-.24.12-.83-.38c.2-.16.46 0 .83.38m1.99 1q-.24.12-.85-.38.3-.23.85.38m-203.01.47c.02.18-.17.45-.6.7q-.14-.36.6-.7m-1.98 1q.04.29-.62.7c-.08-.26.14-.46.62-.7m-2 1q.04.29-.62.7c-.08-.26.14-.46.62-.7m213.99.53q-.24.12-.85-.38.3-.23.85.38m2 1q-.24.12-.85-.38.3-.23.85.38m-221.01.47c.02.18-.17.45-.6.7q-.14-.36.6-.7m223.01.53q-.24.12-.85-.38.3-.23.85.38m-224.99.47q.04.29-.62.7c-.08-.26.14-.46.62-.7m251.99 14.53q-.24.12-.85-.38.3-.23.85.38m-6-4q-.24.12-.85-.38.3-.23.85.38m-265.99.47q.04.29-.62.7c-.08-.26.14-.46.62-.7m47.26 457.27q.24-.12.83.38c-.2.16-.46 0-.83-.38m221.73-455.74q-.24.12-.85-.38.3-.23.85.38m-271.99.47q.04.29-.62.7c-.08-.26.14-.46.62-.7m5-3q.04.29-.62.7c-.08-.26.14-.46.62-.7m225.28 455.8c-.02-.18.17-.45.6-.7q.13.36-.6.7m-188.02-.53q.24-.12.83.38c-.2.16-.46 0-.83-.38M401.87 328.1q.04.29-.62.7c-.08-.26.14-.46.62-.7m354.5 352.76q-.12-.24.38-.85.23.29-.38.85M640.15 776.9c-.02-.18.17-.45.6-.7q.13.36-.6.7m-198.02-.53q.24-.12.83.38c-.2.16-.46 0-.83-.38m200-.47q-.04-.29.62-.7c.08.26-.14.46-.62.7m24.73-456.27q-.24.12-.85-.38.3-.23.85.38m-247.99-1.53q.04.29-.62.7c-.08-.26.14-.46.62-.7m245.99.53q-.24.12-.85-.38.3-.23.85.38m-247.99.47q.04.29-.62.7c-.08-.26.14-.46.62-.7m264.99 9.53q-.24.12-.85-.38.3-.23.85.38m-266.99-8.53q.04.29-.62.7c-.08-.26.14-.46.62-.7m-2 1q.04.29-.62.7c-.08-.26.14-.46.62-.7m256.99.53q-.24.12-.85-.38.3-.23.85.38m2 1q-.24.12-.85-.38.3-.23.85.38m-346.23 80.51q.12.24-.38.85-.23-.3.38-.85m432.27 1.73q-.29.04-.7-.62c.26-.08.46.14.7.62m-434.27 1.27q.12.24-.38.85-.23-.3.38-.85m436.27 1.73q-.29.04-.7-.62c.26-.08.46.14.7.62m-437.27.27q.12.24-.38.85-.23-.3.38-.85m439.27 2.73q-.29.04-.7-.62c.26-.08.46.14.7.62m-441.27.27q.12.24-.38.85-.23-.3.38-.85m442.27 1.73q-.29.04-.7-.62c.26-.08.46.14.7.62m-17-25q-.29.04-.7-.62c.26-.08.46.14.7.62m-410.27 1.27q.12.24-.38.85-.23-.3.38-.85m413.27 2.73q-.29.04-.7-.62c.26-.08.46.14.7.62m-416.27 1.27q.12.24-.38.85-.23-.3.38-.85m419.27 2.73q-.29.04-.7-.62c.26-.08.46.14.7.62m-421.27.27q.12.24-.38.85-.23-.3.38-.85m423.27 2.73q-.29.04-.7-.62c.26-.08.46.14.7.62m-426.27 1.27q.12.24-.38.85-.23-.3.38-.85m428.27 1.73q-.29.04-.7-.62c.26-.08.46.14.7.62m19 33q-.29.04-.7-.62c.26-.08.46.14.7.62m-463.27-7.73q.12.24-.38.85-.23-.3.38-.85m460.27 1.73q-.29.04-.7-.62c.26-.08.46.14.7.62m-461.27.27q.12.24-.38.85-.23-.3.38-.85m462.27 1.73q-.29.04-.7-.62c.26-.08.46.14.7.62m-463.27.27q.12.24-.38.85-.23-.3.38-.85m473.27 22.71c-.18.02-.45-.17-.7-.6q.36-.13.7.6m-9-20.98q-.29.04-.7-.62c.26-.08.46.14.7.62m-473.27 19.26q.12.24-.38.83c-.16-.2 0-.46.38-.83m8-19q.12.24-.38.83c-.16-.2 0-.46.38-.83m472.27 15.72c-.18.02-.45-.17-.7-.6q.36-.13.7.6m-478.27-1.72q.12.24-.38.83c-.16-.2 0-.46.38-.83m473.27-10.28c-.18.02-.45-.17-.7-.6q.36-.13.7.6m3 7c-.18.02-.45-.17-.7-.6q.36-.13.7.6m-474.27-1.72q.12.24-.38.83c-.16-.2 0-.46.38-.83M448.85 304.1c.02.18-.17.45-.6.7q-.14-.36.6-.7M777.9 441.87q-.29.04-.7-.62c.26-.08.46.14.7.62m-472.27-1.73q.12.24-.38.85-.23-.3.38-.85m14-27q.12.24-.38.85-.23-.3.38-.85m312.24-109.51q-.24.12-.83-.38c.2-.16.46 0 .83.38M764.9 415.87q-.29.04-.7-.62c.26-.08.46.14.7.62m-447.27.27q.12.24-.38.85-.23-.3.38-.85m448.27 1.73q-.29.04-.7-.62c.26-.08.46.14.7.62m-449.27.27q.12.24-.38.85-.23-.3.38-.85m450.27 1.73q-.29.04-.7-.62c.26-.08.46.14.7.62m-451.27.27q.12.24-.38.85-.23-.3.38-.85m453.27 2.73q-.29.04-.7-.62c.26-.08.46.14.7.62m-455.27.27q.12.24-.38.85-.23-.3.38-.85m456.27 1.73q-.29.04-.7-.62c.26-.08.46.14.7.62m-457.27.27q.12.24-.38.85-.23-.3.38-.85m458.27 1.73q-.29.04-.7-.62c.26-.08.46.14.7.62m-4.53 237.99q-.12-.24.38-.85.23.3-.38.85m-450.27-.73c.18-.02.44.17.7.62-.26.08-.46-.14-.7-.62m451.27-1.27q-.12-.24.38-.85.23.3-.38.85m-453.27-1.73c.18-.02.44.17.7.62-.26.08-.46-.14-.7-.62m454.27-.27q-.12-.24.38-.85.23.3-.38.85m-455.27-1.73c.18-.02.44.17.7.62-.26.08-.46-.14-.7-.62m4 7c.18-.02.44.17.7.62-.26.08-.46-.14-.7-.62m452.27-7.27q-.12-.24.38-.85.23.3-.38.85m-457.27-1.73q.29-.04.7.62c-.26.08-.46-.14-.7-.62m458.27-.27q-.12-.24.38-.85.23.3-.38.85m-459.27-1.73q.29-.04.7.62c-.26.08-.46-.14-.7-.62m460.27-.27q-.12-.24.38-.85.23.3-.38.85m-461.27-1.73c.18-.02.44.17.7.62-.26.08-.46-.14-.7-.62m462.27-.27q-.12-.24.38-.85.23.3-.38.85m-463.27-1.73c.18-.02.44.17.7.62-.26.08-.46-.14-.7-.62m375.76-320.5q-.24.12-.85-.38.3-.23.85.38M321.1 673.13c.18-.02.44.17.7.62-.26.08-.46-.14-.7-.62m6 9c.18-.02.44.17.7.62-.26.08-.46-.14-.7-.62m-20.47-243.99q.12.24-.38.85-.23-.3.38-.85m18.47 240.99c.18-.02.44.17.7.62-.26.08-.46-.14-.7-.62m433.27-1.27q-.12-.24.38-.85.23.29-.38.85m-435.27-1.73q.29-.04.7.62c-.26.08-.46-.14-.7-.62m437.27-1.27q-.12-.24.38-.85.23.3-.38.85m13-24q-.12-.24.38-.85.23.3-.38.85m-12 22q-.12-.24.38-.85.23.3-.38.85m-441.27-1.73c.18-.02.44.17.7.62-.26.08-.46-.14-.7-.62m443.27-1.27q-.12-.24.38-.85.23.3-.38.85m-445.27-1.73q.29-.04.7.62c-.26.08-.46-.14-.7-.62m446.27-.27q-.12-.24.38-.85.23.3-.38.85M398.87 330.1q.04.29-.62.7c-.08-.26.14-.46.62-.7m382.5 302.77q-.12-.24.38-.83c.16.2 0 .46-.38.83m-81.51-291.24q-.24.12-.85-.38.3-.23.85.38m-318.99 1.47q.04.29-.62.7c-.08-.26.14-.46.62-.7m-6 5q.04.29-.62.7c-.08-.26.14-.46.62-.7m335.99 2.53q-.24.12-.85-.38.3-.23.85.38m-343.99 4.47q.04.29-.62.7c-.08-.26.14-.46.62-.7m-15.24 15.04q.12.24-.38.85-.23-.3.38-.85m385.27 6.73q-.29.04-.7-.62c.26-.08.46.14.7.62m-393.27 2.27q.12.24-.38.85-.23-.3.38-.85m398.27 3.73q-.29.04-.7-.62c.26-.08.46.14.7.62m-402.27 1.27q.12.24-.38.85-.23-.3.38-.85M308.1 649.13q.29-.04.7.62c-.26.08-.46-.14-.7-.62m466.27-.27q-.12-.24.38-.85.23.3-.38.85m-467.27-1.73c.18-.02.44.17.7.62-.26.08-.46-.14-.7-.62m468.27-.27q-.12-.24.38-.85.23.3-.38.85M395.87 332.1q.04.29-.62.7c-.08-.26.14-.46.62-.7M306.1 645.15c.18-.02.45.17.7.6q-.36.13-.7-.6m470.27-.28q-.12-.24.38-.83c.16.2 0 .46-.38.83m-88.51-312.24q-.24.12-.85-.38.3-.23.85.38m-294.99 1.47q.04.29-.62.7c-.08-.26.14-.46.62-.7m298.99 1.53q-.24.12-.85-.38.3-.23.85.38M304.1 640.13c.18-.02.44.17.7.62-.26.08-.46-.14-.7-.62m474.27-.27q-.12-.24.38-.85.23.3-.38.85m-475.27-1.71c.18-.02.45.17.7.6q-.36.13-.7-.6m476.27-.28q-.12-.24.38-.83c.16.2 0 .46-.38.83M389.87 336.1q.04.29-.62.7c-.08-.26.14-.46.62-.7m304.99 1.53q-.24.12-.85-.38.3-.23.85.38M301.1 633.15c.18-.02.45.17.7.6q-.36.13-.7-.6m84.77-294.05q.04.29-.62.7c-.08-.26.14-.46.62-.7"/></svg>