<svg version="1.1" xmlns="http://www.w3.org/2000/svg" viewBox="0 0 719 719" width="719" height="719">
  <g transform="translate(0,0)">
    <!-- Globe Parts -->
    <path d="M0 0 C0.34 0 0.34 0 2.06 0.03 C2.31 0.03 2.31 0.03 3.56 0.06 C5.82 3.66 5.85 6.74 5.82 10.92 C5.82 11.61 5.82 12.3 5.83 13.02 C5.84 15.35 5.83 17.68 5.82 20.01 C5.83 21.7 5.83 23.38 5.83 25.07 C5.84 28.73 5.84 32.4 5.84 36.07 C5.84 41.52 5.84 46.98 5.85 52.43 C5.87 62.74 5.87 73.04 5.86 83.35 C5.86 91.3 5.86 99.26 5.87 107.22 C5.87 108.36 5.87 109.5 5.87 110.64 C5.87 112.36 5.87 114.09 5.87 115.81 C5.88 131.81 5.89 147.82 5.88 163.83 C5.88 164.43 5.88 165.03 5.88 165.65 C5.88 168.71 5.88 171.77 5.88 174.83 C5.88 175.14 5.88 175.14 5.88 176.67 C5.88 177.9 5.88 179.13 5.88 180.36 C5.87 199.49 5.88 218.61 5.9 237.74 C5.92 259.22 5.93 280.7 5.93 302.18 C5.93 304.47 5.93 306.75 5.93 309.04 C5.92 309.61 5.92 310.17 5.92 310.75 C5.92 319.27 5.93 327.79 5.94 336.31 C5.95 345.99 5.95 355.67 5.94 365.36 C5.94 370.78 5.94 376.2 5.95 381.63 C5.96 385.24 5.96 388.86 5.94 392.48 C5.94 394.54 5.94 396.61 5.95 398.67 C5.96 400.89 5.95 403.11 5.94 405.33 C5.94 405.66 5.94 405.66 5.96 407.29 C5.94 408.94 5.89 410.45 5.56 412.06 C4.04 413.98 4.04 413.98 2.56 415.06 C-16.65 410.35 -34.94 404.56 -53.12 396.75 C-59.36 394.07 -65.64 391.52 -71.94 389 C-72.47 388.79 -73 388.57 -73.55 388.35 C-80.48 385.59 -87.43 382.92 -94.44 380.38 C-125.84 368.9 -125.84 368.9 -135.87 354.75 C-136.72 353.52 -137.58 352.29 -138.44 351.06 C-139.24 349.93 -140.04 348.79 -140.84 347.65 C-143.84 343.39 -146.82 339.12 -149.8 334.84 C-152.43 331.07 -155.07 327.29 -157.71 323.53 C-158.2 322.84 -158.68 322.16 -159.16 321.47 C-162.08 317.31 -165.07 313.21 -168.16 309.17 C-168.79 308.33 -169.43 307.49 -170.06 306.65 C-171.27 305.06 -172.49 303.49 -173.72 301.92 C-180.33 293.34 -182.52 285.17 -183.43 274.45 C-183.52 273.52 -183.6 272.58 -183.68 271.65 C-183.9 269.25 -184.11 266.86 -184.32 264.46 C-184.5 262.29 -184.7 260.13 -184.9 257.96 C-185.78 248.1 -186.62 238.24 -187.44 228.37 C-187.86 223.46 -188.27 218.55 -188.71 213.63 C-189.09 209.28 -189.46 204.92 -189.82 200.57 C-190.01 198.29 -190.21 196 -190.41 193.72 C-191.61 180.47 -192.43 167.84 -185.66 155.91 C-185.41 155.47 -185.16 155.03 -184.9 154.57 C-184.65 154.11 -184.39 153.66 -184.12 153.19 C-183.59 152.2 -183.05 151.21 -182.52 150.21 C-180.85 147.15 -179.15 144.1 -177.44 141.06 C-176.9 140.11 -176.36 139.15 -175.83 138.19 C-173.71 134.42 -171.58 130.65 -169.43 126.9 C-165.64 120.25 -161.98 113.53 -158.38 106.77 C-152.11 95 -145.52 83.46 -138.73 71.98 C-136.77 68.65 -134.89 65.28 -133.03 61.88 C-130.49 57.28 -127.85 52.94 -124.44 48.94 C-124.15 48.59 -123.87 48.25 -123.58 47.9 C-117.65 41.44 -107.19 38.95 -99.25 35.92 C-95.28 34.41 -91.32 32.88 -87.36 31.34 C-86.94 31.18 -86.51 31.01 -86.08 30.84 C-72.64 25.62 -59.31 20.11 -45.98 14.63 C-27.43 6.99 -27.43 6.99 -18.42 3.53 C-17.81 3.29 -17.19 3.05 -16.56 2.8 C-11.14 0.76 -5.79 -0.1 0 0 Z " fill="#d035f1" transform="translate(344.4375,39.9375)"/>
    <path d="M0 0 C2.96 -0.04 5.92 -0.07 8.87 -0.09 C9.88 -0.09 10.88 -0.1 11.88 -0.12 C22.01 -0.25 31.24 1.23 41 4 C41.41 4.12 41.83 4.23 42.25 4.35 C67.92 11.66 94.49 23.74 113.19 43.19 C114.96 44.99 116.85 46.64 118.77 48.28 C133.33 60.9 143.92 75.7 154 92 C154.26 92.41 154.52 92.83 154.78 93.25 C165.9 111.15 174.05 131.53 179 152 C179.18 152.73 179.35 153.46 179.54 154.21 C184.49 175.19 187.13 197.44 186 219 C185.96 219.81 185.91 220.63 185.87 221.47 C183.4 264.57 166.42 306.4 139.94 340.31 C138.96 341.54 137.98 342.77 137 344 C136.53 344.59 136.05 345.19 135.57 345.8 C129.95 352.8 124.08 359.08 117.25 364.9 C115.97 366.03 114.75 367.19 113.53 368.39 C105.83 375.85 97.2 381.59 88 387 C87.57 387.25 87.14 387.51 86.7 387.77 C73.55 395.55 59.96 401.45 45.49 406.29 C44.33 406.68 43.17 407.07 42.01 407.46 C28.34 412.04 15.42 414.48 1 414 C0.22 411.92 -0.12 410.21 -0.12 407.99 C-0.13 407.4 -0.13 406.8 -0.13 406.19 C-0.13 405.86 -0.13 405.86 -0.12 404.21 C-0.12 403.51 -0.13 402.82 -0.13 402.1 C-0.13 399.74 -0.12 397.39 -0.12 395.04 C-0.12 393.34 -0.12 391.64 -0.12 389.94 C-0.12 386.24 -0.12 382.54 -0.12 382.54 C-0.11 373.34 -0.11 367.84 -0.11 362.33 C-0.12 353.08 -0.11 343.82 -0.11 334.57 C-0.1 325.4 -0.1 316.23 -0.09 307.07 C-0.09 306.5 -0.09 305.93 -0.09 305.34 C-0.09 302.45 -0.09 299.56 -0.09 296.66 C-0.09 276.17 -0.08 255.67 -0.08 235.18 C-0.07 215.26 -0.06 195.35 -0.05 175.43 C-0.05 174.82 -0.05 174.21 -0.05 173.57 C-0.05 167.41 -0.05 161.25 -0.05 155.09 C-0.05 142.53 -0.05 129.98 -0.04 117.42 C-0.04 116.85 -0.04 116.27 -0.04 115.67 C-0.03 77.12 -0.02 38.56 0 0 Z " fill="#19c8ff" transform="translate(373,40)"/>
    <path d="M0 1 C-8 0 4 2 4 3 C16 13 17 15 23 20 C85 79 83 83 83 90 C83 140 85 140 80 145 C40.58 173.01 32.5 178 24 183 C-74 55 -74 70 -70 55 Z " fill="#d035f1" opacity="0.6" transform="translate(254.299072265625,152.14599609375)"/>
    <path d="M0 0 C2.39 0.39 3.73 0.75 5.52 2.42 C5.76 2.72 5.76 2.72 6.95 4.25 C7.21 4.57 7.48 4.9 7.74 5.24 C8.59 6.3 9.42 7.37 10.25 8.44 C10.83 9.17 11.42 9.91 12 10.65 C13.16 12.1 14.31 13.56 15.45 15.02 C17.36 17.47 19.31 19.89 21.25 22.31 C21.88 23.1 22.5 23.88 23.13 24.67 C25.49 27.62 27.89 30.55 30.29 33.47 C33.71 37.64 37.11 41.82 40.5 46 C44.16 50.51 47.82 55.01 51.5 59.5 C52.58 60.82 53.67 62.15 54.75 63.47 C55.67 64.59 56.58 65.71 57.5 66.83 C66.31 77.57 74.78 88.49 82.9 99.77 C84.77 102.36 86.68 104.89 88.65 107.4 C89.1 107.98 89.56 108.56 90.02 109.15 C90.9 110.27 91.79 111.39 92.68 112.5 C95.08 115.57 96.76 118.3 98 122 C91.36 129.74 84.69 137.44 77.75 144.92 C75.49 147.36 73.27 149.83 71.11 152.37 C67.38 156.75 63.21 161.39 58 164 C56.49 164.1 56.49 164.1 54.88 164.06 C54.34 164.05 53.8 164.04 53.24 164.04 C53.04 164.03 53.04 164.03 52 164 C47.53 158.58 43.29 153.06 39.25 147.31 C35.67 142.22 31.92 137.33 28 132.5 C22.73 126.01 17.76 119.36 13.02 112.47 C12.39 111.56 11.76 110.66 11.12 109.76 C5.82 102.3 4.81 94.36 4.25 85.39 C4.17 84.17 4.08 82.95 4 81.73 C3.91 80.45 3.82 79.16 3.74 77.88 C3.44 73.4 3.12 68.92 2.79 64.44 C2.76 63.99 2.73 63.55 2.7 63.08 C2.09 54.77 1.28 46.48 0.38 38.19 C-0.49 30.15 -1.32 22.13 -1.81 14.06 C-1.87 13.32 -1.92 12.57 -1.97 11.8 C-2.2 7.44 -1.73 4.02 0 0 Z " fill="#d035f1" opacity="0.8" transform="translate(169,224)"/>

    <!-- S3 Wordmark -->
    <path d="M0 0 C2.59 0.02 5.18 0.02 7.78 0.02 C12.66 0.03 17.53 0.06 22.41 0.09 C27.98 0.12 33.55 0.14 39.12 0.15 C50.54 0.18 61.97 0.24 73.4 0.3 C73.26 1.74 73.11 3.17 72.96 4.6 C72.92 5 72.92 5 72.72 7.02 C72.28 10.12 71.29 12.69 69.96 15.51 C69.72 16.04 69.49 16.58 69.24 17.13 C68.49 18.79 67.73 20.46 66.96 22.12 C66.45 23.25 65.94 24.38 65.43 25.51 C63.49 29.81 61.53 34.09 59.4 38.3 C52.2 39.59 44.96 39.45 37.68 39.47 C35.36 39.48 33.04 39.5 30.72 39.51 C24.14 39.57 17.55 39.61 10.97 39.63 C6.93 39.64 2.89 39.67 -1.16 39.71 C-2.69 39.72 -4.22 39.73 -5.75 39.73 C-13.36 39.72 -20.08 39.72 -27 43.14 C-28.75 44.41 -29.63 45.54 -30.67 47.43 C-32.2 52.28 -32.6 58.05 -31.1 62.95 C-29.69 65.61 -27.72 67.12 -25.15 68.59 C-22.07 70.01 -18.79 70.55 -15.48 71.18 C-15.07 71.26 -14.66 71.34 -14.24 71.42 C-5.62 73.12 3.07 74.25 11.76 75.43 C37.25 78.89 37.25 78.89 48.4 83.3 C48.88 83.49 49.37 83.67 49.87 83.86 C58.42 87.23 65.94 93.3 71.07 100.94 C77.77 111.82 78.92 124.75 78.3 137.29 C77.69 144.89 76.2 151.65 72.4 158.3 C72.16 158.74 71.92 159.17 71.67 159.62 C67.64 166.87 63 172.3 56.4 177.3 C56.04 177.6 55.68 177.89 55.31 178.19 C48.7 183.51 41.74 184.33 33.45 184.98 C32.7 185.03 31.96 185.07 31.2 185.12 C29.24 185.24 27.29 185.39 25.34 185.55 C15 186.37 4.68 186.44 -5.69 186.41 C-8.09 186.4 -10.49 186.4 -12.89 186.4 C-17.4 186.39 -21.92 186.39 -26.43 186.38 C-31.58 186.36 -36.74 186.36 -41.89 186.35 C-52.46 186.34 -63.03 186.33 -73.6 186.3 C-73.47 185.05 -73.32 183.79 -73.18 182.53 C-73.1 181.83 -73.02 181.13 -72.94 180.41 C-72.41 177.08 -71.21 174.1 -69.92 171 C-69.78 170.67 -69.78 170.67 -69.12 169.02 C-68.57 167.66 -68.02 166.3 -67.46 164.94 C-66.6 162.85 -65.75 160.76 -64.91 158.67 C-64.37 157.34 -63.83 156.01 -63.29 154.68 C-63.04 154.06 -62.78 153.43 -62.52 152.79 C-62.28 152.21 -62.05 151.64 -61.8 151.04 C-61.59 150.54 -61.39 150.03 -61.17 149.51 C-60.6 148.3 -60.6 148.3 -59.6 147.3 C-57.89 147.15 -56.21 147.06 -54.49 147 C-53.95 146.98 -53.42 146.96 -52.87 146.94 C-51.08 146.88 -49.29 146.82 -47.51 146.77 C-46.24 146.73 -44.98 146.68 -43.72 146.64 C-34.45 146.34 -25.19 146.18 -15.92 146.06 C-15.27 146.05 -14.62 146.04 -13.96 146.03 C-8 145.96 -2.04 145.88 3.92 145.83 C7.24 145.8 10.56 145.75 13.88 145.71 C15.12 145.69 16.37 145.68 17.61 145.67 C19.33 145.66 21.05 145.63 22.77 145.61 C23.26 145.61 23.76 145.61 24.28 145.61 C27.73 145.53 30.26 144.78 33.4 143.3 C35.4 141.6 36.47 139.76 37.4 137.3 C37.96 132.98 38.01 128.49 36.65 124.3 C35.4 122.3 35.4 122.3 33.69 121.27 C30.99 120.13 28.38 119.46 25.52 118.86 C24.92 118.73 24.32 118.61 23.7 118.47 C18.15 117.36 12.55 116.59 6.93 115.87 C6.7 115.84 6.7 115.84 5.53 115.69 C1.21 115.14 -3.12 114.6 -7.44 114.08 C-24.11 112.07 -41.69 109.31 -55.29 98.62 C-64.05 90.46 -67.86 80.47 -71.6 69.3 C-71.7 69.05 -71.7 69.05 -72.16 67.74 C-75.03 58.39 -71.84 45.57 -69.07 36.57 C-65.84 27.24 -60.93 18.16 -53.04 12 C-50.19 9.94 -47.2 8.21 -44.1 6.55 C-43.6 6.27 -43.1 5.99 -42.58 5.7 C-29.63 -0.78 -14.11 -0.12 0 0 Z " fill="#d035f1" transform="translate(280.6036376953125,494.6958181858063)"/>
    <path d="M0 0 C1.89 -0 3.78 -0.01 5.66 -0.01 C8.62 -0.01 11.57 -0.02 14.52 -0.01 C15.6 -0.01 16.68 -0.01 17.76 -0.01 C19.23 -0.02 20.7 -0.01 22.16 -0.01 C22.57 -0.01 22.57 -0.01 24.65 -0 C25.26 0.04 25.88 0.08 26.51 0.12 C26.84 0.45 27.17 0.78 27.51 1.12 C27.66 2.34 27.66 2.34 27.69 3.9 C27.69 4.19 27.69 4.19 27.72 5.66 C27.73 6.29 27.74 6.92 27.75 7.57 C27.76 8.22 27.76 8.87 27.77 9.54 C27.79 10.92 27.8 12.31 27.8 13.69 C27.82 15.79 27.87 17.88 27.91 19.98 C27.92 21.32 27.93 22.67 27.93 24.01 C27.95 24.63 27.97 25.25 27.99 25.9 C27.97 29.24 27.55 31.48 25.71 34.32 C23.91 36.73 21.97 38.99 19.86 41.15 C19.53 41.5 19.2 41.85 18.86 42.21 C17.81 43.31 16.75 44.4 15.7 45.5 C14.31 46.94 12.93 48.39 11.55 49.83 C11.21 50.19 10.87 50.55 10.52 50.91 C7.63 53.96 4.87 57.1 2.12 60.27 C-0.19 62.92 -2.55 65.53 -4.93 68.12 C-5.37 68.61 -5.82 69.1 -6.28 69.6 C-7.35 70.78 -8.42 71.95 -9.49 73.12 C-8.98 73.28 -8.47 73.44 -7.94 73.6 C-5.45 74.41 -2.97 75.25 -0.49 76.12 C-0.01 76.29 0.46 76.46 0.95 76.63 C11.14 80.27 19.54 85.79 26.24 94.41 C31.34 101.7 33.59 112.33 33.75 121.12 C33.76 121.58 33.77 122.04 33.78 122.52 C33.96 133.54 33.65 143.74 29.51 154.12 C29.31 154.62 29.11 155.12 28.91 155.64 C24.75 165.52 16.98 173.49 8.02 179.23 C-7.06 188.21 -24.09 187.28 -41.07 187.22 C-43.45 187.22 -45.83 187.22 -48.21 187.22 C-52.69 187.21 -57.17 187.21 -61.66 187.2 C-66.77 187.18 -71.88 187.18 -77 187.17 C-87.49 187.16 -97.99 187.15 -108.49 187.12 C-108.35 185.68 -108.2 184.24 -108.04 182.8 C-108 182.4 -108 182.4 -107.79 180.36 C-107.43 177.68 -106.73 175.45 -105.6 173 C-105.41 172.57 -105.23 172.14 -105.04 171.7 C-104.45 170.36 -103.85 169.02 -103.24 167.69 C-102.85 166.8 -102.47 165.91 -102.08 165.03 C-99.41 158.96 -96.47 153.04 -93.49 147.12 C-93.11 147.12 -92.73 147.12 -92.34 147.12 C-83.08 147.06 -73.83 146.98 -64.57 146.89 C-60.09 146.84 -55.62 146.8 -51.14 146.78 C-47.23 146.75 -43.33 146.72 -39.42 146.67 C-37.36 146.65 -35.29 146.63 -33.23 146.63 C-30.91 146.62 -28.6 146.59 -26.28 146.56 C-25.61 146.56 -24.94 146.56 -24.25 146.56 C-19.31 146.46 -14.88 145.44 -10.49 143.12 C-8.05 140.5 -7.17 137.6 -6.49 134.12 C-5.3 119 -5.3 119 -8.47 113.35 C-10.51 110.9 -12.48 110.03 -15.49 109.12 C-25.62 106.79 -35.83 106.73 -46.18 106.56 C-48.66 106.52 -51.13 106.47 -53.61 106.42 C-55.14 106.39 -56.67 106.36 -58.2 106.34 C-58.88 106.32 -59.56 106.31 -60.26 106.3 C-60.56 106.29 -60.56 106.29 -62.08 106.27 C-62.55 106.22 -63.01 106.17 -63.49 106.12 C-63.82 105.79 -64.15 105.46 -64.49 105.12 C-64.83 101.83 -64.89 98.54 -64.95 95.23 C-64.98 94.13 -65.02 93.03 -65.07 91.93 C-65.51 83.21 -65.51 83.21 -63.9 79.91 C-62.13 77.28 -59.85 75.22 -57.49 73.12 C-56.88 72.53 -56.26 71.93 -55.66 71.33 C-53.81 69.51 -51.9 67.75 -49.99 66 C-49.3 65.36 -48.61 64.72 -47.92 64.08 C-46.5 62.76 -45.07 61.44 -43.65 60.12 C-41.49 58.13 -39.36 56.12 -37.22 54.11 C-36.2 53.15 -35.18 52.19 -34.16 51.24 C-33.51 50.62 -32.86 50.01 -32.21 49.4 C-31.31 48.55 -30.41 47.7 -29.5 46.85 C-28.99 46.37 -28.48 45.89 -27.95 45.4 C-26.53 44.16 -25.08 43.13 -23.49 42.12 C-27.76 41.09 -31.84 40.95 -36.22 40.92 C-36.98 40.91 -37.74 40.9 -38.53 40.89 C-40.6 40.86 -42.67 40.84 -44.75 40.82 C-46.92 40.8 -49.09 40.77 -51.27 40.74 C-55.37 40.69 -59.48 40.65 -63.59 40.61 C-68.27 40.56 -72.95 40.5 -77.63 40.45 C-87.25 40.33 -96.87 40.23 -106.49 40.12 C-107.55 36.51 -107.55 36.51 -107.3 34.81 C-107.16 34.42 -107.01 34.04 -106.86 33.64 C-106.69 33.2 -106.53 32.75 -106.36 32.29 C-106.27 32.06 -106.27 32.06 -105.8 30.87 C-105.7 30.62 -105.7 30.62 -105.22 29.35 C-104.82 28.29 -104.41 27.23 -104 26.17 C-103.38 24.59 -102.78 23.01 -102.18 21.43 C-101.78 20.39 -101.38 19.35 -100.98 18.31 C-100.81 17.85 -100.63 17.4 -100.46 16.93 C-98.35 11.56 -95.9 6.35 -93.49 1.12 C-62.33 0.53 -31.17 0.02 0 0 Z " fill="#19c8ff" transform="translate(479.4911079406738,493.8766174316406)"/>
  </g>
</svg>
