<svg xmlns="http://www.w3.org/2000/svg" viewBox="0 0 24 24" fill="none"><path fill="#5865F2" d="M19.27 5.33a18.7 18.7 0 0 0-4.6-1.43.07.07 0 0 0-.07.04c-.2.36-.42.82-.57 1.18a17.3 17.3 0 0 0-5.19 0 12 12 0 0 0-.58-1.18.07.07 0 0 0-.07-.04 18.7 18.7 0 0 0-4.6 1.43.06.06 0 0 0-.03.03C.6 9.55-.18 13.65.2 17.7a.08.08 0 0 0 .03.05 18.8 18.8 0 0 0 5.66 2.86.07.07 0 0 0 .08-.03 13 13 0 0 0 1.13-1.84.07.07 0 0 0-.04-.1 12.4 12.4 0 0 1-1.77-.84.07.07 0 0 1-.01-.12c.12-.09.24-.18.35-.27a.07.07 0 0 1 .07-.01c3.71 1.7 7.73 1.7 11.4 0a.07.07 0 0 1 .08.01c.11.09.23.18.35.27a.07.07 0 0 1-.01.12c-.56.33-1.15.61-1.77.84a.07.07 0 0 0-.04.1c.33.64.71 1.25 1.13 1.84a.07.07 0 0 0 .08.03 18.7 18.7 0 0 0 5.66-2.86.07.07 0 0 0 .03-.05c.45-4.69-.76-8.76-3.21-12.34a.06.06 0 0 0-.03-.03ZM8.02 15.27c-1.1 0-2-1.02-2-2.27s.88-2.27 2-2.27 2.02 1.03 2 2.27c0 1.25-.88 2.27-2 2.27Zm7.4 0c-1.1 0-2-1.02-2-2.27s.88-2.27 2-2.27 2.02 1.03 2 2.27c0 1.25-.88 2.27-2 2.27Z"/></svg>
