<svg xmlns="http://www.w3.org/2000/svg" viewBox="0 0 24 24"><path fill="#5865f2" d="M20.317 4.37a19.8 19.8 0 0 0-4.885-1.515.074.074 0 0 0-.079.037c-.21.375-.444.864-.608 1.25a18.3 18.3 0 0 0-5.487 0 13 13 0 0 0-.617-1.25.08.08 0 0 0-.079-.037A19.7 19.7 0 0 0 3.677 4.37a.1.1 0 0 0-.032.027C.533 9.046-.32 13.58 1.334 18.062a.1.1 0 0 0 .029.035 20 20 0 0 0 5.767 2.871.08.08 0 0 0 .083-.027c.46-.63.882-1.296 1.258-1.996a.075.075 0 0 0-.041-.103 12.5 12.5 0 0 1-1.802-.858.075.075 0 0 1-.007-.125 8 8 0 0 0 .353-.277.08.08 0 0 1 .082-.01c3.085 1.417 6.42 1.417 9.477 0a.08.08 0 0 1 .083.01q.174.145.353.277a.075.075 0 0 1-.007.125 13 13 0 0 1-1.802.858.075.075 0 0 0-.041.103q.566 1.05 1.259 1.996a.08.08 0 0 0 .083.027 20 20 0 0 0 5.767-2.871.1.1 0 0 0 .029-.035c1.47-3.959 1.577-7.674.34-11.238a.1.1 0 0 0-.032-.027ZM8.02 15.332c-1.18 0-2.158-1.085-2.158-2.419 0-1.333.955-2.419 2.158-2.419 1.21 0 2.176 1.103 2.158 2.419 0 1.334-.954 2.419-2.158 2.419m7.974 0c-1.18 0-2.158-1.085-2.158-2.419 0-1.333.955-2.419 2.158-2.419 1.21 0 2.176 1.103 2.158 2.419 0 1.334-.954 2.419-2.158 2.419"/></svg>